<svg width="44" height="44" viewBox="0 0 44 44" fill="none" xmlns="http://www.w3.org/2000/svg">
<rect width="44" height="44" rx="14" fill="url(#paint0_linear_3795_1927)"/>
<path fill-rule="evenodd" clip-rule="evenodd" d="M24.3226 12.2564C24.3226 12.1884 24.2954 12.1232 24.247 12.0751C24.1986 12.027 24.133 12 24.0645 12H16.8387C16.0858 12 15.3638 12.2972 14.8314 12.8261C14.2991 13.3551 14 14.0725 14 14.8205V29.1795C14 29.9275 14.2991 30.6449 14.8314 31.1739C15.3638 31.7028 16.0858 32 16.8387 32H27.1613C27.9142 32 28.6362 31.7028 29.1686 31.1739C29.7009 30.6449 30 29.9275 30 29.1795V19.0738C30 19.0058 29.9728 18.9406 29.9244 18.8925C29.876 18.8445 29.8104 18.8174 29.7419 18.8174H25.0968C24.8914 18.8174 24.6945 18.7364 24.5493 18.5921C24.4041 18.4479 24.3226 18.2522 24.3226 18.0482V12.2564ZM25.0968 22.2564C25.3021 22.2564 25.499 22.3375 25.6442 22.4817C25.7894 22.626 25.871 22.8216 25.871 23.0256C25.871 23.2297 25.7894 23.4253 25.6442 23.5696C25.499 23.7138 25.3021 23.7949 25.0968 23.7949H18.9032C18.6979 23.7949 18.501 23.7138 18.3558 23.5696C18.2106 23.4253 18.129 23.2297 18.129 23.0256C18.129 22.8216 18.2106 22.626 18.3558 22.4817C18.501 22.3375 18.6979 22.2564 18.9032 22.2564H25.0968ZM25.0968 26.359C25.3021 26.359 25.499 26.44 25.6442 26.5843C25.7894 26.7285 25.871 26.9242 25.871 27.1282C25.871 27.3322 25.7894 27.5279 25.6442 27.6721C25.499 27.8164 25.3021 27.8974 25.0968 27.8974H18.9032C18.6979 27.8974 18.501 27.8164 18.3558 27.6721C18.2106 27.5279 18.129 27.3322 18.129 27.1282C18.129 26.9242 18.2106 26.7285 18.3558 26.5843C18.501 26.44 18.6979 26.359 18.9032 26.359H25.0968Z" fill="url(#paint1_linear_3795_1927)"/>
<path d="M25.871 12.5887C25.871 12.4 26.0702 12.28 26.2178 12.3979C26.3431 12.4985 26.4542 12.6154 26.5512 12.7487L29.6614 17.0533C29.7316 17.1518 29.6552 17.279 29.5334 17.279H26.129C26.0606 17.279 25.995 17.252 25.9466 17.2039C25.8982 17.1558 25.871 17.0906 25.871 17.0226V12.5887Z" fill="url(#paint2_linear_3795_1927)"/>
<defs>
<linearGradient id="paint0_linear_3795_1927" x1="44" y1="22" x2="0" y2="22" gradientUnits="userSpaceOnUse">
<stop stop-color="#EFF7FC"/>
<stop offset="1" stop-color="#F8EEF4"/>
</linearGradient>
<linearGradient id="paint1_linear_3795_1927" x1="30" y1="22" x2="14" y2="22" gradientUnits="userSpaceOnUse">
<stop stop-color="#5FB6E3"/>
<stop offset="1" stop-color="#B6568E"/>
</linearGradient>
<linearGradient id="paint2_linear_3795_1927" x1="30" y1="22" x2="14" y2="22" gradientUnits="userSpaceOnUse">
<stop stop-color="#5FB6E3"/>
<stop offset="1" stop-color="#B6568E"/>
</linearGradient>
</defs>
</svg>
