<svg width="20" height="20" viewBox="0 0 20 20" fill="none" xmlns="http://www.w3.org/2000/svg">
<path d="M8.42917 18.1755C8.93417 18.5922 9.46083 18.973 10 19.3447C10.5403 18.9779 11.0644 18.5878 11.5708 18.1755C12.415 17.4824 13.2095 16.7308 13.9483 15.9263C15.6517 14.0638 17.5 11.3638 17.5 8.33301C17.5 7.34809 17.306 6.37282 16.9291 5.46288C16.5522 4.55294 15.9997 3.72615 15.3033 3.02971C14.6069 2.33327 13.7801 1.78082 12.8701 1.40391C11.9602 1.027 10.9849 0.833008 10 0.833008C9.01509 0.833008 8.03982 1.027 7.12987 1.40391C6.21993 1.78082 5.39314 2.33327 4.6967 3.02971C4.00026 3.72615 3.44781 4.55294 3.0709 5.46288C2.69399 6.37282 2.5 7.34809 2.5 8.33301C2.5 11.3638 4.34833 14.063 6.05167 15.9263C6.79052 16.7311 7.58497 17.4821 8.42917 18.1755ZM10 11.0413C9.28171 11.0413 8.59283 10.756 8.08492 10.2481C7.57701 9.74018 7.29167 9.0513 7.29167 8.33301C7.29167 7.61471 7.57701 6.92584 8.08492 6.41793C8.59283 5.91002 9.28171 5.62467 10 5.62467C10.7183 5.62467 11.4072 5.91002 11.9151 6.41793C12.423 6.92584 12.7083 7.61471 12.7083 8.33301C12.7083 9.0513 12.423 9.74018 11.9151 10.2481C11.4072 10.756 10.7183 11.0413 10 11.0413Z" fill="url(#paint0_linear_221_10503)"/>
<defs>
<linearGradient id="paint0_linear_221_10503" x1="17.5" y1="10.0888" x2="2.5" y2="10.0888" gradientUnits="userSpaceOnUse">
<stop stop-color="#5FB6E3"/>
<stop offset="1" stop-color="#B6568E"/>
</linearGradient>
</defs>
</svg>
