<svg width="44" height="44" viewBox="0 0 44 44" fill="none" xmlns="http://www.w3.org/2000/svg">
<rect width="44" height="44" rx="14" fill="url(#paint0_linear_3795_1928)"/>
<path fill-rule="evenodd" clip-rule="evenodd" d="M32 26.2303C32 30.9006 27.8332 33 22 33C16.1668 33 12 30.9006 12 26.2633C12 21.1861 14.5004 18.6137 19.4996 16.0413L17.7295 12.6926C17.6239 12.5249 17.5651 12.3312 17.5594 12.1322C17.5536 11.9332 17.6012 11.7363 17.697 11.5626C17.7927 11.3889 17.9331 11.2448 18.1032 11.1458C18.2732 11.0467 18.4665 10.9964 18.6625 11.0002H25.7289C25.9126 11.005 26.0921 11.0571 26.2505 11.1518C26.4089 11.2464 26.541 11.3805 26.6343 11.5413C26.7276 11.702 26.7791 11.8843 26.7839 12.0709C26.7888 12.2574 26.7468 12.4422 26.6619 12.6078L24.5004 16.0413C29.4981 18.5791 32 21.1515 32 26.2303ZM22.967 18.6797C22.967 18.4192 22.8652 18.1694 22.6838 17.9852C22.5024 17.801 22.2565 17.6976 22 17.6976C21.7435 17.6976 21.4976 17.801 21.3162 17.9852C21.1348 18.1694 21.033 18.4192 21.033 18.6797V19.665C20.3775 19.6906 19.7538 19.9584 19.279 20.418C18.8042 20.8777 18.511 21.4975 18.4544 22.1612C18.3978 22.8249 18.5817 23.4868 18.9716 24.0225C19.3615 24.5582 19.9305 24.9309 20.5719 25.0706L22.851 25.5766C23.0846 25.6277 23.2913 25.7648 23.4313 25.9615C23.5712 26.1582 23.6345 26.4006 23.609 26.6419C23.5834 26.8831 23.4708 27.1063 23.2928 27.2682C23.1149 27.4302 22.8842 27.5195 22.6452 27.5189H21.3548C21.1547 27.5192 20.9595 27.4565 20.796 27.3394C20.6325 27.2224 20.5088 27.0567 20.4419 26.8652C20.4028 26.7396 20.3393 26.6232 20.255 26.523C20.1707 26.4229 20.0675 26.3409 19.9514 26.2821C19.8353 26.2233 19.7088 26.1888 19.5793 26.1807C19.4498 26.1726 19.3201 26.191 19.1977 26.2349C19.0754 26.2788 18.963 26.3472 18.8673 26.4361C18.7715 26.525 18.6944 26.6325 18.6404 26.7523C18.5864 26.8721 18.5567 27.0017 18.5531 27.1334C18.5494 27.2651 18.5719 27.3962 18.6192 27.5189C18.8016 28.0405 19.1245 28.4996 19.5513 28.8438C19.978 29.188 20.4914 29.4036 21.033 29.4659V30.4653C21.033 30.7258 21.1348 30.9756 21.3162 31.1598C21.4976 31.344 21.7435 31.4474 22 31.4474C22.2565 31.4474 22.5024 31.344 22.6838 31.1598C22.8652 30.9756 22.967 30.7258 22.967 30.4653V29.4659C23.6498 29.3871 24.2828 29.0648 24.7536 28.5565C25.2244 28.0481 25.5023 27.3866 25.5379 26.6897C25.5736 25.9928 25.3647 25.3056 24.9483 24.7505C24.5319 24.1953 23.9351 23.8082 23.2641 23.6579L20.985 23.1519C20.8001 23.1135 20.6359 23.0064 20.5247 22.8516C20.4134 22.6967 20.363 22.5053 20.3833 22.3147C20.4036 22.1241 20.4932 21.9481 20.6345 21.8211C20.7758 21.694 20.9587 21.625 21.1475 21.6277H22.6452C22.8455 21.6262 23.0413 21.6884 23.205 21.8057C23.3687 21.9229 23.4922 22.0893 23.5581 22.2814C23.6481 22.5209 23.8267 22.7151 24.0558 22.8227C24.2849 22.9302 24.5464 22.9426 24.7843 22.857C25.0222 22.7715 25.2178 22.5949 25.3292 22.3649C25.4407 22.1349 25.4592 21.8698 25.3808 21.6261C25.1998 21.1038 24.8772 20.6441 24.4501 20.2999C24.0231 19.9557 23.509 19.7411 22.967 19.6807V18.6797Z" fill="url(#paint1_linear_3795_1928)"/>
<defs>
<linearGradient id="paint0_linear_3795_1928" x1="44" y1="22" x2="0" y2="22" gradientUnits="userSpaceOnUse">
<stop stop-color="#EFF7FC"/>
<stop offset="1" stop-color="#F8EEF4"/>
</linearGradient>
<linearGradient id="paint1_linear_3795_1928" x1="32" y1="22" x2="12" y2="22" gradientUnits="userSpaceOnUse">
<stop stop-color="#5FB6E3"/>
<stop offset="1" stop-color="#B6568E"/>
</linearGradient>
</defs>
</svg>
