<svg width="300" height="301" viewBox="0 0 300 301" fill="none" xmlns="http://www.w3.org/2000/svg">
<path d="M246.546 188.222L254.556 188.06L258.504 187.988C259.818 187.988 261.12 187.988 262.434 187.988L262.164 188.252L262.134 181.544L262.434 181.838L254.49 181.802C251.838 181.802 249.192 181.736 246.546 181.706L246.708 181.544C246.708 182.642 246.654 183.746 246.63 184.862L246.546 188.222ZM246.546 188.222L246.456 184.904C246.456 183.782 246.39 182.648 246.378 181.514V181.352H246.546C249.192 181.352 251.838 181.256 254.49 181.256L262.434 181.22H262.734V181.526L262.698 188.234V188.504H262.434C261.09 188.504 259.752 188.504 258.414 188.474L254.4 188.39L246.546 188.222Z" fill="#EBEBEB"/>
<path d="M255.408 196.669L263.418 196.507L267.366 196.435C268.68 196.435 269.988 196.435 271.296 196.405L271.026 196.669V189.961L271.326 190.255L263.382 190.219C260.73 190.219 258.084 190.153 255.438 190.123L255.6 189.961C255.6 191.059 255.546 192.163 255.522 193.279L255.408 196.669ZM255.408 196.669L255.324 193.351C255.294 192.229 255.252 191.095 255.24 189.961V189.799H255.408C258.054 189.769 260.7 189.703 263.352 189.703L271.296 189.667H271.596V189.973L271.56 196.669V196.939H271.296C269.958 196.939 268.614 196.939 267.276 196.909L263.28 196.837L255.408 196.669Z" fill="#EBEBEB"/>
<path d="M237.648 196.694H253.536V189.98H237.648V196.694Z" fill="#EBEBEB"/>
<path d="M28.704 230.108L36.696 229.946L40.632 229.874C41.94 229.874 43.242 229.874 44.544 229.874L44.28 230.138L44.244 223.448L44.544 223.748L36.6 223.67C33.96 223.67 31.32 223.598 28.68 223.568L28.842 223.406C28.842 224.498 28.794 225.602 28.764 226.718L28.704 230.108ZM28.704 230.108L28.62 226.802C28.59 225.68 28.554 224.552 28.542 223.418V223.256H28.704C31.344 223.22 33.984 223.16 36.624 223.154L44.544 223.118H44.844V223.418V230.108V230.378H44.58C43.248 230.378 41.91 230.378 40.578 230.348L36.558 230.27L28.704 230.108Z" fill="#EBEBEB"/>
<path d="M37.5418 238.55H53.3818V231.854H37.5418V238.55Z" fill="#EBEBEB"/>
<path d="M69.87 95.1859L77.886 95.0179L81.834 94.9519C83.142 94.9219 84.45 94.9519 85.758 94.9219L85.494 95.1859L85.458 88.4719L85.758 88.7719L77.814 88.7359C75.168 88.7359 72.516 88.6699 69.87 88.6339L70.032 88.4719C70.032 89.5699 69.984 90.6799 69.954 91.7959L69.87 95.1859ZM69.87 95.1859L69.786 91.8679C69.786 90.7459 69.72 89.6119 69.708 88.4719V88.3099H69.87C72.516 88.2799 75.168 88.2139 77.814 88.2139L85.758 88.1719H86.058V88.4719L86.028 95.1859V95.4559H85.764C84.426 95.4559 83.082 95.4559 81.75 95.4199L77.754 95.3539L69.87 95.1859Z" fill="#EBEBEB"/>
<path d="M37.488 37.1538H53.376V30.4398H37.488V37.1538Z" fill="#EBEBEB"/>
<path d="M28.6319 45.6195L36.6419 45.4695L40.5899 45.4035C41.9039 45.4035 43.2059 45.4035 44.5199 45.4035L44.2499 45.6675V38.9535L44.5499 39.2535L36.5999 39.1695C33.9479 39.1695 31.3019 39.1035 28.6559 39.0675L28.8179 38.9055C28.8179 40.0035 28.7639 41.1075 28.7399 42.2295L28.6319 45.6195ZM28.6319 45.6195L28.5419 42.3015C28.5419 41.1795 28.4759 40.0455 28.4639 38.9055V38.7435H28.6319C31.2779 38.7435 33.9239 38.6475 36.5759 38.6415L44.5199 38.6055H44.8199V38.9055L44.7839 45.6195V45.8895H44.5199C43.1759 45.8895 41.8379 45.8895 40.4999 45.8535L36.5039 45.7875L28.6319 45.6195Z" fill="#EBEBEB"/>
<path d="M246.546 37.1536L254.556 36.9856L258.504 36.9196C259.818 36.9196 261.12 36.9196 262.434 36.9196L262.164 37.1836L262.134 30.4696L262.434 30.7696L254.49 30.7336C251.838 30.7336 249.192 30.6676 246.546 30.6316L246.708 30.4696C246.708 31.5676 246.654 32.6716 246.63 33.7936L246.546 37.1536ZM246.546 37.1536L246.456 33.8356C246.456 32.7136 246.39 31.5796 246.378 30.4396V30.2776H246.546C249.192 30.2776 251.838 30.1816 254.49 30.1756L262.434 30.1396H262.734V30.4696L262.698 37.1836V37.4536H262.434C261.09 37.4536 259.752 37.4536 258.414 37.4176L254.4 37.3216L246.546 37.1536Z" fill="#EBEBEB"/>
<path d="M221.43 121.112H237.318V114.398H221.43V121.112Z" fill="#EBEBEB"/>
<path d="M185.802 144.649H272.244V30.4394L185.802 30.4394V144.649Z" fill="#EBEBEB"/>
<path d="M230.748 85.8135H268.182V35.0115L230.748 35.0115V85.8135Z" fill="white"/>
<path d="M189.852 85.8135H227.286V35.0115L189.852 35.0115V85.8135Z" fill="white"/>
<path d="M230.748 140.072H268.182V89.2698H230.748V140.072Z" fill="white"/>
<path d="M189.852 140.072H227.286V89.2698H189.852V140.072Z" fill="white"/>
<path d="M214.68 30.4395H185.796V193.831H202.512L190.848 110.689L214.68 30.4395Z" fill="#DBDBDB"/>
<path d="M209.676 34.8555L205.11 53.8515L200.454 72.8235L191.136 110.761L191.142 110.659L195.45 150.307L197.598 170.131L199.65 189.967L197.304 170.167L195.048 150.355L190.548 110.725L190.542 110.671L190.554 110.617L200.07 72.7275L204.828 53.7795L209.676 34.8555Z" fill="#EBEBEB"/>
<path d="M187.518 38.2095L187.662 54.5955L187.746 70.9815L187.818 103.753L187.746 136.525L187.662 152.911L187.518 169.297L187.368 152.911L187.284 136.525L187.218 103.753L187.284 70.9815L187.368 54.5955L187.518 38.2095Z" fill="#EBEBEB"/>
<path d="M192.912 41.2817L192.03 58.6997L191.088 76.1117L189.114 110.936V110.912L190.074 149.72L190.494 169.118L190.848 188.528L190.188 169.13L189.594 149.732L188.526 110.93V110.912V110.906L190.644 76.0877L191.754 58.6817L192.912 41.2817Z" fill="#EBEBEB"/>
<path d="M196.674 186.014L194.772 167.216L192.93 148.412C191.76 135.872 190.53 123.332 189.408 110.786V110.708L194.772 81.4337L197.496 66.7997L200.262 52.1777L197.742 66.8417L195.18 81.5057L189.972 110.81V110.738C191.172 123.272 192.276 135.824 193.434 148.364L195.084 167.186L196.674 186.014Z" fill="#EBEBEB"/>
<path d="M185.802 113.132H192.324V109.322H185.802V113.132Z" fill="#DBDBDB"/>
<path d="M243.288 30.4395H272.172V193.831H255.456L267.126 110.689L243.288 30.4395Z" fill="#DBDBDB"/>
<path d="M248.292 34.8555L253.14 53.7795L257.898 72.7275L267.414 110.617L267.426 110.671L267.42 110.725L262.92 150.355L260.664 170.167L258.318 189.967L260.37 170.131L262.524 150.307L266.826 110.659L266.832 110.761L257.514 72.8235L252.858 53.8515L248.292 34.8555Z" fill="#EBEBEB"/>
<path d="M270.45 38.2095L270.6 54.5955L270.684 70.9815L270.75 103.753L270.684 136.525L270.6 152.911L270.45 169.297L270.306 152.911L270.222 136.525L270.156 103.753L270.222 70.9815L270.306 54.5955L270.45 38.2095Z" fill="#EBEBEB"/>
<path d="M265.056 41.2817L266.22 58.6817L267.324 76.0877L269.442 110.906V110.912V110.93L268.374 149.732L267.78 169.13L267.126 188.528L267.48 169.118L267.894 149.72L268.854 110.912V110.936L266.88 76.1117L265.944 58.6997L265.056 41.2817Z" fill="#EBEBEB"/>
<path d="M261.294 186.014L262.884 167.186L264.54 148.364C265.692 135.824 266.796 123.272 267.996 110.738V110.81L262.8 81.5057L260.238 66.8417L257.718 52.1777L260.49 66.7997L263.214 81.4337L268.572 110.708V110.786C267.444 123.332 266.22 135.872 265.044 148.412L263.208 167.216L261.294 186.014Z" fill="#EBEBEB"/>
<path d="M272.172 109.322H265.65V113.132H272.172V109.322Z" fill="#DBDBDB"/>
<path d="M67.7281 45.7876H33.8521V86.8816H67.7281V45.7876Z" fill="#EBEBEB"/>
<path d="M63.8577 49.5376H37.7217V83.1316H63.8577V49.5376Z" fill="white"/>
<path d="M38.7417 49.5376H37.7217V83.1316H38.7417V49.5376Z" fill="#DBDBDB"/>
<path d="M68.748 45.7876H67.728V86.8816H68.748V45.7876Z" fill="#DBDBDB"/>
<path d="M52.6439 54.1694H46.4819V72.5294H52.6439V54.1694Z" fill="#DBDBDB"/>
<path d="M60.5217 75.9618H43.4937V66.3618H60.5217V75.9618ZM44.0937 75.3618H59.9217V66.9618H44.0937V75.3618Z" fill="#EBEBEB"/>
<path d="M98.916 96.8477H65.04V137.942H98.916V96.8477Z" fill="#EBEBEB"/>
<path d="M95.0457 100.598H68.9097V134.192H95.0457V100.598Z" fill="white"/>
<path d="M69.9297 100.598H68.9097V134.192H69.9297V100.598Z" fill="#DBDBDB"/>
<path d="M99.936 96.8477H98.916V137.942H99.936V96.8477Z" fill="#DBDBDB"/>
<path d="M84.7258 109.286H79.4458V122.636H84.7258V109.286Z" fill="#EBEBEB"/>
<path d="M90.5997 126.896H75.8037V117.098H90.5997V126.896ZM76.4157 126.296H89.9997V117.698H76.4037L76.4157 126.296Z" fill="#DBDBDB"/>
<path d="M82.9918 283.448C115.062 283.448 141.06 280.958 141.06 277.886C141.06 274.814 115.062 272.324 82.9918 272.324C50.9218 272.324 24.9238 274.814 24.9238 277.886C24.9238 280.958 50.9218 283.448 82.9918 283.448Z" fill="#EBEBEB"/>
<path d="M26.6699 265.304L57.5039 265.16L88.3379 265.106L150 265.004L211.662 265.106L242.496 265.16L273.33 265.304L242.496 265.454L211.662 265.508L150 265.604L88.3379 265.508L57.5039 265.454L26.6699 265.304Z" fill="#263238"/>
<path d="M244.566 211.742C244.566 211.742 239.088 203.342 226.818 204.968C215.16 206.522 207.906 226.946 219.204 230.546C230.502 234.146 230.298 214.586 234.804 211.694C238.122 209.576 242.508 210.512 244.566 211.742Z" fill="url(#paint0_linear_1092_4293)"/>
<path d="M216.462 215.516C217.309 214.905 218.195 214.35 219.114 213.854C219.983 213.375 220.914 213.018 221.88 212.792C223.386 210.889 225.326 209.374 227.538 208.376L227.184 208.322C226.549 208.235 225.91 208.181 225.27 208.16C223.98 208.13 222.696 208.333 221.478 208.76C221.464 208.764 221.448 208.763 221.435 208.757C221.421 208.75 221.411 208.738 221.406 208.724C221.401 208.709 221.402 208.694 221.409 208.68C221.416 208.667 221.428 208.656 221.442 208.652C222.676 208.252 223.953 207.996 225.246 207.89C225.875 207.836 226.507 207.836 227.136 207.89C227.472 207.926 227.808 207.98 228.138 208.046L228.33 208.082C229.49 207.63 230.698 207.311 231.93 207.134L231.606 207.014C231.031 206.827 230.446 206.673 229.854 206.552C228.671 206.302 227.461 206.207 226.254 206.27C226.182 206.27 226.17 206.156 226.254 206.15C227.473 206.12 228.693 206.186 229.902 206.348C230.922 206.472 231.927 206.699 232.902 207.026C233.638 206.964 234.378 206.95 235.116 206.984C239.316 207.206 243.732 209.204 245.982 212.888C248.232 216.572 248.304 221.216 248.382 225.416C248.535 231.272 248.133 237.131 247.182 242.912C247.122 243.254 246.648 243.146 246.672 242.816C246.978 237.866 247.272 232.916 247.272 227.954C247.272 225.656 247.242 223.346 247.08 221.054C246.987 219.086 246.609 217.141 245.958 215.282C245.235 213.379 243.969 211.73 242.316 210.542C240.652 209.369 238.748 208.58 236.742 208.232C234.956 207.918 233.128 207.918 231.342 208.232C231.369 208.589 231.345 208.949 231.27 209.3C231.191 209.742 231.06 210.173 230.88 210.584C230.715 210.973 230.514 211.347 230.28 211.7C230.022 212.096 229.68 212.438 229.422 212.804C229.374 212.864 229.284 212.804 229.332 212.732C229.892 212.073 230.289 211.292 230.49 210.452C230.6 210.057 230.686 209.656 230.748 209.252C230.796 208.946 230.796 208.652 230.838 208.328C228.878 208.733 227.012 209.502 225.336 210.596C225.018 210.806 224.736 211.022 224.418 211.25C224.777 211.657 225.08 212.111 225.318 212.6C225.671 213.241 225.968 213.911 226.206 214.604C226.591 215.993 226.79 217.428 226.8 218.87C226.8 218.886 226.794 218.901 226.782 218.912C226.771 218.923 226.756 218.93 226.74 218.93C226.724 218.93 226.709 218.923 226.698 218.912C226.686 218.901 226.68 218.886 226.68 218.87C226.592 217.46 226.256 216.077 225.69 214.784C225.432 214.145 225.134 213.524 224.796 212.924C224.622 212.612 224.436 212.324 224.244 212.012C224.142 211.85 224.028 211.688 223.932 211.52C222.389 212.768 221.08 214.282 220.068 215.99C220.573 216.644 220.978 217.37 221.268 218.144C221.624 218.96 221.923 219.8 222.162 220.658C222.592 222.311 222.914 223.991 223.128 225.686C223.128 225.758 223.026 225.77 223.014 225.686C222.811 223.978 222.394 222.303 221.772 220.7C221.484 219.914 221.172 219.14 220.842 218.372C220.493 217.653 220.185 216.916 219.918 216.164C218.952 217.84 218.307 219.681 218.016 221.594C218.016 221.666 217.89 221.648 217.902 221.594C218.413 218.598 219.615 215.763 221.412 213.314C220.644 213.554 219.882 213.788 219.138 214.1C218.19 214.491 217.295 215.002 216.474 215.618C216.468 215.66 216.402 215.558 216.462 215.516Z" fill="#263238"/>
<path d="M225.228 216.794C225.474 217.994 225.828 219.194 226.032 220.436C226.253 221.622 226.318 222.832 226.224 224.036C226.224 224.066 226.17 224.066 226.17 224.036C226.074 221.605 225.72 219.191 225.114 216.836C225.111 216.828 225.11 216.82 225.11 216.812C225.111 216.804 225.113 216.796 225.116 216.789C225.119 216.782 225.124 216.775 225.13 216.77C225.136 216.765 225.143 216.76 225.15 216.758C225.158 216.755 225.166 216.754 225.174 216.754C225.181 216.754 225.189 216.756 225.197 216.759C225.204 216.763 225.21 216.768 225.216 216.773C225.221 216.779 225.225 216.786 225.228 216.794Z" fill="#263238"/>
<path d="M217.902 213.134C218.416 212.724 218.988 212.392 219.6 212.15C220.221 211.937 220.859 211.776 221.508 211.67C221.574 211.67 221.592 211.778 221.508 211.784C220.872 211.891 220.253 212.081 219.666 212.348C219.073 212.59 218.498 212.873 217.944 213.194C217.94 213.197 217.935 213.199 217.931 213.2C217.926 213.201 217.921 213.201 217.916 213.2C217.912 213.199 217.907 213.197 217.903 213.195C217.899 213.192 217.896 213.189 217.893 213.185C217.89 213.181 217.888 213.177 217.887 213.172C217.886 213.167 217.886 213.162 217.887 213.158C217.888 213.153 217.889 213.148 217.892 213.144C217.895 213.14 217.898 213.137 217.902 213.134Z" fill="#263238"/>
<path d="M238.632 201.974C238.632 201.974 237.48 187.868 226.992 183.296C218.232 179.474 213.192 189.296 219.408 195.344C224.4 200.216 232.452 198.02 238.632 201.974Z" fill="url(#paint1_linear_1092_4293)"/>
<path d="M221.352 186.026C222.947 186.671 224.504 187.409 226.014 188.234C227.263 188.958 228.465 189.76 229.614 190.634C229.44 190.28 229.29 189.902 229.11 189.554C228.84 189.008 228.546 188.48 228.222 187.958C227.576 186.892 226.8 185.911 225.912 185.036C225.858 184.982 225.942 184.904 225.996 184.958C226.881 185.835 227.693 186.782 228.426 187.79C228.789 188.302 229.121 188.835 229.422 189.386C229.733 189.889 229.969 190.435 230.124 191.006L230.244 191.096C232.076 192.553 233.755 194.194 235.254 195.992C235.224 195.854 235.194 195.716 235.158 195.59C234.96 194.9 234.75 194.222 234.522 193.538C234.073 192.09 233.436 190.709 232.626 189.428C232.621 189.414 232.621 189.4 232.626 189.386C232.63 189.373 232.64 189.362 232.652 189.355C232.664 189.347 232.678 189.345 232.692 189.347C232.706 189.35 232.719 189.357 232.728 189.368C233.552 190.653 234.286 191.994 234.924 193.382C235.214 194.06 235.457 194.758 235.65 195.47C235.803 195.932 235.917 196.405 235.992 196.886C236.448 197.486 236.898 198.05 237.318 198.65C241.824 205.064 244.08 212.816 244.626 220.574C244.784 222.886 244.822 225.205 244.74 227.522C244.727 229.86 244.526 232.193 244.14 234.5C244.11 234.644 243.882 234.602 243.888 234.458C243.936 232.418 244.152 230.39 244.188 228.35C244.227 226.306 244.161 224.261 243.99 222.224C243.659 218.154 242.892 214.131 241.704 210.224C240.494 206.224 238.707 202.422 236.4 198.938C235.956 198.854 235.518 198.734 235.086 198.62C234.654 198.506 234.036 198.35 233.514 198.206C232.507 197.944 231.529 197.584 230.592 197.132C230.579 197.124 230.57 197.111 230.567 197.096C230.564 197.082 230.566 197.066 230.574 197.054C230.582 197.041 230.595 197.032 230.609 197.029C230.624 197.025 230.639 197.028 230.652 197.036C231.576 197.538 232.578 197.883 233.616 198.056C234.438 198.218 235.29 198.326 236.112 198.518C235.357 197.406 234.544 196.334 233.676 195.308C231.675 195.494 229.657 195.344 227.706 194.864C226.669 194.613 225.649 194.297 224.652 193.916C223.602 193.508 222.606 192.992 221.574 192.554C221.496 192.524 221.574 192.41 221.616 192.452C223.497 193.474 225.549 194.145 227.67 194.432C229.541 194.732 231.433 194.888 233.328 194.9C232.584 194.042 231.81 193.214 230.988 192.428C228.234 189.806 224.988 187.394 221.334 186.14C221.244 186.116 221.28 185.996 221.352 186.026Z" fill="#263238"/>
<path d="M229.884 186.068C230.357 186.665 230.788 187.295 231.174 187.952C231.563 188.645 231.873 189.379 232.098 190.142C232.098 190.142 232.068 190.178 232.056 190.142C231.702 189.452 231.408 188.732 231.054 188.048C230.71 187.366 230.289 186.726 229.8 186.14C229.758 186.092 229.842 186.014 229.884 186.068Z" fill="#263238"/>
<path d="M220.134 190.766C220.815 191.143 221.535 191.445 222.282 191.666C223 191.907 223.731 192.107 224.472 192.266C224.508 192.266 224.502 192.332 224.472 192.326C223.7 192.245 222.939 192.078 222.204 191.828C221.477 191.557 220.767 191.241 220.08 190.88C220.008 190.832 220.068 190.73 220.134 190.766Z" fill="#263238"/>
<path d="M246.21 199.898C246.276 200.498 247.794 194.774 256.662 189.698C264.72 185.078 274.332 173.054 266.436 165.464C260.058 159.32 243.264 172.67 246.21 199.898Z" fill="url(#paint2_linear_1092_4293)"/>
<path d="M240.102 232.76C240.233 226.792 240.704 220.836 241.512 214.922C242.214 209.488 243.469 204.141 245.256 198.962C245.916 197.096 246.672 195.266 247.488 193.454C247.443 192.752 247.455 192.048 247.524 191.348C247.572 190.442 247.65 189.548 247.734 188.642C247.818 187.736 247.908 186.842 248.016 185.942C248.124 185.042 248.316 184.142 248.352 183.254C248.352 183.17 248.484 183.188 248.466 183.254C248.288 184.196 248.181 185.151 248.148 186.11C248.076 186.98 248.028 187.85 247.998 188.72C247.968 189.59 247.998 190.466 247.998 191.342C247.998 191.654 247.998 191.99 247.998 192.326C248.832 190.562 249.726 188.828 250.698 187.136C250.098 183.458 250.878 179.618 251.628 176.024C251.628 175.952 251.754 175.982 251.736 176.054C251.362 177.932 251.161 179.839 251.136 181.754C251.1 183.266 251.172 184.754 251.178 186.284C251.388 185.924 251.604 185.558 251.82 185.204C252.972 183.326 254.22 181.484 255.504 179.696C255.397 178.825 255.425 177.942 255.588 177.08C255.736 176.11 255.95 175.152 256.23 174.212C256.518 173.276 256.83 172.352 257.214 171.446C257.598 170.54 258.108 169.646 258.48 168.692C258.51 168.614 258.63 168.692 258.582 168.74C258.112 169.625 257.74 170.558 257.472 171.524C257.182 172.43 256.939 173.352 256.746 174.284C256.56 175.214 256.41 176.15 256.278 177.098C256.188 177.698 256.134 178.364 256.026 178.994C257.927 176.453 260.002 174.047 262.236 171.794C262.29 171.74 262.368 171.824 262.314 171.878C258.939 175.677 255.926 179.782 253.314 184.142C253.212 184.304 253.122 184.472 253.026 184.64C253.518 184.328 254.076 184.088 254.538 183.83C255.396 183.356 256.254 182.882 257.124 182.414L259.632 181.04C260.064 180.8 260.49 180.548 260.928 180.326C261.45 180.09 261.952 179.811 262.428 179.492C262.494 179.444 262.566 179.546 262.494 179.588C261.642 180.056 260.886 180.752 260.064 181.28C259.242 181.808 258.396 182.318 257.532 182.798C255.954 183.674 254.244 184.31 252.69 185.198C251.616 187.082 250.626 189.02 249.69 190.988C250.632 190.388 251.592 189.788 252.57 189.266C253.2 188.912 253.83 188.564 254.466 188.228C255.105 187.937 255.708 187.574 256.266 187.148C256.32 187.1 256.398 187.184 256.344 187.232C255.312 188.162 254.167 188.958 252.936 189.602C251.796 190.268 250.644 190.91 249.462 191.492C248.514 193.568 247.662 195.692 246.894 197.84C243.162 208.412 241.788 219.632 241.134 230.774C240.942 234.098 240.84 237.416 240.798 240.746C240.756 244.076 240.93 247.388 240.924 250.706C240.924 250.808 240.762 250.832 240.75 250.706C240.348 247.76 240.282 244.76 240.15 241.796C240.018 238.832 240.036 235.778 240.102 232.76Z" fill="#263238"/>
<path d="M256.2 184.904C257.819 184.19 259.392 183.377 260.91 182.468C262.451 181.601 263.945 180.654 265.386 179.63C265.386 179.63 265.44 179.63 265.416 179.666C264.058 180.767 262.622 181.77 261.12 182.666C259.55 183.547 257.924 184.327 256.254 185C256.2 185.036 256.146 184.934 256.2 184.904Z" fill="#263238"/>
<path d="M253.65 172.958C253.776 172.442 253.944 171.932 254.112 171.434C254.105 171.425 254.102 171.415 254.102 171.404C254.102 171.393 254.105 171.382 254.112 171.374C254.22 171.086 254.34 170.804 254.454 170.522L254.496 170.42C254.522 170.365 254.544 170.309 254.562 170.252C254.562 170.252 254.598 170.252 254.592 170.252C254.586 170.252 254.538 170.45 254.508 170.546C254.495 170.601 254.479 170.655 254.46 170.708C253.874 172.673 253.435 174.678 253.146 176.708C253.146 176.768 253.038 176.774 253.038 176.708C253.124 175.442 253.329 174.186 253.65 172.958Z" fill="#263238"/>
<path d="M244.614 215.174C247.704 205.574 254.688 199.874 263.67 201.194C272.652 202.514 275.7 214.334 269.7 218.27C263.7 222.206 256.002 214.274 252.348 212.942C248.694 211.61 244.614 215.174 244.614 215.174Z" fill="url(#paint3_linear_1092_4293)"/>
<path d="M243.792 239.684C243.66 238.598 243.552 237.512 243.432 236.42C243.204 234.248 242.964 232.076 242.736 229.904C242.322 225.932 242.196 221.99 243.336 218.114C244.307 214.595 246.326 211.456 249.126 209.114C250.166 208.264 251.316 207.559 252.546 207.02C253.541 205.682 254.902 204.661 256.464 204.08C258.403 203.39 260.448 203.046 262.506 203.066C262.578 203.066 262.59 203.174 262.506 203.18C260.553 203.198 258.624 203.606 256.83 204.38C256.061 204.711 255.329 205.124 254.646 205.61C254.221 205.925 253.82 206.272 253.446 206.648C255.134 206.038 256.932 205.799 258.72 205.946C259.365 206.006 260.003 206.12 260.628 206.288C261.085 206.116 261.564 206.007 262.05 205.964C262.682 205.892 263.32 205.892 263.952 205.964C265.25 206.135 266.518 206.484 267.72 207.002C267.732 207.01 267.74 207.021 267.744 207.035C267.748 207.048 267.747 207.063 267.742 207.076C267.736 207.089 267.726 207.099 267.713 207.105C267.7 207.112 267.686 207.113 267.672 207.11C266.5 206.669 265.272 206.396 264.024 206.3C263.425 206.252 262.823 206.252 262.224 206.3C261.891 206.329 261.561 206.379 261.234 206.45C263.851 207.232 266.106 208.915 267.6 211.202C267.636 211.268 267.546 211.334 267.504 211.274C266.624 209.949 265.455 208.839 264.086 208.029C262.716 207.219 261.182 206.728 259.596 206.594C259.398 206.594 259.2 206.594 258.996 206.564C259.082 206.861 259.15 207.164 259.2 207.47C259.32 207.896 259.458 208.322 259.608 208.742C259.913 209.606 260.271 210.449 260.682 211.268C261.095 212.099 261.564 212.901 262.086 213.668C262.597 214.487 263.201 215.244 263.886 215.924C263.946 215.978 263.856 216.062 263.802 216.002C263.172 215.264 262.458 214.604 261.87 213.83C261.302 213.089 260.791 212.307 260.34 211.49C259.888 210.66 259.503 209.795 259.188 208.904C259.026 208.436 258.882 207.956 258.756 207.476C258.657 207.191 258.597 206.894 258.576 206.594C257.54 206.582 256.507 206.707 255.504 206.966C256.194 209.054 256.92 211.226 258.39 212.918C258.438 212.972 258.342 213.05 258.294 212.984C257.591 212.079 256.951 211.127 256.38 210.134C255.835 209.168 255.431 208.13 255.18 207.05C253.442 207.536 251.812 208.35 250.38 209.45C247.678 211.579 245.695 214.485 244.698 217.778C243.651 221.315 243.314 225.024 243.708 228.692C244.074 233.324 244.674 237.95 244.866 242.594C244.866 242.894 244.422 243.062 244.314 242.732C244.044 241.734 243.87 240.714 243.792 239.684Z" fill="#263238"/>
<path d="M249.6 208.328C249.839 207.938 250.129 207.583 250.464 207.272C250.776 206.92 251.106 206.586 251.454 206.27C252.135 205.64 252.918 205.131 253.77 204.764C253.836 204.734 253.884 204.842 253.812 204.872C252.953 205.221 252.178 205.749 251.538 206.42C251.21 206.744 250.898 207.08 250.602 207.428C250.342 207.787 250.047 208.118 249.72 208.418C249.684 208.466 249.6 208.4 249.6 208.328Z" fill="#263238"/>
<path d="M264.03 209.594C264.88 210.329 265.682 211.119 266.43 211.958C267.16 212.804 267.802 213.722 268.344 214.7C268.344 214.73 268.344 214.754 268.296 214.73C267.016 212.919 265.572 211.23 263.982 209.684C263.904 209.636 264 209.546 264.03 209.594Z" fill="#263238"/>
<path d="M254.508 210.044C254.68 210.592 254.924 211.114 255.234 211.598C255.544 212.065 255.891 212.506 256.272 212.918C256.272 212.948 256.272 212.984 256.224 212.966C255.356 212.202 254.73 211.201 254.424 210.086C254.4 210.02 254.484 209.972 254.508 210.044Z" fill="#263238"/>
<path d="M230.736 234.902L231.366 242.402L233.304 265.28H254.058L255.99 242.402L256.626 234.902H230.736Z" fill="#455A64"/>
<path d="M230.736 234.902L231.366 242.402H255.99L256.626 234.902H230.736Z" fill="#263238"/>
<path d="M228.696 239.09H258.66V231.896H228.696V239.09Z" fill="#455A64"/>
<path d="M200.706 35.3359H99.3058C97.9453 35.3477 96.6004 35.6274 95.3481 36.1591C94.0957 36.6909 92.9605 37.4641 92.0071 38.4348C91.0537 39.4054 90.3009 40.5544 89.7918 41.8161C89.2826 43.0778 89.0271 44.4275 89.0398 45.7879V254.588C89.0239 255.949 89.2763 257.299 89.7824 258.563C90.2886 259.826 91.0386 260.977 91.9897 261.95C92.9407 262.924 94.0742 263.7 95.3254 264.235C96.5766 264.771 97.921 265.054 99.2818 265.07H200.682C203.431 265.046 206.057 263.932 207.985 261.972C209.912 260.012 210.982 257.367 210.96 254.618V45.8179C210.976 44.4562 210.723 43.1046 210.216 41.8406C209.709 40.5766 208.958 39.4249 208.006 38.4513C207.053 37.4778 205.918 36.7016 204.666 36.167C203.413 35.6324 202.068 35.35 200.706 35.3359ZM204.564 248.138C204.564 253.634 200.448 258.08 195.372 258.08H104.634C99.5398 258.08 95.4298 253.634 95.4298 248.138V53.7019C95.4298 42.5059 99.5398 41.9599 104.634 41.9599H122.808C123.864 41.9599 124.728 43.1599 124.728 44.6479V45.2899C124.728 48.7759 126.636 48.7879 128.982 48.7879H170.982C173.382 48.7879 175.236 48.7879 175.236 45.2899V44.6479C175.236 43.1599 176.088 41.9599 177.168 41.9599H195.342C200.418 41.9599 204.534 43.4479 204.534 53.7019L204.564 248.138Z" fill="#263238"/>
<path d="M155.73 44.4321H144.264C144.076 44.4321 143.896 44.3575 143.763 44.2247C143.63 44.092 143.556 43.9119 143.556 43.7241C143.556 43.5363 143.63 43.3563 143.763 43.2235C143.896 43.0907 144.076 43.0161 144.264 43.0161H155.73C155.917 43.0161 156.098 43.0907 156.23 43.2235C156.363 43.3563 156.438 43.5363 156.438 43.7241C156.438 43.9119 156.363 44.092 156.23 44.2247C156.098 44.3575 155.917 44.4321 155.73 44.4321Z" fill="white"/>
<path d="M204.564 53.702V248.138C204.564 253.634 200.448 258.08 195.372 258.08H104.634C99.5397 258.08 95.4297 253.634 95.4297 248.138V53.702C95.4297 42.506 99.5397 41.96 104.634 41.96H122.808C123.864 41.96 124.728 43.16 124.728 44.648V45.29C124.728 48.776 126.636 48.788 128.982 48.788H170.982C173.382 48.788 175.236 48.788 175.236 45.29V44.648C175.236 43.16 176.088 41.96 177.168 41.96H195.342C200.448 41.96 204.564 43.448 204.564 53.702Z" fill="white"/>
<path d="M201.504 43.6698H175.404C175.686 42.6798 176.376 41.9778 177.204 41.9778H195.39C197.73 41.9538 199.878 42.2778 201.504 43.6698Z" fill="#DBDBDB"/>
<path d="M95.4297 238.556V241.142H104.466V238.556H95.4297ZM204.564 78.4701L175.2 109.586H161.688V83.8701H167.058V81.2661H159.084V109.58H144.438V48.7881H139.242V67.0041H95.4417V72.2001H139.242V109.586H96.7977V119.786H95.4297V122.39H96.7977V161.024L104.598 178.892H95.4297V184.088H106.884L112.998 198.062C109.212 199.703 106.084 202.562 104.111 206.185C102.138 209.808 101.433 213.987 102.108 218.056C102.783 222.126 104.8 225.853 107.838 228.645C110.876 231.437 114.759 233.132 118.872 233.462L131.586 254.27L127.752 258.104H140.028L124.704 233.072C127.259 232.458 129.654 231.306 131.73 229.694C133.805 228.082 135.514 226.046 136.741 223.722C137.968 221.398 138.686 218.839 138.848 216.216C139.009 213.592 138.609 210.965 137.676 208.508L173.94 191.258H204.54V186.068H190.038L159.6 152.972H204.552V150.374H157.2L124.464 114.782H177.408L195.3 95.8101L204.54 105.05V97.7061L198.876 92.0361L204.54 86.0361L204.564 78.4701ZM120.372 228.374C117.737 228.375 115.161 227.595 112.97 226.132C110.779 224.669 109.07 222.589 108.061 220.156C107.052 217.722 106.788 215.043 107.301 212.459C107.814 209.875 109.082 207.501 110.945 205.638C112.807 203.774 115.181 202.505 117.765 201.99C120.349 201.476 123.027 201.739 125.462 202.747C127.896 203.755 129.977 205.463 131.44 207.653C132.904 209.844 133.686 212.419 133.686 215.054C133.683 218.585 132.279 221.97 129.783 224.467C127.287 226.964 123.902 228.369 120.372 228.374ZM183 186.044H172.8L135.162 203.93C133.436 201.639 131.201 199.781 128.635 198.5C126.069 197.219 123.24 196.552 120.372 196.55C119.6 196.553 118.828 196.601 118.062 196.694L102 159.944V114.782H117.42L183 186.044ZM186.864 258.08H190.542L204.582 244.034V240.356L186.864 258.08Z" fill="#EBEBEB"/>
<path d="M114 118.718H106.446V126.272H114V118.718Z" fill="#DBDBDB"/>
<path d="M184.914 147.674V133.094H179.61V126.998H170.268V147.674H184.914Z" fill="#DBDBDB"/>
<path d="M159.012 48.7881V63.4521H151.104V54.5241H146.826V48.7881H159.012Z" fill="#DBDBDB"/>
<path d="M204.564 53.6958V58.7538H197.964V46.0278H203.28C204.096 47.7678 204.564 50.2338 204.564 53.6958Z" fill="#DBDBDB"/>
<path d="M163.734 107.384V96.542H184.05L173.076 107.516L163.734 107.384Z" fill="#DBDBDB"/>
<path d="M157.038 97.3101H146.832V107.516H157.038V97.3101Z" fill="#DBDBDB"/>
<path d="M136.8 74.2339H124.506V85.5439H136.8V74.2339Z" fill="#DBDBDB"/>
<path d="M136.806 87.7642V107.516H121.764L112.176 97.9282V87.7642H136.806Z" fill="#DBDBDB"/>
<path d="M109.464 100.106L117.018 107.66H96.8579V100.106H109.464Z" fill="#DBDBDB"/>
<path d="M108.384 195.548H95.4297V186.452H104.718L108.384 195.548Z" fill="#DBDBDB"/>
<path d="M104.856 230.606V234.974H95.4297V215.546H98.0037C98.7222 221.14 101.11 226.389 104.856 230.606Z" fill="#DBDBDB"/>
<path d="M150 192.866L142.098 175.796H132.498L116.058 183.422L120.354 192.8H120.39C126.227 192.794 131.831 195.088 135.99 199.184L150 192.866Z" fill="#DBDBDB"/>
<path d="M204.564 171.608V182.942H192.204L181.776 171.608H204.564Z" fill="#DBDBDB"/>
<path d="M126.93 253.292L122.406 258.092H104.628C103.968 258.09 103.309 258.013 102.666 257.864V252.464H110.358V240.56L116.148 235.688L126.93 253.292Z" fill="#DBDBDB"/>
<path d="M163.536 233.27L147.936 217.01L141.936 221.684C141.059 224.522 139.631 227.159 137.733 229.445C135.836 231.73 133.506 233.619 130.878 235.004L143.916 256.316L163.536 233.27Z" fill="#DBDBDB"/>
<path d="M146.55 209.864L173.94 196.322H187.602V220.142L166.302 230.66L146.55 209.864Z" fill="#DBDBDB"/>
<path d="M204.552 248.576C204.366 253.376 201.024 257.288 196.722 257.972H195.156L204.552 248.576Z" fill="#DBDBDB"/>
<path d="M106.446 129.422V159.356L114.798 179.792L130.038 172.238H165.588L125.724 129.422H106.446Z" fill="url(#paint4_linear_1092_4293)"/>
<path d="M193.14 86.606H163.734V93.974H186.192L193.14 86.606Z" fill="#DBDBDB"/>
<path d="M100.68 176.456H95.4297V164.294L100.68 176.456Z" fill="#DBDBDB"/>
<path d="M204.564 196.322H191.388V211.898H204.564V196.322Z" fill="#DBDBDB"/>
<path d="M204.564 214.328H191.388V219.794H204.564V214.328Z" fill="#DBDBDB"/>
<path d="M188.112 252.806L182.838 258.08H148.212L166.542 235.694L188.112 252.806Z" fill="#DBDBDB"/>
<path d="M190.002 250.232L198.9 241.694L188.106 232.298V223.85L169.086 233.54L190.002 250.232Z" fill="url(#paint5_linear_1092_4293)"/>
<path d="M204.564 222.206V235.454L201.036 238.772L191.388 230.66V222.206H204.564Z" fill="#DBDBDB"/>
<path d="M98.8137 244.112V255.842C97.7362 254.871 96.8773 253.682 96.294 252.353C95.7106 251.025 95.416 249.588 95.4297 248.138V244.112H98.8137Z" fill="#DBDBDB"/>
<path d="M107.25 245.342H102.666V249.926H107.25V245.342Z" fill="#DBDBDB"/>
<path d="M136.014 48.7881V63.8901H106.938V46.6041L111.996 41.9541H122.796C123.846 41.9541 124.71 43.1541 124.71 44.6481V45.2901C124.71 48.7761 126.624 48.7881 128.964 48.7881H136.014Z" fill="#DBDBDB"/>
<path d="M104.478 54.6138H95.4297V63.8778H104.478V54.6138Z" fill="#DBDBDB"/>
<path d="M104.478 47.042V52.22H95.4775C95.5079 50.4709 95.7517 48.732 96.2035 47.042H104.478Z" fill="#DBDBDB"/>
<path d="M109.266 41.9541L106.068 44.9541H97.0679C98.7239 42.1641 101.496 41.9541 104.634 41.9541H109.266Z" fill="#DBDBDB"/>
<path d="M167.262 156.116L179.61 169.082H191.388V156.116H167.262Z" fill="#DBDBDB"/>
<path d="M204.564 163.124H193.836V169.088H204.564V163.124Z" fill="#DBDBDB"/>
<path d="M200.142 156.116H193.836V161.534H200.142V156.116Z" fill="#DBDBDB"/>
<path d="M204.564 156.116H201.714V161.534H204.564V156.116Z" fill="#DBDBDB"/>
<path d="M145.8 175.796H165.588V185.258L152.934 191L145.8 175.796Z" fill="#DBDBDB"/>
<path d="M120.378 224.012C125.282 224.012 129.258 220.036 129.258 215.132C129.258 210.228 125.282 206.252 120.378 206.252C115.473 206.252 111.498 210.228 111.498 215.132C111.498 220.036 115.473 224.012 120.378 224.012Z" fill="url(#paint6_linear_1092_4293)"/>
<path d="M100.182 74.2339H95.4297V81.0559H100.182V74.2339Z" fill="#DBDBDB"/>
<path d="M109.242 97.6458V74.2397H101.994V93.0557H96.8579V97.6458H109.242Z" fill="#DBDBDB"/>
<path d="M122.442 74.2339H112.176V84.9139H122.442V74.2339Z" fill="#DBDBDB"/>
<path d="M100.182 82.3701H95.4297V90.9921H100.182V82.3701Z" fill="#DBDBDB"/>
<path d="M202.374 133.094H187.122V147.68H202.374V133.094Z" fill="#DBDBDB"/>
<path d="M131.43 117.386L147.342 134.702H167.316V117.386H131.43Z" fill="#DBDBDB"/>
<path d="M149.61 136.7L159.708 147.68H167.262V136.7H149.61Z" fill="#DBDBDB"/>
<path d="M179.604 117.386H170.268V124.616H179.604V117.386Z" fill="#DBDBDB"/>
<path d="M202.38 124.316V108.056L195 100.112L182.136 113.906V129.68H197.388V124.316H202.38Z" fill="url(#paint7_linear_1092_4293)"/>
<path d="M204.564 90.0918V94.4538L202.458 92.3898L204.564 90.0918Z" fill="#DBDBDB"/>
<path d="M204.564 61.124V74.534L195.708 84.26H184.05V61.124H204.564Z" fill="#DBDBDB"/>
<path d="M181.344 69.5957H169.998V84.2597H181.344V69.5957Z" fill="url(#paint8_linear_1092_4293)"/>
<path d="M195.708 46.0278V58.7538H181.338V67.7538H169.998V48.7878H171C173.178 48.7878 174.96 48.7878 175.2 46.0278H195.708Z" fill="#DBDBDB"/>
<path d="M168.534 48.7881H160.392V58.4481H168.534V48.7881Z" fill="#DBDBDB"/>
<path d="M168.54 65.0361H146.832V75.7101H168.54V65.0361Z" fill="#DBDBDB"/>
<path d="M168.54 59.9897H160.392V63.4517H168.54V59.9897Z" fill="#DBDBDB"/>
<path d="M157.038 95.27H151.104L146.832 91.214V79.418H157.038V95.27Z" fill="#DBDBDB"/>
<path d="M119.67 46.3279C119.609 46.3829 119.551 46.441 119.496 46.5019L119.394 46.5979C118.944 46.1509 118.336 45.9 117.702 45.9C117.068 45.9 116.459 46.1509 116.01 46.5979L115.914 46.4959L115.74 46.3219L115.962 46.1239C116.121 45.9966 116.294 45.8879 116.478 45.7999C116.692 45.6919 116.92 45.6151 117.156 45.5719C117.269 45.5501 117.383 45.534 117.498 45.5239H117.798H118.026C118.231 45.5508 118.432 45.6012 118.626 45.6739C118.773 45.7276 118.916 45.7939 119.052 45.8719C119.194 45.9535 119.329 46.0479 119.454 46.1539L119.64 46.3219L119.67 46.3279Z" fill="#A6A6A6"/>
<path d="M116.562 47.1499L116.286 46.8739C116.59 46.5683 116.986 46.3703 117.414 46.3099C117.721 46.262 118.036 46.2882 118.331 46.3863C118.626 46.4844 118.894 46.6516 119.112 46.8739C119.022 46.9639 118.932 47.0599 118.836 47.1499C118.688 46.9996 118.511 46.8806 118.316 46.8002C118.122 46.7198 117.912 46.6795 117.702 46.6819C117.49 46.6801 117.28 46.7206 117.084 46.8009C116.889 46.8813 116.711 46.9999 116.562 47.1499Z" fill="#A6A6A6"/>
<path d="M118.56 47.4257L118.284 47.7017C118.204 47.6241 118.111 47.5629 118.008 47.5217C117.905 47.4805 117.795 47.4601 117.684 47.4617C117.572 47.4595 117.461 47.4802 117.358 47.5225C117.255 47.5648 117.162 47.6279 117.084 47.7077L116.808 47.4317C116.919 47.3114 117.055 47.2154 117.205 47.1495C117.356 47.0837 117.518 47.0494 117.682 47.0488C117.847 47.0483 118.009 47.0814 118.16 47.1463C118.311 47.2111 118.447 47.3062 118.56 47.4257Z" fill="#A6A6A6"/>
<path d="M117.948 47.9541C117.949 47.9869 117.943 48.0195 117.931 48.0501C117.919 48.0806 117.901 48.1084 117.878 48.1319C117.855 48.1554 117.827 48.1741 117.797 48.1868C117.767 48.1995 117.735 48.2061 117.702 48.2061C117.669 48.2061 117.636 48.1996 117.605 48.1869C117.575 48.1742 117.547 48.1557 117.524 48.1323C117.5 48.1089 117.482 48.0811 117.469 48.0505C117.456 48.0199 117.45 47.9872 117.45 47.9541C117.45 47.9213 117.456 47.8888 117.469 47.8585C117.482 47.8283 117.5 47.8009 117.524 47.778C117.547 47.755 117.575 47.7371 117.606 47.7251C117.636 47.7131 117.669 47.7073 117.702 47.7081C117.767 47.7081 117.83 47.734 117.876 47.7801C117.922 47.8263 117.948 47.8888 117.948 47.9541Z" fill="#A6A6A6"/>
<path d="M102.54 46.8559C102.54 46.7123 102.582 46.5719 102.662 46.4525C102.742 46.3331 102.855 46.2401 102.988 46.1851C103.12 46.1302 103.266 46.1158 103.407 46.1438C103.548 46.1718 103.677 46.241 103.779 46.3425C103.88 46.4441 103.95 46.5734 103.978 46.7142C104.006 46.8551 103.991 47.0011 103.936 47.1337C103.881 47.2664 103.788 47.3798 103.669 47.4595C103.55 47.5393 103.409 47.5819 103.266 47.5819C103.17 47.5827 103.075 47.5644 102.987 47.5282C102.898 47.492 102.818 47.4386 102.75 47.371C102.683 47.3034 102.629 47.2231 102.593 47.1347C102.557 47.0462 102.539 46.9514 102.54 46.8559Z" fill="#A6A6A6"/>
<path d="M104.82 46.8559C104.82 46.7123 104.862 46.5719 104.942 46.4525C105.022 46.3331 105.135 46.2401 105.268 46.1851C105.401 46.1302 105.547 46.1158 105.687 46.1438C105.828 46.1718 105.958 46.241 106.059 46.3425C106.161 46.4441 106.23 46.5734 106.258 46.7142C106.286 46.8551 106.272 47.0011 106.217 47.1337C106.162 47.2664 106.069 47.3798 105.949 47.4595C105.83 47.5393 105.689 47.5819 105.546 47.5819C105.45 47.5827 105.356 47.5644 105.267 47.5282C105.179 47.492 105.098 47.4386 105.031 47.371C104.963 47.3034 104.91 47.2231 104.873 47.1347C104.837 47.0462 104.819 46.9514 104.82 46.8559Z" fill="#A6A6A6"/>
<path d="M107.1 46.8559C107.1 46.712 107.142 46.5714 107.222 46.4519C107.302 46.3324 107.416 46.2393 107.549 46.1846C107.682 46.1298 107.829 46.1158 107.969 46.1443C108.11 46.1728 108.24 46.2425 108.341 46.3447C108.442 46.4468 108.511 46.5767 108.538 46.7179C108.566 46.8592 108.551 47.0053 108.495 47.1379C108.439 47.2704 108.345 47.3834 108.225 47.4624C108.104 47.5415 107.963 47.583 107.82 47.5819C107.725 47.5819 107.63 47.563 107.543 47.5265C107.455 47.4899 107.375 47.4364 107.308 47.3689C107.241 47.3014 107.189 47.2213 107.153 47.1332C107.117 47.0452 107.099 46.9509 107.1 46.8559Z" fill="#A6A6A6"/>
<path d="M109.38 46.8559C109.38 46.712 109.423 46.5714 109.503 46.4519C109.583 46.3324 109.696 46.2393 109.829 46.1846C109.962 46.1298 110.109 46.1158 110.25 46.1443C110.391 46.1728 110.52 46.2425 110.621 46.3447C110.723 46.4468 110.791 46.5767 110.819 46.7179C110.846 46.8592 110.831 47.0053 110.775 47.1379C110.719 47.2704 110.625 47.3834 110.505 47.4624C110.385 47.5415 110.244 47.583 110.1 47.5819C110.005 47.5819 109.911 47.563 109.823 47.5265C109.735 47.4899 109.656 47.4364 109.589 47.3689C109.522 47.3014 109.469 47.2213 109.433 47.1332C109.397 47.0452 109.379 46.9509 109.38 46.8559Z" fill="#A6A6A6"/>
<path d="M111.654 46.8559C111.654 46.7123 111.696 46.5719 111.776 46.4525C111.856 46.3331 111.969 46.2401 112.102 46.1851C112.235 46.1302 112.381 46.1158 112.521 46.1438C112.662 46.1718 112.792 46.241 112.893 46.3425C112.995 46.4441 113.064 46.5734 113.092 46.7142C113.12 46.8551 113.106 47.0011 113.051 47.1337C112.996 47.2664 112.903 47.3798 112.783 47.4595C112.664 47.5393 112.523 47.5819 112.38 47.5819C112.284 47.5827 112.19 47.5644 112.101 47.5282C112.013 47.492 111.932 47.4386 111.865 47.371C111.797 47.3034 111.744 47.2231 111.707 47.1347C111.671 47.0462 111.653 46.9514 111.654 46.8559Z" fill="#A6A6A6"/>
<path d="M196.224 45.8599H190.638V48.2899H196.224V45.8599Z" fill="#A6A6A6"/>
<path d="M196.38 48.434H190.488V45.71H196.38V48.434ZM190.788 48.134H196.08V46.01H190.8L190.788 48.134Z" fill="white"/>
<path d="M194.778 46.1719H190.98V47.9719H194.778V46.1719Z" fill="#A6A6A6"/>
<path d="M196.902 46.3398H196.38V47.7978H196.902V46.3398Z" fill="#A6A6A6"/>
<path d="M155.124 198.062L154.638 196.97L174.81 188.006H187.302L117.402 111.686H141.318V66.7578H142.518V112.886H120.126L190.026 189.206H175.068L155.124 198.062Z" fill="url(#paint9_linear_1092_4293)"/>
<path d="M145.974 59.6839C145.8 57.6559 144.372 55.6699 141.918 55.6699C139.464 55.6699 138.072 57.6859 137.868 59.7139C137.562 62.8399 139.668 65.6779 141.918 68.2639C144.174 65.6479 146.286 62.8099 145.974 59.6839ZM141.918 61.9339C141.479 61.9327 141.051 61.8015 140.686 61.5569C140.322 61.3122 140.038 60.9651 139.871 60.5593C139.704 60.1536 139.661 59.7074 139.747 59.2772C139.834 58.8469 140.046 58.4519 140.356 58.142C140.667 57.8322 141.063 57.6213 141.493 57.5362C141.924 57.451 142.37 57.4953 142.775 57.6635C143.18 57.8317 143.527 58.1162 143.77 58.4812C144.014 58.8461 144.144 59.2751 144.144 59.7139C144.145 60.0062 144.088 60.2957 143.976 60.5658C143.865 60.8359 143.7 61.0812 143.494 61.2876C143.287 61.494 143.041 61.6574 142.77 61.7683C142.5 61.8792 142.21 61.9355 141.918 61.9339Z" fill="url(#paint10_linear_1092_4293)"/>
<path d="M152.118 205.316L152.064 199.094L147.054 195.404L159.306 195.56L152.118 205.316Z" fill="#37474F"/>
<path d="M133.2 252.374L120 230.174L120.948 230.084C125.812 229.324 130.198 226.725 133.2 222.824C138.054 216.422 133.752 207.314 133.71 207.224L133.44 206.678L152.922 197.774L153.42 198.866L135.042 207.266C135.954 209.45 138.792 217.466 134.154 223.556C131.139 227.491 126.787 230.185 121.92 231.128L134.19 251.762L133.2 252.374Z" fill="#37474F"/>
<path d="M137.742 245.378C137.538 243.35 136.14 241.334 133.686 241.334C131.232 241.334 129.84 243.35 129.636 245.378C129.33 248.504 131.436 251.342 133.686 253.928C135.942 251.342 138.054 248.504 137.742 245.378ZM133.686 247.628C133.247 247.627 132.818 247.496 132.454 247.251C132.09 247.006 131.806 246.659 131.639 246.253C131.472 245.848 131.429 245.401 131.515 244.971C131.601 244.541 131.813 244.146 132.124 243.836C132.435 243.526 132.83 243.315 133.261 243.23C133.691 243.145 134.137 243.189 134.543 243.358C134.948 243.526 135.294 243.81 135.538 244.175C135.782 244.54 135.912 244.969 135.912 245.408C135.912 245.7 135.855 245.99 135.744 246.26C135.632 246.53 135.468 246.775 135.261 246.982C135.054 247.188 134.808 247.351 134.538 247.462C134.268 247.573 133.978 247.63 133.686 247.628Z" fill="url(#paint11_linear_1092_4293)"/>
<path d="M224.922 173.563C224.924 177.186 223.821 180.723 221.761 183.703C219.7 186.682 216.78 188.963 213.39 190.239C209.999 191.516 206.3 191.728 202.786 190.848C199.272 189.967 196.11 188.036 193.722 185.312H159.114L154.272 194.27L149.43 185.312H145.008V161.816H193.728C196.118 159.094 199.28 157.166 202.794 156.287C206.307 155.409 210.005 155.622 213.395 156.899C216.784 158.176 219.703 160.455 221.764 163.434C223.824 166.412 224.928 169.948 224.928 173.569L224.922 173.563Z" fill="white"/>
<path d="M224.922 173.564C224.899 175.363 224.633 177.152 224.13 178.88C223.576 180.582 222.784 182.198 221.778 183.68C219.709 186.669 216.779 188.958 213.378 190.244C212.96 190.413 212.533 190.561 212.1 190.688L210.792 191.024C210.354 191.114 209.904 191.168 209.46 191.246C209.016 191.318 208.567 191.36 208.116 191.372C206.312 191.5 204.5 191.34 202.746 190.898C199.21 190.022 196.025 188.09 193.614 185.36L193.704 185.402L159.09 185.498L159.276 185.384L154.476 194.354L154.266 194.75L154.056 194.354L149.19 185.408L149.424 185.552H145.002H144.72V185.27C144.72 181.352 144.72 177.44 144.72 173.522L144.756 161.774V161.522H145.008L193.728 161.654L193.608 161.774V161.732L193.638 161.696C196.063 158.977 199.259 157.062 202.8 156.206C204.554 155.764 206.366 155.604 208.17 155.732C208.621 155.744 209.07 155.786 209.514 155.858C209.958 155.936 210.408 155.99 210.846 156.08L212.154 156.416C212.587 156.542 213.014 156.69 213.432 156.86C216.833 158.143 219.762 160.43 221.832 163.418C222.837 164.911 223.628 166.536 224.184 168.248C224.669 169.978 224.917 171.767 224.922 173.564ZM224.922 173.564C224.89 171.767 224.613 169.982 224.1 168.26C223.532 166.554 222.723 164.938 221.7 163.46C219.635 160.499 216.718 158.237 213.336 156.974C212.923 156.808 212.5 156.665 212.07 156.548L210.768 156.218C210.33 156.128 209.88 156.08 209.442 156.008C209 155.934 208.553 155.894 208.104 155.888C206.317 155.769 204.523 155.935 202.788 156.38C199.306 157.259 196.172 159.173 193.8 161.87L193.83 161.792V161.912H193.71L144.99 162.044L145.242 161.792L145.278 173.54C145.278 177.458 145.278 181.37 145.278 185.288L144.996 185.006H149.418H149.58L149.652 185.15L154.452 194.12H154.032L158.898 185.174L158.958 185.06H159.084L193.698 185.156H193.8L193.836 185.198C196.204 187.912 199.344 189.838 202.836 190.718C204.57 191.168 206.365 191.336 208.152 191.216C208.601 191.209 209.048 191.169 209.49 191.096C209.928 191.03 210.378 190.976 210.816 190.892L212.112 190.556C212.544 190.439 212.969 190.297 213.384 190.13C216.768 188.867 219.687 186.605 221.754 183.644C222.766 182.163 223.563 180.547 224.124 178.844C224.627 177.128 224.895 175.352 224.922 173.564Z" fill="#263238"/>
<path d="M214.488 187.235C222.043 183.162 224.865 173.736 220.793 166.182C216.72 158.627 207.294 155.805 199.739 159.877C192.185 163.95 189.362 173.376 193.435 180.931C197.508 188.485 206.934 191.308 214.488 187.235Z" fill="url(#paint12_linear_1092_4293)"/>
<path d="M158.148 171.314C157.944 169.286 156.546 167.27 154.092 167.27C151.638 167.27 150.246 169.286 150.042 171.314C149.736 174.44 151.842 177.278 154.092 179.864C156.348 177.278 158.46 174.47 158.148 171.314ZM154.092 173.564C153.654 173.562 153.225 173.431 152.861 173.186C152.496 172.942 152.213 172.595 152.046 172.189C151.879 171.783 151.835 171.337 151.922 170.907C152.008 170.477 152.22 170.082 152.531 169.772C152.841 169.462 153.237 169.251 153.668 169.166C154.098 169.081 154.544 169.125 154.949 169.293C155.355 169.461 155.701 169.746 155.945 170.111C156.188 170.476 156.318 170.905 156.318 171.344C156.319 171.636 156.262 171.925 156.15 172.195C156.039 172.466 155.875 172.711 155.668 172.917C155.461 173.124 155.215 173.287 154.945 173.398C154.674 173.509 154.385 173.565 154.092 173.564Z" fill="url(#paint13_linear_1092_4293)"/>
<path d="M187.122 169.129H162.57V169.867H187.122V169.129Z" fill="#A6A6A6"/>
<path d="M183.264 171.182H162.57V171.92H183.264V171.182Z" fill="#A6A6A6"/>
<path d="M185.91 173.233H162.57V173.971H185.91V173.233Z" fill="#A6A6A6"/>
<path d="M176.508 175.286H162.57V176.024H176.508V175.286Z" fill="#A6A6A6"/>
<path d="M217.638 184.97C214.772 187.621 211.013 189.096 207.108 189.104C206.405 189.104 205.703 189.051 205.008 188.948C204.546 188.895 204.087 188.815 203.634 188.708C204.199 186.889 204.901 185.116 205.734 183.404C205.8 183.26 205.884 183.122 205.95 183.002C206.059 182.822 206.177 182.647 206.304 182.48C206.904 181.736 208.404 181.37 210.042 181.34C210.754 181.323 211.466 181.361 212.172 181.454C212.739 181.522 213.299 181.638 213.846 181.802L213.948 181.832H214.008L214.398 181.976L214.74 182.132C214.754 182.128 214.769 182.128 214.782 182.132C214.973 182.219 215.153 182.33 215.316 182.462C215.424 182.552 215.544 182.654 215.658 182.762C216.39 183.43 217.053 184.17 217.638 184.97Z" fill="#EBEBEB"/>
<path d="M217.896 184.73C217.814 184.814 217.728 184.894 217.638 184.97C216.445 186.08 215.082 186.992 213.6 187.67C214.044 184.67 214.386 182.348 214.434 181.97C214.436 181.95 214.436 181.93 214.434 181.91C214.548 181.976 214.658 182.048 214.764 182.126C214.778 182.122 214.792 182.122 214.806 182.126C215.016 182.264 215.316 182.474 215.682 182.756C216.465 183.361 217.205 184.021 217.896 184.73Z" fill="#37474F"/>
<path d="M206.076 182.27L205.962 182.996C205.962 183.176 205.896 183.386 205.866 183.596C205.836 183.806 205.806 183.968 205.764 184.196C205.572 185.396 205.302 187.106 205.008 188.942C204.546 188.889 204.087 188.809 203.634 188.702L203.472 188.666C204.052 186.668 204.794 184.722 205.692 182.846C205.808 182.646 205.936 182.453 206.076 182.27Z" fill="#37474F"/>
<path d="M207.906 187.615C209.706 187.819 213.09 185.329 214.032 182.689C214.098 182.509 213.564 180.793 213.018 178.675C212.688 177.391 212.352 175.951 212.142 174.619C212.1 174.343 204.09 177.973 204.09 177.973C204.832 179.567 205.376 181.246 205.71 182.971C205.728 183.157 205.728 183.344 205.71 183.529V183.619C205.74 184.669 205.992 187.393 207.906 187.615Z" fill="#D3766A"/>
<path d="M205.74 183.529C205.737 183.559 205.737 183.59 205.74 183.619C206.03 183.611 206.319 183.581 206.604 183.529C211.512 182.641 211.836 176.269 211.836 174.667C210.384 175.117 204.084 177.973 204.084 177.973C204.826 179.569 205.37 181.25 205.704 182.977C205.73 183.16 205.742 183.345 205.74 183.529Z" fill="#263238"/>
<path d="M212.052 163.981C213.336 166.849 212.844 175.657 210.966 177.847C208.242 181.015 203.244 181.915 200.412 178.519C197.67 175.225 198.51 163.753 200.658 161.719C203.826 158.701 210.15 159.745 212.052 163.981Z" fill="#D3766A"/>
<path d="M205.95 170.198C205.95 170.198 205.992 170.228 205.992 170.252C205.944 170.852 205.992 171.53 206.514 171.752C206.514 171.752 206.514 171.794 206.514 171.788C205.854 171.662 205.8 170.75 205.95 170.198Z" fill="#263238"/>
<path d="M206.508 169.604C207.468 169.604 207.444 171.499 206.556 171.517C205.668 171.535 205.704 169.622 206.508 169.604Z" fill="#263238"/>
<path d="M202.314 170.27C202.314 170.27 202.266 170.27 202.266 170.324C202.266 170.924 202.194 171.602 201.666 171.794C201.666 171.794 201.666 171.83 201.666 171.824C202.314 171.722 202.422 170.816 202.314 170.27Z" fill="#263238"/>
<path d="M201.792 169.628C200.832 169.544 200.736 171.458 201.624 171.536C202.512 171.614 202.59 169.67 201.792 169.628Z" fill="#263238"/>
<path d="M207.276 168.734C207.025 168.658 206.779 168.568 206.538 168.464C206.264 168.405 206.017 168.257 205.836 168.044C205.791 167.965 205.774 167.874 205.787 167.785C205.8 167.696 205.843 167.614 205.908 167.552C206.054 167.447 206.225 167.384 206.403 167.368C206.581 167.352 206.761 167.385 206.922 167.462C207.273 167.569 207.573 167.799 207.768 168.11C207.806 168.184 207.822 168.268 207.813 168.351C207.805 168.434 207.773 168.513 207.721 168.579C207.67 168.644 207.6 168.694 207.521 168.721C207.442 168.749 207.357 168.753 207.276 168.734Z" fill="#263238"/>
<path d="M201.06 168.65C201.324 168.608 201.564 168.53 201.822 168.464C202.101 168.433 202.362 168.313 202.566 168.122C202.621 168.05 202.651 167.963 202.651 167.873C202.651 167.783 202.621 167.695 202.566 167.624C202.433 167.504 202.271 167.423 202.095 167.388C201.92 167.353 201.739 167.366 201.57 167.426C201.208 167.49 200.883 167.687 200.658 167.978C200.612 168.046 200.586 168.126 200.584 168.208C200.582 168.29 200.603 168.371 200.645 168.442C200.687 168.512 200.749 168.569 200.822 168.606C200.896 168.643 200.979 168.658 201.06 168.65Z" fill="#263238"/>
<path d="M205.404 173.93C205.253 174.164 205.054 174.364 204.82 174.517C204.587 174.67 204.324 174.772 204.048 174.818C203.806 174.851 203.559 174.851 203.316 174.818C203.271 174.824 203.224 174.824 203.178 174.818H203.046C202.98 174.818 202.944 174.752 202.932 174.686C202.93 174.666 202.93 174.646 202.932 174.626V174.578C202.932 174.116 202.98 173.42 202.98 173.42C202.812 173.504 201.954 173.876 201.972 173.642C202.047 171.578 202.332 169.527 202.824 167.522C202.824 167.507 202.83 167.494 202.84 167.484C202.85 167.473 202.864 167.468 202.878 167.468C202.893 167.468 202.907 167.473 202.917 167.484C202.927 167.494 202.932 167.507 202.932 167.522C202.872 169.43 202.476 171.314 202.386 173.222C202.693 173.088 203.016 172.995 203.346 172.946C203.412 172.946 203.22 174.29 203.238 174.494C203.613 174.535 203.992 174.5 204.352 174.392C204.713 174.283 205.048 174.104 205.338 173.864C205.398 173.87 205.44 173.87 205.404 173.93Z" fill="#263238"/>
<path d="M203.592 174.613C203.838 174.942 204.165 175.203 204.54 175.369C204.75 175.452 204.98 175.469 205.2 175.417C205.674 175.297 205.692 174.859 205.608 174.487C205.563 174.29 205.495 174.099 205.404 173.917C204.889 174.334 204.254 174.578 203.592 174.613Z" fill="#263238"/>
<path d="M204.54 175.37C204.75 175.452 204.98 175.469 205.2 175.418C205.674 175.298 205.692 174.86 205.608 174.488C205.357 174.494 205.115 174.584 204.922 174.744C204.728 174.904 204.594 175.124 204.54 175.37Z" fill="#FF9ABB"/>
<path d="M199.356 164.612C199.692 163.862 200.076 163.106 200.556 162.962C201.036 162.818 201.942 164.162 202.956 164.24C204.348 164.348 205.284 162.794 207.234 162.674C209.184 162.554 210.354 164.912 210.384 168.884C210.384 172.436 212.55 172.79 212.55 172.79C212.55 172.79 213.93 164.99 211.746 162.362C209.562 159.734 204.546 158.552 201.096 160.988C199.842 161.87 199.356 164.612 199.356 164.612Z" fill="#263238"/>
<path d="M210.768 171.374C210.768 171.374 212.424 168.374 213.768 168.938C215.112 169.502 214.068 173.702 212.64 174.416C212.463 174.519 212.267 174.585 212.064 174.611C211.86 174.637 211.654 174.621 211.457 174.565C211.26 174.509 211.076 174.414 210.916 174.285C210.757 174.156 210.625 173.997 210.528 173.816L210.768 171.374Z" fill="#D3766A"/>
<path d="M213.438 170.138C213.438 170.138 213.438 170.138 213.438 170.174C212.436 170.708 211.992 171.734 211.71 172.772C211.761 172.662 211.835 172.564 211.927 172.485C212.019 172.406 212.127 172.347 212.244 172.313C212.36 172.279 212.482 172.27 212.603 172.287C212.723 172.304 212.838 172.347 212.94 172.412C212.94 172.412 212.94 172.478 212.94 172.472C212.751 172.432 212.554 172.452 212.376 172.529C212.199 172.607 212.05 172.738 211.95 172.904C211.784 173.182 211.649 173.478 211.548 173.786C211.506 173.882 211.332 173.852 211.356 173.738C211.2 172.388 212.022 170.42 213.438 170.138Z" fill="#263238"/>
<path d="M50.9579 102.812C52.8539 103.802 53.2199 107.222 59.2439 107.012C60.1019 107.012 60.7979 106.646 61.5899 106.934C62.7359 107.36 63.6479 108.278 64.6739 108.95C65.4987 109.5 66.4352 109.86 67.4159 110.006C69.3055 110.23 71.2145 109.791 72.8159 108.764C73.7999 108.164 74.6159 107.318 75.5819 106.658C76.5479 105.998 82.2959 104.612 83.2619 101.378C83.8619 99.3195 83.7839 96.9795 81.3419 93.9735C80.7773 93.4393 80.3916 92.7435 80.2379 91.9815C80.2421 91.3121 80.3959 90.652 80.6879 90.0495C81.0258 89.3639 81.1472 88.5918 81.0359 87.8355C80.7639 87.1158 80.326 86.4704 79.7579 85.9515C78.8579 84.8655 79.0259 83.2875 79.7579 81.3495C80.0439 80.5286 80.1385 79.6532 80.0345 78.7901C79.9305 77.927 79.6307 77.0991 79.1579 76.3695C78.565 75.5301 77.8651 74.7717 77.0759 74.1135C75.9779 73.0695 75.7739 72.0975 75.2759 70.6275C74.3459 67.7895 72.8759 66.5175 71.1539 65.6475C69.6059 64.8615 69.6599 65.1615 67.9919 65.4135C66.3077 64.389 64.3257 63.9659 62.3699 64.2135C60.5699 64.4415 59.0519 65.6655 57.6779 66.8295C56.4779 67.8735 55.3319 68.9955 55.2779 70.7535C55.2419 71.7675 55.4879 72.7695 55.4399 73.7535C55.3799 75.0435 54.6599 75.8595 53.8019 76.6695C52.5282 77.7559 51.6487 79.2322 51.2999 80.8695C51.0779 82.2435 52.4219 84.3675 50.8439 86.4015C49.4459 88.2015 46.9919 90.2535 46.3499 92.5155C44.3639 99.5655 49.1339 101.87 50.9579 102.812Z" fill="#263238"/>
<path d="M74.2618 106.586C77.0278 106.172 81.2758 106.688 82.7458 103.586C83.3269 103.111 83.7867 102.505 84.0872 101.817C84.3877 101.13 84.5202 100.38 84.4738 99.6316C84.3898 97.9996 83.4358 96.5836 82.3858 95.4316C81.707 94.7968 81.1158 94.0745 80.6278 93.2836C80.4717 92.668 80.3575 92.0426 80.2858 91.4116C80.4033 90.6043 80.6252 89.8157 80.9458 89.0656C80.9458 89.0356 80.9458 89.0656 80.9458 89.0656C80.3458 90.3376 79.7818 91.7536 80.3458 93.1696C80.4251 93.3772 80.5215 93.5778 80.6338 93.7696C80.833 94.5159 81.1084 95.2397 81.4558 95.9296C82.3678 97.7296 83.1958 99.3676 83.0758 101.474C83.0511 102.177 82.8816 102.867 82.5778 103.502C81.382 104.55 79.8883 105.198 78.3058 105.356C78.2698 105.356 78.2638 105.428 78.3058 105.422C79.7376 105.276 81.1107 104.777 82.3018 103.97C80.6938 106.268 76.9678 105.962 74.2678 106.49C74.1778 106.508 74.2078 106.598 74.2618 106.586ZM82.9558 103.07V103.01C83.4278 101.31 83.305 99.5 82.6078 97.8796C82.1698 96.8056 81.5158 95.8396 81.0838 94.7596C81.0118 94.5736 80.9398 94.3816 80.8798 94.1956C81.4798 95.0356 82.3318 95.7376 82.9318 96.5596C84.2518 98.3596 84.6358 100.49 83.4118 102.428C83.2742 102.651 83.1219 102.866 82.9558 103.07Z" fill="#263238"/>
<path d="M44.9997 99.4695C45.0357 99.5295 45.1197 99.4695 45.0897 99.4155C43.8897 97.3875 44.2497 95.3055 45.1857 93.4455C44.7357 96.2235 45.2817 99.3375 47.8257 100.832C47.8677 100.832 47.9037 100.79 47.8617 100.766C45.2337 99.1875 44.8617 95.5935 45.5457 92.7855C46.1281 91.8266 46.8098 90.9317 47.5797 90.1155C48.7797 88.8195 50.2917 87.5355 51.1797 85.9155C50.9969 86.8554 50.4653 87.6914 49.6917 88.2555C49.6437 88.2915 49.6917 88.3695 49.7337 88.3395C50.5715 87.7751 51.1701 86.9199 51.4137 85.9395C51.4521 85.7417 51.4742 85.541 51.4797 85.3395C51.7074 84.8187 51.8551 84.2665 51.9177 83.7015C51.8457 84.2058 51.7065 84.6982 51.5037 85.1655C51.3989 84.292 51.1976 83.4328 50.9037 82.6035C50.2557 80.2035 51.4677 78.7695 52.9617 77.4795C53.0817 77.4015 53.2017 77.3235 53.3277 77.2515C54.1436 76.8255 54.8312 76.1897 55.3197 75.4095C55.4217 75.3015 55.5237 75.1935 55.6197 75.0795C55.6197 75.0795 55.4577 75.2415 55.3797 75.3195C55.4858 75.0968 55.5682 74.8635 55.6257 74.6235C55.4675 75.0291 55.2378 75.403 54.9477 75.7275C54.3477 76.2255 53.6937 76.6815 53.0637 77.1615C51.8637 77.8815 50.7057 78.5655 50.2497 79.9995C49.7937 81.4335 50.1537 82.8315 50.2497 84.1995C50.4177 86.3475 49.6497 88.1415 47.6937 88.9995C47.6937 88.9995 47.6577 89.0475 47.6937 89.0355C47.8426 88.9946 47.9889 88.9445 48.1317 88.8855C46.9291 89.7575 46.009 90.9634 45.4857 92.3535C44.1177 94.4595 43.5417 97.1835 44.9997 99.4695ZM50.0097 87.3855L49.3497 87.8955C49.6614 87.5297 49.9053 87.1112 50.0697 86.6595C50.6097 85.1355 50.1597 83.4795 50.1237 81.9135C50.0703 81.2565 50.1766 80.5963 50.4336 79.9893C50.6906 79.3823 51.0907 78.8464 51.5997 78.4275C51.1519 78.9288 50.8164 79.52 50.6157 80.1615C50.2737 81.3195 50.6157 82.3935 50.9637 83.5035C51.1956 84.2027 51.2834 84.9415 51.2217 85.6755C50.879 86.2829 50.4727 86.8521 50.0097 87.3735V87.3855ZM45.9657 91.5855C46.6482 90.3558 47.59 89.2892 48.7257 88.4595L48.9537 88.2675C49.2657 88.0155 49.5537 87.7635 49.8777 87.5055C48.5997 88.9395 47.0457 90.1935 45.9657 91.5975V91.5855Z" fill="#263238"/>
<path d="M76.7158 73.7178C77.7467 74.6137 78.7282 75.5651 79.6557 76.5678C80.3043 77.2221 80.6925 78.0901 80.7478 79.0098C80.7733 79.9371 80.4812 80.8453 79.9198 81.5838C79.7098 81.8958 79.5058 82.2138 79.3198 82.5378C79.2763 83.1372 79.3708 83.7385 79.5958 84.2958C80.0458 85.3578 81.0478 86.0118 81.5158 87.0858C82.2658 88.8258 81.4318 90.2538 80.6998 91.8138C81.2278 90.5418 81.9718 89.2818 81.5638 87.8418C81.2278 86.6418 80.3638 86.0418 79.7158 85.0638C79.3185 84.456 79.0983 83.7496 79.0798 83.0238C78.4798 84.2238 78.2998 85.4238 79.3198 86.6598C79.3678 86.7198 79.3198 86.7978 79.2478 86.7438C77.9518 85.4298 78.2938 83.8398 79.0858 82.4538C79.1349 81.6305 79.3152 80.8203 79.6198 80.0538C79.6558 79.9758 79.7698 80.0538 79.7518 80.1138C79.6378 80.7138 79.4878 81.3138 79.4038 81.9138L79.5358 81.7158C80.5738 80.2398 80.9698 78.5238 79.7878 76.9158C78.8998 75.7158 77.6878 74.8098 76.6978 73.7238C76.7029 73.7199 76.7093 73.7178 76.7158 73.7178Z" fill="#263238"/>
<path d="M110.91 279.47C109.536 279.902 69.3478 279.032 67.8838 278.054C67.3198 277.688 70.7578 239.624 70.7578 239.624L96.2458 240.11L93.3478 265.574C93.3478 265.574 108.174 272.6 109.68 273.848C111.186 275.096 112.29 279.038 110.91 279.47Z" fill="#AD6359"/>
<path d="M110.91 279.469C109.536 279.895 69.348 279.031 67.884 278.047C67.704 277.939 67.65 274.075 68.292 269.047C75.576 270.247 101.592 274.261 103.614 273.067C105.024 272.239 103.776 270.943 102.618 270.067C105.942 271.723 109.038 273.319 109.68 273.853C111.168 275.083 112.284 279.037 110.91 279.469Z" fill="#263238"/>
<path d="M94.0679 259.466L69.0479 259.112C69.0479 259.112 74.0039 199.184 73.7939 198.032C73.5359 196.556 55.7939 126.95 55.7939 126.95H79.6739C79.6739 126.95 98.5019 191.828 99.18 198.08C100.26 208.172 94.0679 259.466 94.0679 259.466Z" fill="#37474F"/>
<path d="M71.2976 253.459C72.7736 253.357 74.2976 253.375 75.7496 253.351C77.2016 253.327 78.7196 253.351 80.2016 253.351C83.2016 253.381 86.1356 253.423 89.0996 253.507C89.9156 253.507 90.7256 253.555 91.5356 253.591C92.3456 253.627 93.2696 253.783 94.1336 253.813C94.1996 253.813 94.1996 253.921 94.1336 253.921C93.4016 253.921 92.6756 254.035 91.9436 254.053C91.2116 254.071 90.4316 254.083 89.6756 254.083C88.1936 254.083 86.6756 254.083 85.2236 254.083C82.2596 254.083 79.2896 254.017 76.3256 253.897C74.6516 253.825 72.9596 253.807 71.2916 253.639C71.2678 253.639 71.2452 253.628 71.2289 253.611C71.2126 253.594 71.2038 253.57 71.2046 253.546C71.2054 253.523 71.2157 253.5 71.2331 253.484C71.2506 253.467 71.2738 253.459 71.2976 253.459Z" fill="#263238"/>
<path d="M61.0317 132.572C63.1677 140.138 65.1237 147.77 67.0317 155.372C68.9397 162.974 70.8537 170.636 72.7557 178.268L75.5997 189.746C76.5237 193.46 77.5977 197.198 77.8317 201.038C78.0657 204.878 77.5677 208.874 77.2317 212.762C76.8957 216.65 76.5717 220.562 76.2297 224.48C75.5457 232.28 74.8917 240.116 74.0397 247.916C73.9317 248.894 73.8297 249.872 73.7277 250.844C73.7277 250.928 73.5897 250.928 73.5957 250.844C74.1177 243.044 74.6577 235.208 75.2817 227.396C75.5937 223.492 75.9117 219.584 76.2357 215.672C76.5537 211.772 77.0097 207.872 77.1297 203.948C77.2497 200.024 76.5297 196.22 75.5817 192.41C74.6337 188.6 73.7097 184.94 72.7737 181.202C70.8657 173.574 68.9597 165.942 67.0557 158.306C64.9377 149.762 62.8197 141.194 60.9477 132.59C60.9453 132.578 60.9475 132.567 60.9537 132.557C60.9599 132.548 60.9696 132.541 60.9807 132.539C60.9919 132.536 61.0035 132.538 61.0131 132.544C61.0226 132.551 61.0293 132.56 61.0317 132.572Z" fill="#263238"/>
<path d="M55.7998 126.95C55.7998 126.95 63.4138 156.812 68.7418 177.836L78.9058 126.95H55.7998Z" fill="#263238"/>
<path d="M80.9041 279.553C79.5241 279.985 39.3421 279.115 37.8721 278.137C37.3081 277.777 39.4081 239.689 39.4081 239.689L64.5541 240.175L63.3541 265.663C63.3541 265.663 78.1861 272.683 79.6861 273.931C81.1861 275.179 82.2781 279.133 80.9041 279.553Z" fill="#AD6359"/>
<path d="M80.9037 279.554C79.5297 279.986 39.3357 279.116 37.8717 278.138C37.6917 278.024 37.7337 274.262 37.8717 269.138C45.1557 270.338 71.5737 274.358 73.5957 273.164C75.0117 272.336 73.7577 271.034 72.6057 270.164C75.9237 271.82 79.0197 273.41 79.6617 273.944C81.1557 275.174 82.2777 279.134 80.9037 279.554Z" fill="#263238"/>
<path d="M78.888 126.944C78.888 126.944 78.192 138.344 75.468 147.374C75.246 148.118 75.012 148.856 74.754 149.558C72.3458 150.495 70.0282 151.649 67.83 153.008C67.83 153.008 66.108 196.682 66.138 199.394C66.252 209.54 63.66 258.962 63.66 258.962L38.46 258.722C38.46 258.722 41.076 202.832 41.088 199.118C41.088 195.518 42.804 172.844 44.322 153.182C44.322 153.182 42.078 146.9 42.33 143.732C42.93 136.04 46.38 126.932 46.38 126.932L78.888 126.944Z" fill="#37474F"/>
<path d="M73.38 142.28C73.47 141.644 73.566 141.014 73.662 140.384C73.842 139.226 74.076 138.074 74.262 136.922C74.724 134.306 75.204 131.678 75.786 129.086C75.786 129.026 75.906 129.038 75.9 129.086C75.792 130.136 75.672 131.18 75.528 132.218C75.384 133.256 75.276 134.312 75.126 135.356C74.838 137.42 74.526 139.49 74.196 141.548C74.058 142.34 73.596 143.762 74.706 144.008C75.612 144.206 76.272 143.318 76.542 142.574C76.82 141.64 77.0206 140.684 77.142 139.718C77.328 138.674 77.49 137.624 77.64 136.58C77.964 134.292 78.314 132.01 78.69 129.734C78.69 129.674 78.804 129.692 78.798 129.734C78.7502 132.073 78.5819 134.408 78.294 136.73C78.15 137.846 77.982 138.956 77.79 140.06C77.6792 141.124 77.4229 142.167 77.028 143.162C76.8652 143.552 76.6067 143.895 76.2764 144.159C75.9461 144.424 75.5546 144.6 75.138 144.674H75.084C75.096 144.68 75.1059 144.689 75.1123 144.701C75.1188 144.713 75.1214 144.726 75.12 144.74C75.12 145.106 75.12 145.484 75.078 145.85C75.036 146.216 74.964 146.582 74.892 146.942C74.8285 147.311 74.7342 147.674 74.61 148.028C74.5539 148.199 74.4878 148.368 74.412 148.532C74.328 148.7 74.214 148.832 74.118 148.988C74.1118 149.002 74.1003 149.014 74.0857 149.021C74.0712 149.028 74.0546 149.03 74.0391 149.025C74.0236 149.021 74.0102 149.011 74.0015 148.997C73.9929 148.984 73.9895 148.967 73.992 148.952C73.992 148.892 73.992 148.832 73.992 148.772V148.736C73.9861 148.628 73.9861 148.519 73.992 148.412C73.992 148.232 74.064 148.058 74.1 147.884C74.178 147.53 74.274 147.182 74.37 146.834C74.466 146.486 74.538 146.132 74.628 145.784C74.718 145.436 74.838 145.07 74.922 144.71C74.9192 144.698 74.9192 144.685 74.922 144.674C74.5869 144.69 74.2547 144.604 73.9703 144.426C73.6859 144.248 73.4631 143.986 73.332 143.678C73.2301 143.215 73.2466 142.734 73.38 142.28Z" fill="#263238"/>
<path d="M65.7897 153.878C66.5405 153.299 67.3326 152.775 68.1597 152.312C69.0318 151.788 69.9355 151.319 70.8657 150.908C72.6657 150.116 74.5737 149.576 76.4577 148.952C76.5117 148.952 76.5537 149.03 76.4937 149.048C74.6937 149.774 72.9237 150.74 71.1597 151.604C70.2957 152.024 69.4137 152.432 68.5317 152.804C67.6497 153.176 66.7677 153.65 65.8557 154.004C65.7897 154.028 65.7357 153.92 65.7897 153.878Z" fill="#263238"/>
<path d="M51.5457 137.972C52.8303 137.959 54.1082 137.786 55.3497 137.456C55.9497 137.312 56.4897 137.126 57.0477 136.946C57.605 136.79 58.1266 136.527 58.5837 136.172C59.4477 135.428 59.8497 134.252 60.2277 133.214C60.6372 132.037 60.9699 130.834 61.2237 129.614C61.2237 129.554 61.3257 129.572 61.3257 129.614C61.3554 130.992 61.1815 132.367 60.8097 133.694C60.4977 134.822 60.0837 136.094 59.1717 136.874C58.1595 137.63 56.9473 138.073 55.6857 138.146C54.3069 138.306 52.9132 138.286 51.5397 138.086C51.53 138.079 51.5221 138.071 51.5169 138.06C51.5117 138.05 51.5092 138.039 51.5099 138.027C51.5105 138.015 51.5141 138.004 51.5204 137.995C51.5267 137.985 51.5354 137.977 51.5457 137.972Z" fill="#263238"/>
<path d="M39.5458 253.831C41.0218 253.723 42.5458 253.741 43.9978 253.723C45.4498 253.705 46.9978 253.723 48.4498 253.723C51.4218 253.747 54.3898 253.799 57.3538 253.879C58.1638 253.879 58.9738 253.927 59.7538 253.963C60.5338 253.999 61.4878 254.149 62.3518 254.185C62.36 254.182 62.3687 254.182 62.3772 254.183C62.3857 254.184 62.3938 254.187 62.4009 254.192C62.4079 254.197 62.4136 254.204 62.4176 254.212C62.4215 254.219 62.4236 254.228 62.4236 254.236C62.4236 254.245 62.4215 254.253 62.4176 254.261C62.4136 254.269 62.4079 254.275 62.4009 254.28C62.3938 254.285 62.3857 254.289 62.3772 254.29C62.3687 254.291 62.36 254.29 62.3518 254.287C61.6258 254.287 60.8938 254.407 60.1618 254.425C59.4298 254.443 58.6498 254.455 57.8938 254.455H53.4418C50.4778 254.455 47.5078 254.389 44.5438 254.263C42.8698 254.197 41.1778 254.173 39.5098 254.011C39.4859 254.007 39.465 253.992 39.4515 253.972C39.4379 253.952 39.433 253.927 39.4378 253.903C39.4426 253.879 39.4567 253.858 39.4769 253.845C39.4972 253.831 39.5219 253.827 39.5458 253.831Z" fill="#263238"/>
<path d="M42.6001 250.55C42.5601 250.548 42.5209 250.539 42.4847 250.522C42.4485 250.505 42.416 250.481 42.3892 250.451C42.3623 250.422 42.3417 250.387 42.3285 250.349C42.3152 250.312 42.3097 250.272 42.3121 250.232L48.0061 152.432C47.9341 152.006 46.3261 146.54 46.2061 143.75C46.0561 140.804 49.1101 129.308 49.2061 128.816C49.2285 128.738 49.2806 128.671 49.3512 128.631C49.4218 128.591 49.5053 128.579 49.5841 128.6C49.6232 128.61 49.6599 128.628 49.692 128.653C49.7241 128.678 49.7509 128.708 49.771 128.744C49.7911 128.779 49.804 128.818 49.809 128.858C49.814 128.898 49.811 128.939 49.8001 128.978C49.8001 129.092 46.6441 140.864 46.8001 143.72C46.9561 146.576 48.6001 152.318 48.6001 152.366C48.6001 152.414 42.9061 250.262 42.9061 250.262C42.9001 250.339 42.8654 250.412 42.8088 250.465C42.7522 250.518 42.6778 250.548 42.6001 250.55Z" fill="#263238"/>
<path d="M71.0879 92.8694C83.3999 103.699 94.7999 115.603 95.7779 121.735C97.0979 130.219 91.8959 132.637 89.5559 132.685C83.1779 132.817 71.2979 107.101 67.1579 97.2854C63.1379 87.7394 68.3999 90.4694 71.0879 92.8694Z" fill="url(#paint14_linear_1092_4293)"/>
<path d="M79.5181 126.944L77.8021 116.144C77.8021 116.144 82.0681 111.722 79.8661 107.096C78.7501 104.75 71.1601 93.2957 67.1101 90.4397C63.3121 87.7457 58.8061 89.9837 57.1141 92.8997C52.8601 100.262 48.8101 108.722 46.3501 126.938L79.5181 126.944Z" fill="url(#paint15_linear_1092_4293)"/>
<path d="M72.7379 114.764C71.015 114.951 69.3083 115.266 67.6319 115.706C66.7979 115.94 65.9879 116.204 65.1719 116.492C64.7699 116.636 64.3619 116.762 63.9719 116.888C63.547 117.034 63.1056 117.126 62.6579 117.164C62.65 117.164 62.6423 117.167 62.6367 117.173C62.6311 117.178 62.6279 117.186 62.6279 117.194C62.6279 117.202 62.6311 117.209 62.6367 117.215C62.6423 117.221 62.65 117.224 62.6579 117.224C63.0805 117.238 63.5036 117.222 63.9239 117.176C64.3296 117.121 64.7306 117.037 65.1239 116.924C65.9699 116.702 66.7979 116.432 67.6439 116.198C69.3419 115.73 71.0399 115.256 72.7679 114.908C72.787 114.904 72.8038 114.892 72.8144 114.876C72.8251 114.86 72.8289 114.84 72.8249 114.821C72.821 114.802 72.8096 114.785 72.7932 114.774C72.7769 114.764 72.757 114.76 72.7379 114.764Z" fill="#263238"/>
<path d="M77.0399 116.21C75.6135 116.086 74.181 116.046 72.7499 116.09C72.0359 116.09 71.3279 116.174 70.6139 116.258L69.5999 116.39C69.2279 116.45 68.8619 116.552 68.4899 116.6C68.4539 116.6 68.4539 116.666 68.4899 116.666C68.8439 116.63 69.2039 116.666 69.5579 116.666L70.6259 116.612L72.7679 116.522C74.1899 116.444 75.6119 116.384 77.0399 116.354C77.059 116.354 77.0773 116.346 77.0908 116.332C77.1043 116.319 77.1119 116.301 77.1119 116.282C77.1119 116.262 77.1043 116.244 77.0908 116.231C77.0773 116.217 77.059 116.21 77.0399 116.21Z" fill="#263238"/>
<path d="M56.6819 91.7956C45.2279 100.796 33.9659 116.354 33.8819 125.048C33.8039 133.634 36.7919 132.806 37.6439 132.746C42.8279 132.41 55.0439 108.512 58.7639 98.7676C62.4839 89.0236 59.5139 89.5696 56.6819 91.7956Z" fill="url(#paint16_linear_1092_4293)"/>
<path d="M44.5381 126.038C45.1381 124.958 45.7381 123.89 46.3381 122.798L48.1381 119.546C49.3381 117.38 50.5381 115.214 51.6601 113.024C52.7821 110.834 53.9821 108.668 55.1161 106.472C55.6881 105.376 56.2421 104.272 56.7781 103.16C57.3361 102.056 57.8461 100.934 58.3681 99.8115C57.5443 102.148 56.5929 104.437 55.5181 106.67C54.4681 108.914 53.3221 111.11 52.1761 113.3C51.0301 115.49 49.7761 117.644 48.5281 119.768C47.2801 121.892 45.9601 124.01 44.5381 126.038Z" fill="#263238"/>
<path d="M57.144 102.692C57.3547 102.302 57.5913 101.927 57.852 101.57C57.984 101.39 58.104 101.21 58.242 101.042C58.3732 100.861 58.5134 100.686 58.662 100.52C58.554 100.952 58.3624 101.36 58.098 101.72C57.843 102.1 57.5195 102.429 57.144 102.692Z" fill="#263238"/>
<path d="M92.19 109.16C91.59 105.134 90.39 99.5118 88.926 98.3598C87.462 97.2078 81.852 93.0618 80.262 92.5278C78.672 91.9938 71.556 89.3778 70.26 90.1278C69.228 90.7278 70.494 93.4638 73.86 94.7418C75.6952 95.4799 77.4844 96.3274 79.218 97.2798C80.088 97.6398 82.218 100.418 81.618 101.66C81.294 102.392 79.176 103.274 77.85 102.692C76.524 102.11 76.17 99.4998 74.652 98.2818C73.134 97.0638 70.452 97.2438 70.326 97.9638C70.2 98.6838 71.064 99.0138 72.45 101.438C73.344 102.998 73.44 106.766 75.45 109.442C76.4806 111.029 77.4124 112.678 78.24 114.38L92.19 109.16Z" fill="#AD6359"/>
<path d="M73.2717 97.1896C72.782 97.1184 72.3224 96.9104 71.9457 96.5896C71.7966 96.443 71.6908 96.2583 71.6397 96.0556C71.6247 95.9441 71.6247 95.8311 71.6397 95.7196C71.6429 95.6003 71.6875 95.4858 71.7657 95.3956C71.7657 95.3416 71.7657 95.3956 71.7657 95.3956C71.7291 95.452 71.689 95.5061 71.6457 95.5576C71.6138 95.6043 71.5876 95.6547 71.5677 95.7076C71.5317 95.8139 71.5135 95.9254 71.5137 96.0376C71.5286 96.286 71.6257 96.5224 71.7897 96.7096C71.9845 96.9092 72.223 97.0608 72.4865 97.1524C72.7499 97.244 73.031 97.2732 73.3077 97.2376C73.3077 97.2376 73.2957 97.1956 73.2717 97.1896Z" fill="#263238"/>
<path d="M88.9258 98.3475C87.6238 96.3435 84.2998 92.7495 81.0358 91.5315C78.8278 90.7155 71.2978 94.4775 71.5378 95.9235C71.7778 97.3695 73.0618 97.3575 74.9758 97.1235C75.6718 97.0335 79.3438 95.6655 79.9798 96.4335C80.8978 97.5375 82.0858 101.324 82.0858 101.324L88.9258 98.3475Z" fill="#AD6359"/>
<path d="M71.7178 95.3534C72.6358 93.7994 74.6818 92.9534 76.7218 92.2754C76.7218 92.2754 76.7698 92.3114 76.7218 92.3234C76.1998 92.4974 72.8878 94.0634 71.7238 95.3774C71.7298 95.3954 71.7058 95.3714 71.7178 95.3534Z" fill="#263238"/>
<path d="M88.9258 98.3476C87.6238 96.3436 84.2998 92.7496 81.0358 91.5316C78.8278 90.7156 72.8938 95.4916 73.1278 96.9316C73.3618 98.3716 75.2218 98.4676 77.2678 97.7356C77.9278 97.4956 80.1358 95.9056 80.7718 96.6736C81.6838 97.7776 83.9158 100.514 83.9158 100.514L88.9258 98.3476Z" fill="#AD6359"/>
<path d="M82.6259 98.8218C82.4219 98.5098 82.3499 98.3958 82.1339 98.0838C81.9179 97.7718 81.6959 97.4838 81.4619 97.1718C81.2768 96.8978 81.0453 96.6582 80.7779 96.4638C80.5014 96.307 80.1801 96.2478 79.8659 96.2958C79.1611 96.4492 78.4966 96.7498 77.9159 97.1778C76.9767 97.7694 75.8937 98.093 74.7839 98.1138C74.4898 98.0976 74.202 98.0221 73.9379 97.8918C73.7384 97.803 73.5634 97.6671 73.4279 97.4958C72.9539 96.7098 73.5239 95.8038 74.1119 95.1618C75.2673 93.9944 76.6254 93.047 78.1199 92.3658L79.1819 91.8498C79.5822 91.6322 80.0237 91.5014 80.4779 91.4658C81.2219 91.4658 82.4459 92.1978 82.8299 92.4198C82.8299 92.4198 82.8779 92.3898 82.8299 92.3718C82.3739 92.0958 81.2279 91.1718 80.0279 91.2498C79.5913 91.3214 79.1708 91.4696 78.7859 91.6878C78.3659 91.8678 77.9579 92.0718 77.5499 92.2878C76.7575 92.6886 75.9973 93.15 75.2759 93.6678C74.5535 94.1478 73.9268 94.7582 73.4279 95.4678C73.2172 95.7814 73.0959 96.1465 73.0769 96.5238C73.0578 96.9011 73.1418 97.2765 73.3199 97.6098C73.4806 97.819 73.6854 97.9904 73.9198 98.1117C74.1541 98.233 74.4122 98.3013 74.6759 98.3118C74.9905 98.3536 75.3093 98.3536 75.6239 98.3118C76.3194 98.1612 77.0032 97.9606 77.6699 97.7118C78.3179 97.4478 78.8999 97.0038 79.5719 96.7938C79.7292 96.7368 79.8964 96.7123 80.0634 96.7216C80.2304 96.7308 80.3939 96.7738 80.5439 96.8478C80.818 97.0295 81.0646 97.2498 81.2759 97.5018C81.7184 97.9382 82.1201 98.4142 82.4759 98.9238C82.6199 99.0018 82.7159 98.9538 82.6259 98.8218Z" fill="#263238"/>
<path d="M89.898 100.069C89.418 99.1155 88.578 95.1735 87.804 93.9735C87.03 92.7735 83.502 88.6155 81.882 88.8135C79.842 89.0595 82.008 92.7195 83.082 94.2135C84.156 95.7075 84.012 98.2995 84.012 98.2995L89.898 100.069Z" fill="#AD6359"/>
<path d="M81.5998 91.7535C81.9795 92.241 82.334 92.7477 82.6618 93.2715C83.0068 93.7469 83.3175 94.2462 83.5918 94.7655C83.8233 95.3063 83.9612 95.8825 83.9998 96.4695C84.0298 96.7575 84.0418 97.0695 84.0478 97.3275C84.0538 97.5855 84.0478 97.9275 84.0478 98.2635C84.0478 98.2935 83.9938 98.2995 83.9938 98.2635C83.9492 97.6951 83.869 97.13 83.7538 96.5715C83.6464 95.9922 83.4691 95.4281 83.2258 94.8915C82.7338 93.8295 82.0258 92.8815 81.5278 91.8195C81.4858 91.7475 81.5458 91.7175 81.5998 91.7535Z" fill="#263238"/>
<path d="M84 98.7676C84.0802 99.7536 83.911 100.744 83.508 101.648C83.3233 102.105 83.1088 102.55 82.866 102.98C82.6113 103.395 82.3328 103.796 82.032 104.18C80.8228 105.652 80.0552 107.437 79.818 109.328C79.736 108.347 79.8482 107.36 80.148 106.424C80.4658 105.484 80.9406 104.606 81.552 103.826C82.1359 103.08 82.6406 102.276 83.058 101.426C83.5161 100.597 83.8343 99.6994 84 98.7676Z" fill="#263238"/>
<path d="M88.9618 132.391C84.9778 131.851 82.3618 125.191 77.8258 113.479C77.0278 111.421 87.4258 98.7854 88.8538 100.669C90.6538 103.069 95.4538 116.269 95.9398 119.869C96.9358 126.985 93.5998 133.015 88.9618 132.391Z" fill="#AD6359"/>
<path d="M80.2319 120.014L93.0659 107.54C93.0659 107.54 96.7139 118.274 96.3719 122.774C96.0299 127.274 94.4639 132.374 89.0459 132.686C84.9899 132.896 80.2319 120.014 80.2319 120.014Z" fill="url(#paint17_linear_1092_4293)"/>
<path d="M84.3779 128.648C83.9159 127.994 83.5019 127.304 83.0999 126.614C82.6979 125.924 82.3259 125.21 81.9599 124.496C81.5939 123.782 81.2699 123.056 80.9699 122.306C80.6576 121.565 80.4107 120.798 80.2319 120.014C80.5679 120.74 80.9279 121.454 81.2879 122.162L82.3679 124.298C82.7159 125.012 83.0699 125.726 83.4059 126.452C83.7419 127.178 84.0779 127.904 84.3779 128.648Z" fill="#263238"/>
<path d="M82.9917 122.191C83.5917 121.507 84.2997 120.871 84.9597 120.223C85.6197 119.575 86.2917 118.939 86.9697 118.309C88.3257 117.041 89.6897 115.789 91.0617 114.553C91.4397 114.217 91.8177 113.875 92.2017 113.545C92.5857 113.215 93.0657 112.885 93.4677 112.531C93.4744 112.528 93.482 112.527 93.4893 112.528C93.4967 112.53 93.5034 112.533 93.5087 112.538C93.514 112.544 93.5175 112.55 93.5187 112.558C93.52 112.565 93.5189 112.573 93.5157 112.579C93.1857 112.891 92.9157 113.257 92.5797 113.581C92.2437 113.905 91.9077 114.241 91.5657 114.565L89.5497 116.473C88.1937 117.733 86.8377 118.993 85.4457 120.211C84.6597 120.901 83.8857 121.615 83.0457 122.257C83.0371 122.259 83.0282 122.259 83.0199 122.256C83.0116 122.253 83.0042 122.248 82.9986 122.241C82.9931 122.234 82.9895 122.226 82.9883 122.217C82.987 122.208 82.9882 122.199 82.9917 122.191Z" fill="#263238"/>
<path d="M59.5439 90.4154C59.5439 90.4154 61.8719 96.3374 62.6399 97.0154C63.4079 97.6934 69.9419 97.3154 70.0859 96.7754C70.2299 96.2354 67.3319 90.8474 67.3319 90.8474C65.9045 90.1686 64.3694 89.7442 62.7959 89.5934C61.6499 89.4881 60.5023 89.7782 59.5439 90.4154Z" fill="#AD6359"/>
<path d="M60.0898 90.8055C60.1858 91.4655 62.8918 95.9655 66.4738 95.7435C68.5618 95.6175 67.1398 91.4595 67.1398 91.4595L68.9398 85.7775L62.0638 80.5215C62.0638 80.5215 60.0538 90.5295 60.0898 90.8055Z" fill="#AD6359"/>
<path d="M61.332 84.2595C61.793 85.7511 62.5554 87.1321 63.572 88.317C64.5886 89.5018 65.8378 90.4652 67.242 91.1475L68.946 85.7775L62.07 80.5215C62.07 80.5215 61.734 82.2135 61.332 84.2595Z" fill="#263238"/>
<path d="M77.0457 77.7914C77.2497 87.5594 71.4237 88.7834 69.3177 88.8254C67.4037 88.8674 60.9177 88.7474 59.6757 79.0514C58.4337 69.3554 62.9397 66.1754 67.3077 65.8514C71.6757 65.5274 76.8417 68.0174 77.0457 77.7914Z" fill="#AD6359"/>
<path d="M74.754 77.0056C74.535 76.9546 74.3187 76.8926 74.106 76.8196C73.877 76.7808 73.6666 76.6693 73.506 76.5016C73.4647 76.4363 73.4459 76.3594 73.4524 76.2825C73.4589 76.2056 73.4904 76.1329 73.542 76.0756C73.6601 75.9788 73.8017 75.9151 73.9524 75.8908C74.1031 75.8666 74.2575 75.8827 74.4 75.9376C74.7086 76.0069 74.9802 76.1887 75.162 76.4476C75.2016 76.5106 75.2213 76.5841 75.2187 76.6585C75.2161 76.7329 75.1912 76.8048 75.1472 76.8649C75.1033 76.925 75.0423 76.9706 74.9722 76.9956C74.9021 77.0207 74.8261 77.0242 74.754 77.0056Z" fill="#263238"/>
<path d="M68.0639 76.7058C68.2876 76.6905 68.5101 76.6605 68.7299 76.6158C68.9703 76.6176 69.2046 76.5395 69.3959 76.3938C69.4426 76.3337 69.4679 76.2598 69.4679 76.1838C69.4679 76.1077 69.4426 76.0338 69.3959 75.9738C69.2933 75.859 69.1618 75.774 69.015 75.7275C68.8683 75.6811 68.7118 75.6749 68.5619 75.7098C68.2741 75.7388 68.005 75.8659 67.7999 76.0698C67.7474 76.1218 67.7117 76.1883 67.6972 76.2607C67.6827 76.3331 67.6901 76.4082 67.7184 76.4764C67.7467 76.5446 67.7947 76.6028 67.8562 76.6437C67.9177 76.6845 67.99 76.7062 68.0639 76.7058Z" fill="#263238"/>
<path d="M69.2758 79.2734C69.2758 79.2734 69.2218 79.2734 69.2218 79.3274C69.2218 79.9934 69.0778 80.7554 68.4658 80.9474V80.9834C69.2098 80.9174 69.3658 79.9094 69.2758 79.2734Z" fill="#263238"/>
<path d="M68.7177 78.5474C67.6497 78.4154 67.4577 80.5514 68.4417 80.6774C69.4257 80.8034 69.5997 78.6614 68.7177 78.5474Z" fill="#263238"/>
<path d="M68.286 78.6255C68.088 78.7275 67.884 78.9255 67.686 78.9255C67.488 78.9255 67.248 78.6855 67.086 78.4575C67.086 78.4575 67.05 78.4575 67.044 78.4575C67.002 78.8655 67.122 79.2975 67.554 79.3995C67.986 79.5015 68.274 79.1535 68.412 78.7515C68.4 78.7035 68.364 78.5835 68.286 78.6255Z" fill="#263238"/>
<path d="M73.2897 79.3394C73.2897 79.3394 73.3377 79.3754 73.3377 79.4054C73.2477 80.0654 73.2597 80.8334 73.8417 81.1154C73.8417 81.1154 73.8417 81.1574 73.8417 81.1514C73.1097 80.9774 73.1037 79.9514 73.2897 79.3394Z" fill="#263238"/>
<path d="M73.9497 78.7097C75.0237 78.7097 74.8977 80.8757 73.9017 80.8517C72.9057 80.8277 73.0497 78.6857 73.9497 78.7097Z" fill="#263238"/>
<path d="M74.4 78.8774C74.562 78.9974 74.718 79.2134 74.922 79.2374C75.126 79.2614 75.342 79.0454 75.522 78.8354C75.522 78.8354 75.558 78.8354 75.552 78.8354C75.552 79.2434 75.384 79.6635 74.952 79.7174C74.52 79.7714 74.352 79.4054 74.274 78.9914C74.256 78.9374 74.322 78.8234 74.4 78.8774Z" fill="#263238"/>
<path d="M72.2277 82.2017C72.2277 82.2017 72.2817 83.2037 72.2277 83.6717C72.2277 83.7137 72.1137 83.7257 71.9517 83.7257C71.5445 83.7654 71.1341 83.6931 70.765 83.5165C70.396 83.3399 70.0822 83.0657 69.8577 82.7237C69.8277 82.6757 69.8937 82.6337 69.9357 82.6637C70.4975 83.1199 71.1924 83.381 71.9157 83.4077C71.9577 83.2817 71.7597 81.6917 71.8317 81.6917C72.192 81.755 72.5428 81.8639 72.8757 82.0157C72.8097 79.9277 72.4137 77.8637 72.3837 75.7817C72.3879 75.7682 72.3962 75.7565 72.4076 75.7482C72.4189 75.7398 72.4326 75.7354 72.4467 75.7354C72.4607 75.7354 72.4744 75.7398 72.4858 75.7482C72.4971 75.7565 72.5055 75.7682 72.5097 75.7817C73.0013 77.9794 73.2746 80.2203 73.3257 82.4717C73.3377 82.7237 72.4077 82.2977 72.2277 82.2017Z" fill="#263238"/>
<path d="M71.6759 83.4494C71.4139 83.7657 71.0751 84.0095 70.6919 84.1574C70.4774 84.2266 70.2465 84.2266 70.0319 84.1574C69.5639 84.0194 69.5639 83.5574 69.6659 83.2094C69.7229 83.0152 69.8014 82.8281 69.8999 82.6514C70.3907 83.1014 71.0135 83.3813 71.6759 83.4494Z" fill="#263238"/>
<path d="M70.6919 84.1575C70.4774 84.2267 70.2465 84.2267 70.0319 84.1575C69.5639 84.0195 69.5639 83.5575 69.6659 83.2095C69.9186 83.2293 70.1572 83.3336 70.3433 83.5055C70.5295 83.6775 70.6523 83.9072 70.6919 84.1575Z" fill="#FF9ABB"/>
<path d="M59.598 79.2255C60.678 79.2255 63.654 76.3935 64.014 71.1795C64.014 71.1795 63.366 75.8415 62.976 76.5075C62.586 77.1735 64.638 74.9175 64.992 70.7175C66.2664 71.7382 67.6809 72.5707 69.192 73.1895C71.148 73.8495 72.366 73.8975 72.516 73.7895C72.666 73.6815 69.786 72.5895 69.048 71.6235C69.048 71.6235 74.202 74.3655 76.626 74.6835C76.908 74.7195 77.556 68.9415 73.92 66.2835C70.284 63.6255 64.176 65.9595 62.52 67.4235C62.52 67.4235 60.618 67.5915 58.422 70.2675C56.226 72.9435 58.428 79.2315 59.598 79.2255Z" fill="#263238"/>
<path d="M65.1296 70.1838C65.1296 70.0638 64.9376 70.0638 64.9436 70.1838C64.9783 72.0924 64.6125 73.9872 63.8696 75.7457C63.8696 75.7457 63.9056 75.7877 63.9176 75.7457C64.7996 73.9637 65.3996 72.2057 65.1296 70.1838Z" fill="#263238"/>
<path d="M71.7417 74.0356C68.9277 73.5496 66.5397 72.5296 64.7637 70.2196C64.7277 70.1716 64.6437 70.2196 64.6797 70.2676C66.1077 72.7636 68.9697 73.9096 71.7297 74.1436C71.7837 74.1496 71.8017 74.0476 71.7417 74.0356Z" fill="#263238"/>
<path d="M61.332 79.1056C61.332 79.1056 59.406 75.9196 57.972 76.5916C56.538 77.2636 57.852 81.7756 59.436 82.4836C59.6323 82.5892 59.848 82.6538 60.07 82.6737C60.292 82.6936 60.5158 82.6683 60.7277 82.5993C60.9397 82.5303 61.1355 82.4191 61.3033 82.2724C61.471 82.1257 61.6074 81.9465 61.704 81.7456L61.332 79.1056Z" fill="#AD6359"/>
<path d="M58.3799 77.8696C58.3799 77.8696 58.3799 77.8996 58.3799 77.9116C59.4899 78.4456 60.0179 79.5376 60.3659 80.6596C60.3072 80.541 60.2234 80.4365 60.1202 80.3535C60.0171 80.2705 59.8972 80.211 59.7687 80.179C59.6402 80.147 59.5064 80.1434 59.3764 80.1684C59.2464 80.1933 59.1233 80.2463 59.0159 80.3236C59.0159 80.3236 59.0159 80.3896 59.0159 80.3836C59.2196 80.3337 59.4338 80.3479 59.6292 80.4241C59.8246 80.5003 59.9918 80.635 60.1079 80.8096C60.299 81.1059 60.4579 81.4216 60.5819 81.7516C60.6299 81.8536 60.8159 81.8116 60.7859 81.6916C60.9179 80.2276 59.9279 78.1216 58.3799 77.8696Z" fill="#263238"/>
<path d="M69.8038 95.3954L64.4038 112.153C64.1878 112.639 64.4038 113.065 64.9018 113.095L73.6918 113.695C73.9616 113.693 74.2252 113.614 74.4516 113.468C74.678 113.321 74.8578 113.113 74.9698 112.867L80.3698 96.1154C80.4345 96.0246 80.4726 95.9176 80.4799 95.8063C80.4872 95.695 80.4633 95.584 80.411 95.4855C80.3586 95.3871 80.2799 95.3052 80.1836 95.249C80.0873 95.1928 79.9773 95.1645 79.8658 95.1674L71.0758 94.5674C70.8076 94.5726 70.5462 94.6529 70.3213 94.7993C70.0964 94.9457 69.9172 95.1522 69.8038 95.3954Z" fill="#37474F"/>
<path d="M70.8478 95.4554L65.4478 112.213C65.2318 112.699 65.4478 113.125 65.9458 113.155L74.7358 113.755C75.0052 113.752 75.2682 113.673 75.4943 113.526C75.7205 113.379 75.9006 113.172 76.0138 112.927L81.4138 96.1694C81.4765 96.0791 81.5131 95.9732 81.5197 95.8635C81.5263 95.7537 81.5026 95.6442 81.4512 95.547C81.3998 95.4498 81.3227 95.3686 81.2283 95.3122C81.1338 95.2558 81.0257 95.2265 80.9158 95.2274L72.1198 94.6274C71.8515 94.6326 71.5901 94.713 71.3652 94.8594C71.1404 95.0057 70.9611 95.2123 70.8478 95.4554Z" fill="#455A64"/>
<path d="M73.1997 96.3918C73.1861 96.538 73.1296 96.677 73.0371 96.7912C72.9447 96.9054 72.8206 96.9896 72.6803 97.0334C72.5401 97.0771 72.39 97.0783 72.2491 97.0369C72.1081 96.9955 71.9826 96.9133 71.8883 96.8006C71.794 96.688 71.7352 96.55 71.7192 96.4039C71.7033 96.2579 71.7309 96.1104 71.7986 95.9801C71.8664 95.8497 71.9712 95.7423 72.0999 95.6714C72.2285 95.6006 72.3753 95.5694 72.5217 95.5818C72.6195 95.5901 72.7148 95.6176 72.8019 95.6629C72.889 95.7082 72.9663 95.7703 73.0294 95.8456C73.0924 95.9209 73.1399 96.0079 73.1691 96.1016C73.1983 96.1954 73.2087 96.294 73.1997 96.3918Z" fill="#263238"/>
<path d="M36.4497 132.727C40.2897 133.255 45.0717 130.273 57.4797 121.213C59.2017 119.965 53.6157 105.463 51.7077 106.711C49.3077 108.277 40.3557 114.877 39.7617 115.441C34.7517 120.211 33.8457 132.373 36.4497 132.727Z" fill="#AD6359"/>
<path d="M47.2798 111.097C47.2798 111.097 50.8138 106.135 53.4778 104.107C56.2925 102.068 59.56 100.742 62.9998 100.243C66.7138 99.6973 76.0858 100.945 76.1998 103.705C76.2958 106.207 66.7858 104.449 66.7858 104.449C66.7858 104.449 76.7818 104.641 76.3498 107.671C75.9178 110.701 64.9918 108.031 64.9918 108.031C64.9918 108.031 75.2578 108.463 74.3158 111.517C73.6078 113.827 63.5698 111.967 63.5698 111.967C63.5698 111.967 72.3958 112.399 71.7658 114.805C71.0698 117.463 61.7038 116.329 61.7038 116.329C59.0758 122.173 55.3078 123.823 52.5718 124.729C51.9358 124.951 47.2798 111.097 47.2798 111.097Z" fill="#AD6359"/>
<path d="M63.3538 104.162C64.5538 104.162 65.7178 104.114 66.8938 104.198C68.0698 104.282 69.2398 104.408 70.3978 104.6C71.9186 104.829 73.4083 105.232 74.8378 105.8C72.2278 104.99 68.0338 104.6 66.8578 104.534C65.6818 104.468 64.5238 104.306 63.3538 104.222C63.3238 104.204 63.3298 104.162 63.3538 104.162Z" fill="#263238"/>
<path d="M63.0001 108.386C64.5001 108.428 66.0001 108.386 67.4941 108.518C68.9881 108.65 70.3921 108.854 71.8741 109.064C71.9881 109.064 71.9401 109.136 71.8261 109.124C70.3381 108.974 68.9521 108.95 67.4581 108.818C65.9641 108.686 64.4581 108.5 62.9941 108.422C62.9461 108.422 62.9521 108.386 63.0001 108.386Z" fill="#263238"/>
<path d="M61.9918 111.956C64.2961 111.959 66.5941 112.199 68.8498 112.67C68.9638 112.67 68.8918 112.76 68.7778 112.742C66.5038 112.46 64.7218 112.22 61.9918 112.028C61.9498 112.034 61.9438 111.962 61.9918 111.956Z" fill="#263238"/>
<path d="M47.28 109.124L52.2 126.944C52.2 126.944 39.078 134.666 36.18 132.62C33.282 130.574 35.178 120.29 38.46 116.366C39.798 114.734 47.28 109.124 47.28 109.124Z" fill="url(#paint18_linear_1092_4293)"/>
<path d="M47.4419 109.718L47.2499 109.118H47.2979C46.0559 110.132 44.8139 111.134 43.5899 112.154C42.3659 113.174 41.1359 114.194 39.9899 115.274C39.3983 115.797 38.8412 116.358 38.3219 116.954C37.8276 117.565 37.386 118.217 37.0019 118.904C36.2324 120.311 35.6917 121.832 35.3999 123.41C35.5267 121.798 35.9626 120.225 36.6839 118.778C37.0463 118.049 37.4848 117.362 37.9919 116.726C38.5115 116.104 39.0728 115.519 39.6719 114.974C40.8719 113.894 42.0719 112.886 43.3679 111.902C44.6639 110.918 45.9359 109.988 47.2679 109.1H47.3039V109.142L47.4419 109.718Z" fill="#263238"/>
<path d="M44.3998 113.546C44.6998 114.422 44.9218 115.346 45.1738 116.216C45.4258 117.086 45.6598 118.016 45.8878 118.898C46.3378 120.698 46.7818 122.498 47.2078 124.298C47.3218 124.79 47.4358 125.288 47.5438 125.78C47.6518 126.272 47.7058 126.854 47.8198 127.382C47.8198 127.386 47.819 127.389 47.8175 127.393C47.816 127.397 47.8138 127.4 47.811 127.403C47.8082 127.406 47.8049 127.408 47.8013 127.409C47.7976 127.411 47.7937 127.412 47.7898 127.412C47.7859 127.412 47.782 127.411 47.7783 127.409C47.7747 127.408 47.7714 127.406 47.7686 127.403C47.7658 127.4 47.7636 127.397 47.7621 127.393C47.7606 127.389 47.7598 127.386 47.7598 127.382C47.6398 126.944 47.4538 126.518 47.3278 126.086C47.2018 125.654 47.0698 125.174 46.9498 124.718C46.7158 123.824 46.4818 122.918 46.2538 122.03C45.7978 120.23 45.3478 118.43 44.9518 116.63C44.7238 115.604 44.4718 114.584 44.3038 113.552C44.303 113.539 44.3073 113.526 44.3157 113.517C44.3242 113.507 44.3361 113.501 44.3488 113.501C44.3615 113.5 44.3741 113.504 44.3836 113.513C44.3932 113.521 44.399 113.533 44.3998 113.546Z" fill="#263238"/>
<path d="M52.1999 126.943C52.2839 127.111 52.2779 126.943 52.2599 126.865C52.2419 126.787 52.0379 125.899 51.8519 125.359C51.8519 125.305 51.7499 125.209 51.7799 125.401C51.8914 125.923 52.0316 126.438 52.1999 126.943Z" fill="#263238"/>
<defs>
<linearGradient id="paint0_linear_1092_4293" x1="229.059" y1="204.759" x2="229.059" y2="230.986" gradientUnits="userSpaceOnUse">
<stop stop-color="#5FB6E3"/>
<stop offset="1" stop-color="#B6568E"/>
</linearGradient>
<linearGradient id="paint1_linear_1092_4293" x1="227.64" y1="182.437" x2="227.64" y2="201.974" gradientUnits="userSpaceOnUse">
<stop stop-color="#5FB6E3"/>
<stop offset="1" stop-color="#B6568E"/>
</linearGradient>
<linearGradient id="paint2_linear_1092_4293" x1="257.623" y1="163.989" x2="257.623" y2="199.941" gradientUnits="userSpaceOnUse">
<stop stop-color="#5FB6E3"/>
<stop offset="1" stop-color="#B6568E"/>
</linearGradient>
<linearGradient id="paint3_linear_1092_4293" x1="258.711" y1="201.005" x2="258.711" y2="219.355" gradientUnits="userSpaceOnUse">
<stop stop-color="#5FB6E3"/>
<stop offset="1" stop-color="#B6568E"/>
</linearGradient>
<linearGradient id="paint4_linear_1092_4293" x1="136.017" y1="129.422" x2="136.017" y2="179.792" gradientUnits="userSpaceOnUse">
<stop stop-color="#5FB6E3"/>
<stop offset="1" stop-color="#B6568E"/>
</linearGradient>
<linearGradient id="paint5_linear_1092_4293" x1="183.993" y1="223.85" x2="183.993" y2="250.232" gradientUnits="userSpaceOnUse">
<stop stop-color="#5FB6E3"/>
<stop offset="1" stop-color="#B6568E"/>
</linearGradient>
<linearGradient id="paint6_linear_1092_4293" x1="120.378" y1="206.252" x2="120.378" y2="224.012" gradientUnits="userSpaceOnUse">
<stop stop-color="#5FB6E3"/>
<stop offset="1" stop-color="#B6568E"/>
</linearGradient>
<linearGradient id="paint7_linear_1092_4293" x1="192.258" y1="100.112" x2="192.258" y2="129.68" gradientUnits="userSpaceOnUse">
<stop stop-color="#5FB6E3"/>
<stop offset="1" stop-color="#B6568E"/>
</linearGradient>
<linearGradient id="paint8_linear_1092_4293" x1="175.671" y1="69.5957" x2="175.671" y2="84.2597" gradientUnits="userSpaceOnUse">
<stop stop-color="#5FB6E3"/>
<stop offset="1" stop-color="#B6568E"/>
</linearGradient>
<linearGradient id="paint9_linear_1092_4293" x1="153.714" y1="66.7578" x2="153.714" y2="198.062" gradientUnits="userSpaceOnUse">
<stop stop-color="#5FB6E3"/>
<stop offset="1" stop-color="#B6568E"/>
</linearGradient>
<linearGradient id="paint10_linear_1092_4293" x1="141.922" y1="55.6699" x2="141.922" y2="68.2639" gradientUnits="userSpaceOnUse">
<stop stop-color="#5FB6E3"/>
<stop offset="1" stop-color="#B6568E"/>
</linearGradient>
<linearGradient id="paint11_linear_1092_4293" x1="133.689" y1="241.334" x2="133.689" y2="253.928" gradientUnits="userSpaceOnUse">
<stop stop-color="#5FB6E3"/>
<stop offset="1" stop-color="#B6568E"/>
</linearGradient>
<linearGradient id="paint12_linear_1092_4293" x1="199.739" y1="159.877" x2="214.488" y2="187.235" gradientUnits="userSpaceOnUse">
<stop stop-color="#5FB6E3"/>
<stop offset="1" stop-color="#B6568E"/>
</linearGradient>
<linearGradient id="paint13_linear_1092_4293" x1="154.096" y1="167.27" x2="154.096" y2="179.864" gradientUnits="userSpaceOnUse">
<stop stop-color="#5FB6E3"/>
<stop offset="1" stop-color="#B6568E"/>
</linearGradient>
<linearGradient id="paint14_linear_1092_4293" x1="80.8428" y1="90.5747" x2="80.8428" y2="132.686" gradientUnits="userSpaceOnUse">
<stop stop-color="#5FB6E3"/>
<stop offset="1" stop-color="#B6568E"/>
</linearGradient>
<linearGradient id="paint15_linear_1092_4293" x1="63.4237" y1="89.229" x2="63.4237" y2="126.944" gradientUnits="userSpaceOnUse">
<stop stop-color="#5FB6E3"/>
<stop offset="1" stop-color="#B6568E"/>
</linearGradient>
<linearGradient id="paint16_linear_1092_4293" x1="47.1936" y1="90.4448" x2="47.1936" y2="132.793" gradientUnits="userSpaceOnUse">
<stop stop-color="#5FB6E3"/>
<stop offset="1" stop-color="#B6568E"/>
</linearGradient>
<linearGradient id="paint17_linear_1092_4293" x1="88.3132" y1="107.54" x2="88.3132" y2="132.688" gradientUnits="userSpaceOnUse">
<stop stop-color="#5FB6E3"/>
<stop offset="1" stop-color="#B6568E"/>
</linearGradient>
<linearGradient id="paint18_linear_1092_4293" x1="43.4762" y1="109.124" x2="43.4762" y2="132.965" gradientUnits="userSpaceOnUse">
<stop stop-color="#5FB6E3"/>
<stop offset="1" stop-color="#B6568E"/>
</linearGradient>
</defs>
</svg>
