<svg width="300" height="300" viewBox="0 0 300 300" fill="none" xmlns="http://www.w3.org/2000/svg">
<path d="M246.546 187.752L254.556 187.59L258.504 187.518C259.818 187.518 261.12 187.518 262.434 187.518L262.164 187.782L262.134 181.074L262.434 181.368L254.49 181.332C251.838 181.332 249.192 181.266 246.546 181.236L246.708 181.074C246.708 182.172 246.654 183.276 246.63 184.392L246.546 187.752ZM246.546 187.752L246.456 184.434C246.456 183.312 246.39 182.178 246.378 181.044V180.882H246.546C249.192 180.882 251.838 180.786 254.49 180.786L262.434 180.75H262.734V181.056L262.698 187.764V188.034H262.434C261.09 188.034 259.752 188.034 258.414 188.004L254.4 187.92L246.546 187.752Z" fill="#EBEBEB"/>
<path d="M255.408 196.2L263.418 196.038L267.366 195.966C268.68 195.966 269.988 195.966 271.296 195.936L271.026 196.2V189.492L271.326 189.786L263.382 189.75C260.73 189.75 258.084 189.684 255.438 189.654L255.6 189.492C255.6 190.59 255.546 191.694 255.522 192.81L255.408 196.2ZM255.408 196.2L255.324 192.882C255.294 191.76 255.252 190.626 255.24 189.492V189.33H255.408C258.054 189.3 260.7 189.234 263.352 189.234L271.296 189.198H271.596V189.504L271.56 196.2V196.47H271.296C269.958 196.47 268.614 196.47 267.276 196.44L263.28 196.368L255.408 196.2Z" fill="#EBEBEB"/>
<path d="M237.648 196.224H253.536V189.51H237.648V196.224Z" fill="#EBEBEB"/>
<path d="M28.704 229.638L36.696 229.476L40.632 229.404C41.94 229.404 43.242 229.404 44.544 229.404L44.28 229.668L44.244 222.978L44.544 223.278L36.6 223.2C33.96 223.2 31.32 223.128 28.68 223.098L28.842 222.936C28.842 224.028 28.794 225.132 28.764 226.248L28.704 229.638ZM28.704 229.638L28.62 226.332C28.59 225.21 28.554 224.082 28.542 222.948V222.786H28.704C31.344 222.75 33.984 222.69 36.624 222.684L44.544 222.648H44.844V222.948V229.638V229.908H44.58C43.248 229.908 41.91 229.908 40.578 229.878L36.558 229.8L28.704 229.638Z" fill="#EBEBEB"/>
<path d="M37.5418 238.08H53.3818V231.384H37.5418V238.08Z" fill="#EBEBEB"/>
<path d="M69.87 94.716L77.886 94.548L81.834 94.482C83.142 94.452 84.45 94.482 85.758 94.452L85.494 94.716L85.458 88.002L85.758 88.302L77.814 88.266C75.168 88.266 72.516 88.2 69.87 88.164L70.032 88.002C70.032 89.1 69.984 90.21 69.954 91.326L69.87 94.716ZM69.87 94.716L69.786 91.398C69.786 90.276 69.72 89.142 69.708 88.002V87.84H69.87C72.516 87.81 75.168 87.744 77.814 87.744L85.758 87.702H86.058V88.002L86.028 94.716V94.986H85.764C84.426 94.986 83.082 94.986 81.75 94.95L77.754 94.884L69.87 94.716Z" fill="#EBEBEB"/>
<path d="M37.488 36.684H53.376V29.97H37.488V36.684Z" fill="#EBEBEB"/>
<path d="M28.6319 45.15L36.6419 45L40.5899 44.934C41.9039 44.934 43.2059 44.934 44.5199 44.934L44.2499 45.198V38.484L44.5499 38.784L36.5999 38.7C33.9479 38.7 31.3019 38.634 28.6559 38.598L28.8179 38.436C28.8179 39.534 28.7639 40.638 28.7399 41.76L28.6319 45.15ZM28.6319 45.15L28.5419 41.832C28.5419 40.71 28.4759 39.576 28.4639 38.436V38.274H28.6319C31.2779 38.274 33.9239 38.178 36.5759 38.172L44.5199 38.136H44.8199V38.436L44.7839 45.15V45.42H44.5199C43.1759 45.42 41.8379 45.42 40.4999 45.384L36.5039 45.318L28.6319 45.15Z" fill="#EBEBEB"/>
<path d="M246.546 36.684L254.556 36.516L258.504 36.45C259.818 36.45 261.12 36.45 262.434 36.45L262.164 36.714L262.134 30L262.434 30.3L254.49 30.264C251.838 30.264 249.192 30.198 246.546 30.162L246.708 30C246.708 31.098 246.654 32.202 246.63 33.324L246.546 36.684ZM246.546 36.684L246.456 33.366C246.456 32.244 246.39 31.11 246.378 29.97V29.808H246.546C249.192 29.808 251.838 29.712 254.49 29.706L262.434 29.67H262.734V30L262.698 36.714V36.984H262.434C261.09 36.984 259.752 36.984 258.414 36.948L254.4 36.852L246.546 36.684Z" fill="#EBEBEB"/>
<path d="M221.43 120.642H237.318V113.928H221.43V120.642Z" fill="#EBEBEB"/>
<path d="M185.802 144.18H272.244V29.97L185.802 29.97V144.18Z" fill="#EBEBEB"/>
<path d="M230.748 85.344H268.182V34.542L230.748 34.542V85.344Z" fill="white"/>
<path d="M189.852 85.344H227.286V34.542L189.852 34.542V85.344Z" fill="white"/>
<path d="M230.748 139.602H268.182V88.8H230.748V139.602Z" fill="white"/>
<path d="M189.852 139.602H227.286V88.8H189.852V139.602Z" fill="white"/>
<path d="M214.68 29.97H185.796V193.362H202.512L190.848 110.22L214.68 29.97Z" fill="#DBDBDB"/>
<path d="M209.676 34.386L205.11 53.382L200.454 72.354L191.136 110.292L191.142 110.19L195.45 149.838L197.598 169.662L199.65 189.498L197.304 169.698L195.048 149.886L190.548 110.256L190.542 110.202L190.554 110.148L200.07 72.258L204.828 53.31L209.676 34.386Z" fill="#EBEBEB"/>
<path d="M187.518 37.74L187.662 54.126L187.746 70.512L187.818 103.284L187.746 136.056L187.662 152.442L187.518 168.828L187.368 152.442L187.284 136.056L187.218 103.284L187.284 70.512L187.368 54.126L187.518 37.74Z" fill="#EBEBEB"/>
<path d="M192.912 40.812L192.03 58.23L191.088 75.642L189.114 110.466V110.442L190.074 149.25L190.494 168.648L190.848 188.058L190.188 168.66L189.594 149.262L188.526 110.46V110.442V110.436L190.644 75.618L191.754 58.212L192.912 40.812Z" fill="#EBEBEB"/>
<path d="M196.674 185.544L194.772 166.746L192.93 147.942C191.76 135.402 190.53 122.862 189.408 110.316V110.238L194.772 80.964L197.496 66.33L200.262 51.708L197.742 66.372L195.18 81.036L189.972 110.34V110.268C191.172 122.802 192.276 135.354 193.434 147.894L195.084 166.716L196.674 185.544Z" fill="#EBEBEB"/>
<path d="M185.802 112.662H192.324V108.852H185.802V112.662Z" fill="#DBDBDB"/>
<path d="M243.288 29.97H272.172V193.362H255.456L267.126 110.22L243.288 29.97Z" fill="#DBDBDB"/>
<path d="M248.292 34.386L253.14 53.31L257.898 72.258L267.414 110.148L267.426 110.202L267.42 110.256L262.92 149.886L260.664 169.698L258.318 189.498L260.37 169.662L262.524 149.838L266.826 110.19L266.832 110.292L257.514 72.354L252.858 53.382L248.292 34.386Z" fill="#EBEBEB"/>
<path d="M270.45 37.74L270.6 54.126L270.684 70.512L270.75 103.284L270.684 136.056L270.6 152.442L270.45 168.828L270.306 152.442L270.222 136.056L270.156 103.284L270.222 70.512L270.306 54.126L270.45 37.74Z" fill="#EBEBEB"/>
<path d="M265.056 40.812L266.22 58.212L267.324 75.618L269.442 110.436V110.442V110.46L268.374 149.262L267.78 168.66L267.126 188.058L267.48 168.648L267.894 149.25L268.854 110.442V110.466L266.88 75.642L265.944 58.23L265.056 40.812Z" fill="#EBEBEB"/>
<path d="M261.294 185.544L262.884 166.716L264.54 147.894C265.692 135.354 266.796 122.802 267.996 110.268V110.34L262.8 81.036L260.238 66.372L257.718 51.708L260.49 66.33L263.214 80.964L268.572 110.238V110.316C267.444 122.862 266.22 135.402 265.044 147.942L263.208 166.746L261.294 185.544Z" fill="#EBEBEB"/>
<path d="M272.172 108.852H265.65V112.662H272.172V108.852Z" fill="#DBDBDB"/>
<path d="M67.7281 45.318H33.8521V86.412H67.7281V45.318Z" fill="#EBEBEB"/>
<path d="M63.8577 49.068H37.7217V82.662H63.8577V49.068Z" fill="white"/>
<path d="M38.7417 49.068H37.7217V82.662H38.7417V49.068Z" fill="#DBDBDB"/>
<path d="M68.748 45.318H67.728V86.412H68.748V45.318Z" fill="#DBDBDB"/>
<path d="M52.6439 53.7H46.4819V72.06H52.6439V53.7Z" fill="#DBDBDB"/>
<path d="M60.5217 75.492H43.4937V65.892H60.5217V75.492ZM44.0937 74.892H59.9217V66.492H44.0937V74.892Z" fill="#EBEBEB"/>
<path d="M98.916 96.378H65.04V137.472H98.916V96.378Z" fill="#EBEBEB"/>
<path d="M95.0457 100.128H68.9097V133.722H95.0457V100.128Z" fill="white"/>
<path d="M69.9297 100.128H68.9097V133.722H69.9297V100.128Z" fill="#DBDBDB"/>
<path d="M99.936 96.378H98.916V137.472H99.936V96.378Z" fill="#DBDBDB"/>
<path d="M84.7258 108.816H79.4458V122.166H84.7258V108.816Z" fill="#EBEBEB"/>
<path d="M90.5997 126.426H75.8037V116.628H90.5997V126.426ZM76.4157 125.826H89.9997V117.228H76.4037L76.4157 125.826Z" fill="#DBDBDB"/>
<path d="M82.9918 282.978C115.062 282.978 141.06 280.488 141.06 277.416C141.06 274.344 115.062 271.854 82.9918 271.854C50.9218 271.854 24.9238 274.344 24.9238 277.416C24.9238 280.488 50.9218 282.978 82.9918 282.978Z" fill="#EBEBEB"/>
<path d="M26.6699 264.834L57.5039 264.69L88.3379 264.636L150 264.534L211.662 264.636L242.496 264.69L273.33 264.834L242.496 264.984L211.662 265.038L150 265.134L88.3379 265.038L57.5039 264.984L26.6699 264.834Z" fill="#263238"/>
<path d="M244.566 211.272C244.566 211.272 239.088 202.872 226.818 204.498C215.16 206.052 207.906 226.476 219.204 230.076C230.502 233.676 230.298 214.116 234.804 211.224C238.122 209.106 242.508 210.042 244.566 211.272Z" fill="url(#paint0_linear_232_2752)"/>
<path d="M216.462 215.046C217.309 214.435 218.195 213.88 219.114 213.384C219.983 212.906 220.914 212.548 221.88 212.322C223.386 210.419 225.326 208.905 227.538 207.906L227.184 207.852C226.549 207.765 225.91 207.711 225.27 207.69C223.98 207.66 222.696 207.863 221.478 208.29C221.464 208.295 221.448 208.294 221.435 208.287C221.421 208.28 221.411 208.268 221.406 208.254C221.401 208.24 221.402 208.224 221.409 208.211C221.416 208.197 221.428 208.187 221.442 208.182C222.676 207.782 223.953 207.526 225.246 207.42C225.875 207.366 226.507 207.366 227.136 207.42C227.472 207.456 227.808 207.51 228.138 207.576L228.33 207.612C229.49 207.16 230.698 206.842 231.93 206.664L231.606 206.544C231.031 206.358 230.446 206.204 229.854 206.082C228.671 205.832 227.461 205.738 226.254 205.8C226.182 205.8 226.17 205.686 226.254 205.68C227.473 205.65 228.693 205.716 229.902 205.878C230.922 206.003 231.927 206.23 232.902 206.556C233.638 206.494 234.378 206.48 235.116 206.514C239.316 206.736 243.732 208.734 245.982 212.418C248.232 216.102 248.304 220.746 248.382 224.946C248.535 230.803 248.133 236.661 247.182 242.442C247.122 242.784 246.648 242.676 246.672 242.346C246.978 237.396 247.272 232.446 247.272 227.484C247.272 225.186 247.242 222.876 247.08 220.584C246.987 218.616 246.609 216.672 245.958 214.812C245.235 212.909 243.969 211.261 242.316 210.072C240.652 208.899 238.748 208.11 236.742 207.762C234.956 207.448 233.128 207.448 231.342 207.762C231.369 208.12 231.345 208.479 231.27 208.83C231.191 209.272 231.06 209.703 230.88 210.114C230.715 210.504 230.514 210.877 230.28 211.23C230.022 211.626 229.68 211.968 229.422 212.334C229.374 212.394 229.284 212.334 229.332 212.262C229.892 211.604 230.289 210.823 230.49 209.982C230.6 209.587 230.686 209.187 230.748 208.782C230.796 208.476 230.796 208.182 230.838 207.858C228.878 208.263 227.012 209.033 225.336 210.126C225.018 210.336 224.736 210.552 224.418 210.78C224.777 211.188 225.08 211.642 225.318 212.13C225.671 212.771 225.968 213.442 226.206 214.134C226.591 215.524 226.79 216.958 226.8 218.4C226.8 218.416 226.794 218.431 226.782 218.442C226.771 218.454 226.756 218.46 226.74 218.46C226.724 218.46 226.709 218.454 226.698 218.442C226.686 218.431 226.68 218.416 226.68 218.4C226.592 216.991 226.256 215.608 225.69 214.314C225.432 213.675 225.134 213.054 224.796 212.454C224.622 212.142 224.436 211.854 224.244 211.542C224.142 211.38 224.028 211.218 223.932 211.05C222.389 212.299 221.08 213.812 220.068 215.52C220.573 216.174 220.978 216.9 221.268 217.674C221.624 218.49 221.923 219.33 222.162 220.188C222.592 221.841 222.914 223.521 223.128 225.216C223.128 225.288 223.026 225.3 223.014 225.216C222.811 223.508 222.394 221.833 221.772 220.23C221.484 219.444 221.172 218.67 220.842 217.902C220.493 217.184 220.185 216.447 219.918 215.694C218.952 217.37 218.307 219.212 218.016 221.124C218.016 221.196 217.89 221.178 217.902 221.124C218.413 218.129 219.615 215.294 221.412 212.844C220.644 213.084 219.882 213.318 219.138 213.63C218.19 214.022 217.295 214.532 216.474 215.148C216.468 215.19 216.402 215.088 216.462 215.046Z" fill="#263238"/>
<path d="M225.228 216.324C225.474 217.524 225.828 218.724 226.032 219.966C226.253 221.152 226.318 222.363 226.224 223.566C226.224 223.596 226.17 223.596 226.17 223.566C226.074 221.135 225.72 218.722 225.114 216.366C225.111 216.358 225.11 216.351 225.11 216.343C225.111 216.335 225.113 216.327 225.116 216.32C225.119 216.312 225.124 216.306 225.13 216.3C225.136 216.295 225.143 216.291 225.15 216.288C225.158 216.285 225.166 216.284 225.174 216.284C225.181 216.285 225.189 216.286 225.197 216.29C225.204 216.293 225.21 216.298 225.216 216.304C225.221 216.31 225.225 216.317 225.228 216.324Z" fill="#263238"/>
<path d="M217.902 212.664C218.416 212.254 218.988 211.922 219.6 211.68C220.221 211.467 220.859 211.306 221.508 211.2C221.574 211.2 221.592 211.308 221.508 211.314C220.872 211.421 220.253 211.611 219.666 211.878C219.073 212.12 218.498 212.403 217.944 212.724C217.94 212.727 217.935 212.729 217.931 212.73C217.926 212.731 217.921 212.731 217.916 212.73C217.912 212.729 217.907 212.727 217.903 212.725C217.899 212.722 217.896 212.719 217.893 212.715C217.89 212.711 217.888 212.707 217.887 212.702C217.886 212.697 217.886 212.692 217.887 212.688C217.888 212.683 217.889 212.678 217.892 212.674C217.895 212.67 217.898 212.667 217.902 212.664Z" fill="#263238"/>
<path d="M238.632 201.504C238.632 201.504 237.48 187.398 226.992 182.826C218.232 179.004 213.192 188.826 219.408 194.874C224.4 199.746 232.452 197.55 238.632 201.504Z" fill="url(#paint1_linear_232_2752)"/>
<path d="M221.352 185.556C222.947 186.202 224.504 186.939 226.014 187.764C227.263 188.489 228.465 189.29 229.614 190.164C229.44 189.81 229.29 189.432 229.11 189.084C228.84 188.538 228.546 188.01 228.222 187.488C227.576 186.422 226.8 185.441 225.912 184.566C225.858 184.512 225.942 184.434 225.996 184.488C226.881 185.365 227.693 186.312 228.426 187.32C228.789 187.832 229.121 188.365 229.422 188.916C229.733 189.42 229.969 189.965 230.124 190.536L230.244 190.626C232.076 192.084 233.755 193.724 235.254 195.522C235.224 195.384 235.194 195.246 235.158 195.12C234.96 194.43 234.75 193.752 234.522 193.068C234.073 191.621 233.436 190.239 232.626 188.958C232.621 188.945 232.621 188.93 232.626 188.917C232.63 188.903 232.64 188.892 232.652 188.885C232.664 188.878 232.678 188.875 232.692 188.877C232.706 188.88 232.719 188.887 232.728 188.898C233.552 190.183 234.286 191.525 234.924 192.912C235.214 193.59 235.457 194.288 235.65 195C235.803 195.462 235.917 195.935 235.992 196.416C236.448 197.016 236.898 197.58 237.318 198.18C241.824 204.594 244.08 212.346 244.626 220.104C244.784 222.416 244.822 224.736 244.74 227.052C244.727 229.39 244.526 231.724 244.14 234.03C244.11 234.174 243.882 234.132 243.888 233.988C243.936 231.948 244.152 229.92 244.188 227.88C244.227 225.836 244.161 223.791 243.99 221.754C243.659 217.684 242.892 213.661 241.704 209.754C240.494 205.754 238.707 201.952 236.4 198.468C235.956 198.384 235.518 198.264 235.086 198.15C234.654 198.036 234.036 197.88 233.514 197.736C232.507 197.474 231.529 197.114 230.592 196.662C230.579 196.654 230.57 196.641 230.567 196.627C230.564 196.612 230.566 196.597 230.574 196.584C230.582 196.571 230.595 196.562 230.609 196.559C230.624 196.555 230.639 196.558 230.652 196.566C231.576 197.069 232.578 197.413 233.616 197.586C234.438 197.748 235.29 197.856 236.112 198.048C235.357 196.936 234.544 195.864 233.676 194.838C231.675 195.024 229.657 194.874 227.706 194.394C226.669 194.144 225.649 193.827 224.652 193.446C223.602 193.038 222.606 192.522 221.574 192.084C221.496 192.054 221.574 191.94 221.616 191.982C223.497 193.004 225.549 193.675 227.67 193.962C229.541 194.262 231.433 194.418 233.328 194.43C232.584 193.572 231.81 192.744 230.988 191.958C228.234 189.336 224.988 186.924 221.334 185.67C221.244 185.646 221.28 185.526 221.352 185.556Z" fill="#263238"/>
<path d="M229.884 185.598C230.357 186.196 230.788 186.825 231.174 187.482C231.563 188.175 231.873 188.91 232.098 189.672C232.098 189.672 232.068 189.708 232.056 189.672C231.702 188.982 231.408 188.262 231.054 187.578C230.71 186.897 230.289 186.256 229.8 185.67C229.758 185.622 229.842 185.544 229.884 185.598Z" fill="#263238"/>
<path d="M220.134 190.296C220.815 190.673 221.535 190.975 222.282 191.196C223 191.437 223.731 191.638 224.472 191.796C224.508 191.796 224.502 191.862 224.472 191.856C223.7 191.775 222.939 191.608 222.204 191.358C221.477 191.088 220.767 190.771 220.08 190.41C220.008 190.362 220.068 190.26 220.134 190.296Z" fill="#263238"/>
<path d="M246.21 199.428C246.276 200.028 247.794 194.304 256.662 189.228C264.72 184.608 274.332 172.584 266.436 164.994C260.058 158.85 243.264 172.2 246.21 199.428Z" fill="url(#paint2_linear_232_2752)"/>
<path d="M240.102 232.29C240.233 226.322 240.704 220.366 241.512 214.452C242.214 209.019 243.469 203.671 245.256 198.492C245.916 196.626 246.672 194.796 247.488 192.984C247.443 192.282 247.455 191.578 247.524 190.878C247.572 189.972 247.65 189.078 247.734 188.172C247.818 187.266 247.908 186.372 248.016 185.472C248.124 184.572 248.316 183.672 248.352 182.784C248.352 182.7 248.484 182.718 248.466 182.784C248.288 183.727 248.181 184.681 248.148 185.64C248.076 186.51 248.028 187.38 247.998 188.25C247.968 189.12 247.998 189.996 247.998 190.872C247.998 191.184 247.998 191.52 247.998 191.856C248.832 190.092 249.726 188.358 250.698 186.666C250.098 182.988 250.878 179.148 251.628 175.554C251.628 175.482 251.754 175.512 251.736 175.584C251.362 177.462 251.161 179.37 251.136 181.284C251.1 182.796 251.172 184.284 251.178 185.814C251.388 185.454 251.604 185.088 251.82 184.734C252.972 182.856 254.22 181.014 255.504 179.226C255.397 178.355 255.425 177.472 255.588 176.61C255.736 175.64 255.95 174.682 256.23 173.742C256.518 172.806 256.83 171.882 257.214 170.976C257.598 170.07 258.108 169.176 258.48 168.222C258.51 168.144 258.63 168.222 258.582 168.27C258.112 169.155 257.74 170.088 257.472 171.054C257.182 171.961 256.939 172.882 256.746 173.814C256.56 174.744 256.41 175.68 256.278 176.628C256.188 177.228 256.134 177.894 256.026 178.524C257.927 175.983 260.002 173.577 262.236 171.324C262.29 171.27 262.368 171.354 262.314 171.408C258.939 175.207 255.926 179.313 253.314 183.672C253.212 183.834 253.122 184.002 253.026 184.17C253.518 183.858 254.076 183.618 254.538 183.36C255.396 182.886 256.254 182.412 257.124 181.944L259.632 180.57C260.064 180.33 260.49 180.078 260.928 179.856C261.45 179.621 261.952 179.342 262.428 179.022C262.494 178.974 262.566 179.076 262.494 179.118C261.642 179.586 260.886 180.282 260.064 180.81C259.242 181.338 258.396 181.848 257.532 182.328C255.954 183.204 254.244 183.84 252.69 184.728C251.616 186.612 250.626 188.55 249.69 190.518C250.632 189.918 251.592 189.318 252.57 188.796C253.2 188.442 253.83 188.094 254.466 187.758C255.105 187.467 255.708 187.105 256.266 186.678C256.32 186.63 256.398 186.714 256.344 186.762C255.312 187.692 254.167 188.488 252.936 189.132C251.796 189.798 250.644 190.44 249.462 191.022C248.514 193.098 247.662 195.222 246.894 197.37C243.162 207.942 241.788 219.162 241.134 230.304C240.942 233.628 240.84 236.946 240.798 240.276C240.756 243.606 240.93 246.918 240.924 250.236C240.924 250.338 240.762 250.362 240.75 250.236C240.348 247.29 240.282 244.29 240.15 241.326C240.018 238.362 240.036 235.308 240.102 232.29Z" fill="#263238"/>
<path d="M256.2 184.434C257.819 183.72 259.392 182.907 260.91 181.998C262.451 181.131 263.945 180.184 265.386 179.16C265.386 179.16 265.44 179.16 265.416 179.196C264.058 180.298 262.622 181.3 261.12 182.196C259.55 183.077 257.924 183.857 256.254 184.53C256.2 184.566 256.146 184.464 256.2 184.434Z" fill="#263238"/>
<path d="M253.65 172.488C253.776 171.972 253.944 171.462 254.112 170.964C254.105 170.956 254.102 170.945 254.102 170.934C254.102 170.923 254.105 170.913 254.112 170.904C254.22 170.616 254.34 170.334 254.454 170.052L254.496 169.95C254.522 169.895 254.544 169.839 254.562 169.782C254.562 169.782 254.598 169.782 254.592 169.782C254.586 169.782 254.538 169.98 254.508 170.076C254.495 170.131 254.479 170.185 254.46 170.238C253.874 172.203 253.435 174.208 253.146 176.238C253.146 176.298 253.038 176.304 253.038 176.238C253.124 174.972 253.329 173.716 253.65 172.488Z" fill="#263238"/>
<path d="M244.614 214.704C247.704 205.104 254.688 199.404 263.67 200.724C272.652 202.044 275.7 213.864 269.7 217.8C263.7 221.736 256.002 213.804 252.348 212.472C248.694 211.14 244.614 214.704 244.614 214.704Z" fill="url(#paint3_linear_232_2752)"/>
<path d="M243.792 239.214C243.66 238.128 243.552 237.042 243.432 235.95C243.204 233.778 242.964 231.606 242.736 229.434C242.322 225.462 242.196 221.52 243.336 217.644C244.307 214.125 246.326 210.986 249.126 208.644C250.166 207.794 251.316 207.09 252.546 206.55C253.541 205.212 254.902 204.191 256.464 203.61C258.403 202.92 260.448 202.577 262.506 202.596C262.578 202.596 262.59 202.704 262.506 202.71C260.553 202.729 258.624 203.136 256.83 203.91C256.061 204.242 255.329 204.654 254.646 205.14C254.221 205.455 253.82 205.802 253.446 206.178C255.134 205.568 256.932 205.329 258.72 205.476C259.365 205.536 260.003 205.65 260.628 205.818C261.085 205.646 261.564 205.537 262.05 205.494C262.682 205.422 263.32 205.422 263.952 205.494C265.25 205.665 266.518 206.014 267.72 206.532C267.732 206.54 267.74 206.552 267.744 206.565C267.748 206.579 267.747 206.593 267.742 206.606C267.736 206.619 267.726 206.63 267.713 206.636C267.7 206.642 267.686 206.643 267.672 206.64C266.5 206.199 265.272 205.927 264.024 205.83C263.425 205.783 262.823 205.783 262.224 205.83C261.891 205.859 261.561 205.909 261.234 205.98C263.851 206.762 266.106 208.445 267.6 210.732C267.636 210.798 267.546 210.864 267.504 210.804C266.624 209.479 265.455 208.37 264.086 207.559C262.716 206.749 261.182 206.258 259.596 206.124C259.398 206.124 259.2 206.124 258.996 206.094C259.082 206.392 259.15 206.694 259.2 207C259.32 207.426 259.458 207.852 259.608 208.272C259.913 209.136 260.271 209.98 260.682 210.798C261.095 211.629 261.564 212.431 262.086 213.198C262.597 214.017 263.201 214.774 263.886 215.454C263.946 215.508 263.856 215.592 263.802 215.532C263.172 214.794 262.458 214.134 261.87 213.36C261.302 212.619 260.791 211.837 260.34 211.02C259.888 210.19 259.503 209.325 259.188 208.434C259.026 207.966 258.882 207.486 258.756 207.006C258.657 206.721 258.597 206.425 258.576 206.124C257.54 206.113 256.507 206.238 255.504 206.496C256.194 208.584 256.92 210.756 258.39 212.448C258.438 212.502 258.342 212.58 258.294 212.514C257.591 211.61 256.951 210.657 256.38 209.664C255.835 208.699 255.431 207.66 255.18 206.58C253.442 207.066 251.812 207.881 250.38 208.98C247.678 211.109 245.695 214.016 244.698 217.308C243.651 220.845 243.314 224.554 243.708 228.222C244.074 232.854 244.674 237.48 244.866 242.124C244.866 242.424 244.422 242.592 244.314 242.262C244.044 241.265 243.87 240.244 243.792 239.214Z" fill="#263238"/>
<path d="M249.6 207.858C249.839 207.468 250.129 207.113 250.464 206.802C250.776 206.45 251.106 206.116 251.454 205.8C252.135 205.17 252.918 204.661 253.77 204.294C253.836 204.264 253.884 204.372 253.812 204.402C252.953 204.751 252.178 205.279 251.538 205.95C251.21 206.274 250.898 206.61 250.602 206.958C250.342 207.317 250.047 207.648 249.72 207.948C249.684 207.996 249.6 207.93 249.6 207.858Z" fill="#263238"/>
<path d="M264.03 209.124C264.88 209.859 265.682 210.649 266.43 211.488C267.16 212.334 267.802 213.253 268.344 214.23C268.344 214.26 268.344 214.284 268.296 214.26C267.016 212.449 265.572 210.76 263.982 209.214C263.904 209.166 264 209.076 264.03 209.124Z" fill="#263238"/>
<path d="M254.508 209.574C254.68 210.122 254.924 210.645 255.234 211.128C255.544 211.595 255.891 212.037 256.272 212.448C256.272 212.478 256.272 212.514 256.224 212.496C255.356 211.732 254.73 210.731 254.424 209.616C254.4 209.55 254.484 209.502 254.508 209.574Z" fill="#263238"/>
<path d="M230.736 234.432L231.366 241.932L233.304 264.81H254.058L255.99 241.932L256.626 234.432H230.736Z" fill="#455A64"/>
<path d="M230.736 234.432L231.366 241.932H255.99L256.626 234.432H230.736Z" fill="#263238"/>
<path d="M228.696 238.62H258.66V231.426H228.696V238.62Z" fill="#455A64"/>
<path d="M200.706 34.866H99.3058C97.9453 34.8778 96.6004 35.1575 95.3481 35.6892C94.0957 36.221 92.9605 36.9942 92.0071 37.9649C91.0537 38.9355 90.3009 40.0845 89.7918 41.3462C89.2826 42.6079 89.0271 43.9575 89.0398 45.318V254.118C89.0239 255.479 89.2763 256.829 89.7824 258.093C90.2886 259.356 91.0386 260.507 91.9897 261.48C92.9407 262.454 94.0742 263.23 95.3254 263.766C96.5766 264.301 97.921 264.584 99.2818 264.6H200.682C203.431 264.576 206.057 263.462 207.985 261.502C209.912 259.542 210.982 256.897 210.96 254.148V45.348C210.976 43.9862 210.723 42.6347 210.216 41.3707C209.709 40.1067 208.958 38.955 208.006 37.9814C207.053 37.0079 205.918 36.2317 204.666 35.6971C203.413 35.1625 202.068 34.8801 200.706 34.866ZM204.564 247.668C204.564 253.164 200.448 257.61 195.372 257.61H104.634C99.5398 257.61 95.4298 253.164 95.4298 247.668V53.232C95.4298 42.036 99.5398 41.49 104.634 41.49H122.808C123.864 41.49 124.728 42.69 124.728 44.178V44.82C124.728 48.306 126.636 48.318 128.982 48.318H170.982C173.382 48.318 175.236 48.318 175.236 44.82V44.178C175.236 42.69 176.088 41.49 177.168 41.49H195.342C200.418 41.49 204.534 42.978 204.534 53.232L204.564 247.668Z" fill="#263238"/>
<path d="M155.73 43.962H144.264C144.076 43.962 143.896 43.8874 143.763 43.7546C143.63 43.6219 143.556 43.4418 143.556 43.254C143.556 43.0662 143.63 42.8862 143.763 42.7534C143.896 42.6206 144.076 42.546 144.264 42.546H155.73C155.917 42.546 156.098 42.6206 156.23 42.7534C156.363 42.8862 156.438 43.0662 156.438 43.254C156.438 43.4418 156.363 43.6219 156.23 43.7546C156.098 43.8874 155.917 43.962 155.73 43.962Z" fill="white"/>
<path d="M204.564 53.2321V247.668C204.564 253.164 200.448 257.61 195.372 257.61H104.634C99.5397 257.61 95.4297 253.164 95.4297 247.668V53.2321C95.4297 42.0361 99.5397 41.4901 104.634 41.4901H122.808C123.864 41.4901 124.728 42.69 124.728 44.178V44.82C124.728 48.306 126.636 48.318 128.982 48.318H170.982C173.382 48.318 175.236 48.318 175.236 44.82V44.178C175.236 42.69 176.088 41.4901 177.168 41.4901H195.342C200.448 41.4901 204.564 42.9781 204.564 53.2321Z" fill="white"/>
<path d="M201.504 43.2H175.404C175.686 42.21 176.376 41.508 177.204 41.508H195.39C197.73 41.484 199.878 41.808 201.504 43.2Z" fill="#DBDBDB"/>
<path d="M95.4297 238.086V240.672H104.466V238.086H95.4297ZM204.564 78.0001L175.2 109.116H161.688V83.4001H167.058V80.7961H159.084V109.11H144.438V48.3181H139.242V66.5341H95.4417V71.7301H139.242V109.116H96.7977V119.316H95.4297V121.92H96.7977V160.554L104.598 178.422H95.4297V183.618H106.884L112.998 197.592C109.212 199.232 106.084 202.092 104.111 205.715C102.138 209.338 101.433 213.516 102.108 217.586C102.783 221.656 104.8 225.383 107.838 228.175C110.876 230.966 114.759 232.662 118.872 232.992L131.586 253.8L127.752 257.634H140.028L124.704 232.602C127.259 231.988 129.654 230.836 131.73 229.224C133.805 227.612 135.514 225.576 136.741 223.252C137.968 220.928 138.686 218.369 138.848 215.746C139.009 213.122 138.609 210.495 137.676 208.038L173.94 190.788H204.54V185.598H190.038L159.6 152.502H204.552V149.904H157.2L124.464 114.312H177.408L195.3 95.3401L204.54 104.58V97.2361L198.876 91.5661L204.54 85.5661L204.564 78.0001ZM120.372 227.904C117.737 227.905 115.161 227.125 112.97 225.662C110.779 224.199 109.07 222.119 108.061 219.686C107.052 217.252 106.788 214.573 107.301 211.989C107.814 209.405 109.082 207.031 110.945 205.168C112.807 203.304 115.181 202.035 117.765 201.52C120.349 201.006 123.027 201.269 125.462 202.277C127.896 203.285 129.977 204.993 131.44 207.183C132.904 209.374 133.686 211.949 133.686 214.584C133.683 218.115 132.279 221.5 129.783 223.997C127.287 226.494 123.902 227.899 120.372 227.904ZM183 185.574H172.8L135.162 203.46C133.436 201.169 131.201 199.311 128.635 198.03C126.069 196.749 123.24 196.082 120.372 196.08C119.6 196.083 118.828 196.131 118.062 196.224L102 159.474V114.312H117.42L183 185.574ZM186.864 257.61H190.542L204.582 243.564V239.886L186.864 257.61Z" fill="#EBEBEB"/>
<path d="M114 118.248H106.446V125.802H114V118.248Z" fill="#DBDBDB"/>
<path d="M184.914 147.204V132.624H179.61V126.528H170.268V147.204H184.914Z" fill="#DBDBDB"/>
<path d="M159.012 48.3181V62.9821H151.104V54.0541H146.826V48.3181H159.012Z" fill="#DBDBDB"/>
<path d="M204.564 53.226V58.284H197.964V45.558H203.28C204.096 47.298 204.564 49.764 204.564 53.226Z" fill="#DBDBDB"/>
<path d="M163.734 106.914V96.072H184.05L173.076 107.046L163.734 106.914Z" fill="#DBDBDB"/>
<path d="M157.038 96.84H146.832V107.046H157.038V96.84Z" fill="#DBDBDB"/>
<path d="M136.8 73.764H124.506V85.074H136.8V73.764Z" fill="#DBDBDB"/>
<path d="M136.806 87.294V107.046H121.764L112.176 97.458V87.294H136.806Z" fill="#DBDBDB"/>
<path d="M109.464 99.636L117.018 107.19H96.8579V99.636H109.464Z" fill="#DBDBDB"/>
<path d="M108.384 195.078H95.4297V185.982H104.718L108.384 195.078Z" fill="#DBDBDB"/>
<path d="M104.856 230.136V234.504H95.4297V215.076H98.0037C98.7222 220.671 101.11 225.919 104.856 230.136Z" fill="#DBDBDB"/>
<path d="M150 192.396L142.098 175.326H132.498L116.058 182.952L120.354 192.33H120.39C126.227 192.324 131.831 194.618 135.99 198.714L150 192.396Z" fill="#DBDBDB"/>
<path d="M204.564 171.138V182.472H192.204L181.776 171.138H204.564Z" fill="#DBDBDB"/>
<path d="M126.93 252.822L122.406 257.622H104.628C103.968 257.62 103.309 257.543 102.666 257.394V251.994H110.358V240.09L116.148 235.218L126.93 252.822Z" fill="#DBDBDB"/>
<path d="M163.536 232.8L147.936 216.54L141.936 221.214C141.059 224.052 139.631 226.689 137.733 228.975C135.836 231.261 133.506 233.15 130.878 234.534L143.916 255.846L163.536 232.8Z" fill="#DBDBDB"/>
<path d="M146.55 209.394L173.94 195.852H187.602V219.672L166.302 230.19L146.55 209.394Z" fill="#DBDBDB"/>
<path d="M204.552 248.106C204.366 252.906 201.024 256.818 196.722 257.502H195.156L204.552 248.106Z" fill="#DBDBDB"/>
<path d="M106.446 128.952V158.886L114.798 179.322L130.038 171.768H165.588L125.724 128.952H106.446Z" fill="url(#paint4_linear_232_2752)"/>
<path d="M193.14 86.136H163.734V93.504H186.192L193.14 86.136Z" fill="#DBDBDB"/>
<path d="M100.68 175.986H95.4297V163.824L100.68 175.986Z" fill="#DBDBDB"/>
<path d="M204.564 195.852H191.388V211.428H204.564V195.852Z" fill="#DBDBDB"/>
<path d="M204.564 213.858H191.388V219.324H204.564V213.858Z" fill="#DBDBDB"/>
<path d="M188.112 252.336L182.838 257.61H148.212L166.542 235.224L188.112 252.336Z" fill="#DBDBDB"/>
<path d="M190.002 249.762L198.9 241.224L188.106 231.828V223.38L169.086 233.07L190.002 249.762Z" fill="url(#paint5_linear_232_2752)"/>
<path d="M204.564 221.736V234.984L201.036 238.302L191.388 230.19V221.736H204.564Z" fill="#DBDBDB"/>
<path d="M98.8137 243.642V255.372C97.7362 254.401 96.8773 253.212 96.294 251.884C95.7106 250.555 95.416 249.119 95.4297 247.668V243.642H98.8137Z" fill="#DBDBDB"/>
<path d="M107.25 244.872H102.666V249.456H107.25V244.872Z" fill="#DBDBDB"/>
<path d="M136.014 48.318V63.42H106.938V46.134L111.996 41.484H122.796C123.846 41.484 124.71 42.684 124.71 44.178V44.82C124.71 48.306 126.624 48.318 128.964 48.318H136.014Z" fill="#DBDBDB"/>
<path d="M104.478 54.144H95.4297V63.408H104.478V54.144Z" fill="#DBDBDB"/>
<path d="M104.478 46.572V51.75H95.4775C95.5079 50.0009 95.7517 48.262 96.2035 46.572H104.478Z" fill="#DBDBDB"/>
<path d="M109.266 41.484L106.068 44.484H97.0679C98.7239 41.694 101.496 41.484 104.634 41.484H109.266Z" fill="#DBDBDB"/>
<path d="M167.262 155.646L179.61 168.612H191.388V155.646H167.262Z" fill="#DBDBDB"/>
<path d="M204.564 162.654H193.836V168.618H204.564V162.654Z" fill="#DBDBDB"/>
<path d="M200.142 155.646H193.836V161.064H200.142V155.646Z" fill="#DBDBDB"/>
<path d="M204.564 155.646H201.714V161.064H204.564V155.646Z" fill="#DBDBDB"/>
<path d="M145.8 175.326H165.588V184.788L152.934 190.53L145.8 175.326Z" fill="#DBDBDB"/>
<path d="M120.378 223.542C125.282 223.542 129.258 219.566 129.258 214.662C129.258 209.758 125.282 205.782 120.378 205.782C115.473 205.782 111.498 209.758 111.498 214.662C111.498 219.566 115.473 223.542 120.378 223.542Z" fill="url(#paint6_linear_232_2752)"/>
<path d="M100.182 73.764H95.4297V80.586H100.182V73.764Z" fill="#DBDBDB"/>
<path d="M109.242 97.176V73.77H101.994V92.586H96.8579V97.176H109.242Z" fill="#DBDBDB"/>
<path d="M122.442 73.764H112.176V84.444H122.442V73.764Z" fill="#DBDBDB"/>
<path d="M100.182 81.9H95.4297V90.522H100.182V81.9Z" fill="#DBDBDB"/>
<path d="M202.374 132.624H187.122V147.21H202.374V132.624Z" fill="#DBDBDB"/>
<path d="M131.43 116.916L147.342 134.232H167.316V116.916H131.43Z" fill="#DBDBDB"/>
<path d="M149.61 136.23L159.708 147.21H167.262V136.23H149.61Z" fill="#DBDBDB"/>
<path d="M179.604 116.916H170.268V124.146H179.604V116.916Z" fill="#DBDBDB"/>
<path d="M202.38 123.846V107.586L195 99.642L182.136 113.436V129.21H197.388V123.846H202.38Z" fill="url(#paint7_linear_232_2752)"/>
<path d="M204.564 89.622V93.984L202.458 91.92L204.564 89.622Z" fill="#DBDBDB"/>
<path d="M204.564 60.6541V74.0641L195.708 83.7901H184.05V60.6541H204.564Z" fill="#DBDBDB"/>
<path d="M181.344 69.126H169.998V83.79H181.344V69.126Z" fill="url(#paint8_linear_232_2752)"/>
<path d="M195.708 45.558V58.284H181.338V67.284H169.998V48.318H171C173.178 48.318 174.96 48.318 175.2 45.558H195.708Z" fill="#DBDBDB"/>
<path d="M168.534 48.3181H160.392V57.9781H168.534V48.3181Z" fill="#DBDBDB"/>
<path d="M168.54 64.566H146.832V75.24H168.54V64.566Z" fill="#DBDBDB"/>
<path d="M168.54 59.52H160.392V62.982H168.54V59.52Z" fill="#DBDBDB"/>
<path d="M157.038 94.8H151.104L146.832 90.744V78.948H157.038V94.8Z" fill="#DBDBDB"/>
<path d="M119.67 45.858C119.609 45.913 119.551 45.9711 119.496 46.032L119.394 46.128C118.944 45.681 118.336 45.4301 117.702 45.4301C117.068 45.4301 116.459 45.681 116.01 46.128L115.914 46.026L115.74 45.852L115.962 45.654C116.121 45.5267 116.294 45.418 116.478 45.33C116.692 45.222 116.92 45.1452 117.156 45.102C117.269 45.0801 117.383 45.0641 117.498 45.054H117.798H118.026C118.231 45.0809 118.432 45.1312 118.626 45.204C118.773 45.2577 118.916 45.324 119.052 45.402C119.194 45.4836 119.329 45.5779 119.454 45.684L119.64 45.852L119.67 45.858Z" fill="#A6A6A6"/>
<path d="M116.562 46.68L116.286 46.404C116.59 46.0985 116.986 45.9005 117.414 45.84C117.721 45.7922 118.036 45.8184 118.331 45.9165C118.626 46.0146 118.894 46.1817 119.112 46.404C119.022 46.494 118.932 46.59 118.836 46.68C118.688 46.5297 118.511 46.4108 118.316 46.3304C118.122 46.2499 117.912 46.2097 117.702 46.212C117.49 46.2102 117.28 46.2507 117.084 46.3311C116.889 46.4115 116.711 46.5301 116.562 46.68Z" fill="#A6A6A6"/>
<path d="M118.56 46.956L118.284 47.232C118.204 47.1544 118.111 47.0932 118.008 47.052C117.905 47.0108 117.795 46.9904 117.684 46.992C117.572 46.9899 117.461 47.0106 117.358 47.0529C117.255 47.0952 117.162 47.1582 117.084 47.238L116.808 46.962C116.919 46.8418 117.055 46.7457 117.205 46.6799C117.356 46.614 117.518 46.5797 117.682 46.5792C117.847 46.5786 118.009 46.6118 118.16 46.6766C118.311 46.7414 118.447 46.8365 118.56 46.956Z" fill="#A6A6A6"/>
<path d="M117.948 47.484C117.949 47.5169 117.943 47.5495 117.931 47.58C117.919 47.6106 117.901 47.6384 117.878 47.6619C117.855 47.6854 117.827 47.704 117.797 47.7168C117.767 47.7295 117.735 47.7361 117.702 47.736C117.669 47.736 117.636 47.7295 117.605 47.7169C117.575 47.7042 117.547 47.6856 117.524 47.6622C117.5 47.6388 117.482 47.6111 117.469 47.5805C117.456 47.5499 117.45 47.5171 117.45 47.484C117.45 47.4512 117.456 47.4187 117.469 47.3885C117.482 47.3583 117.5 47.3309 117.524 47.3079C117.547 47.285 117.575 47.267 117.606 47.255C117.636 47.243 117.669 47.2372 117.702 47.238C117.767 47.238 117.83 47.264 117.876 47.3101C117.922 47.3562 117.948 47.4188 117.948 47.484Z" fill="#A6A6A6"/>
<path d="M102.54 46.386C102.54 46.2424 102.582 46.1021 102.662 45.9827C102.742 45.8633 102.855 45.7702 102.988 45.7153C103.12 45.6603 103.266 45.646 103.407 45.674C103.548 45.702 103.677 45.7711 103.779 45.8727C103.88 45.9742 103.95 46.1036 103.978 46.2444C104.006 46.3852 103.991 46.5312 103.936 46.6639C103.881 46.7965 103.788 46.9099 103.669 46.9897C103.55 47.0695 103.409 47.112 103.266 47.112C103.17 47.1128 103.075 47.0946 102.987 47.0584C102.898 47.0222 102.818 46.9688 102.75 46.9012C102.683 46.8336 102.629 46.7532 102.593 46.6648C102.557 46.5764 102.539 46.4816 102.54 46.386Z" fill="#A6A6A6"/>
<path d="M104.82 46.386C104.82 46.2424 104.862 46.1021 104.942 45.9827C105.022 45.8633 105.135 45.7702 105.268 45.7153C105.401 45.6603 105.547 45.646 105.687 45.674C105.828 45.702 105.958 45.7711 106.059 45.8727C106.161 45.9742 106.23 46.1036 106.258 46.2444C106.286 46.3852 106.272 46.5312 106.217 46.6639C106.162 46.7965 106.069 46.9099 105.949 46.9897C105.83 47.0695 105.689 47.112 105.546 47.112C105.45 47.1128 105.356 47.0946 105.267 47.0584C105.179 47.0222 105.098 46.9688 105.031 46.9012C104.963 46.8336 104.91 46.7532 104.873 46.6648C104.837 46.5764 104.819 46.4816 104.82 46.386Z" fill="#A6A6A6"/>
<path d="M107.1 46.386C107.1 46.2422 107.142 46.1016 107.222 45.9821C107.302 45.8625 107.416 45.7695 107.549 45.7147C107.682 45.6599 107.829 45.6459 107.969 45.6744C108.11 45.7029 108.24 45.7727 108.341 45.8748C108.442 45.9769 108.511 46.1069 108.538 46.2481C108.566 46.3893 108.551 46.5355 108.495 46.668C108.439 46.8006 108.345 46.9135 108.225 46.9926C108.104 47.0716 107.963 47.1132 107.82 47.112C107.725 47.112 107.63 47.0932 107.543 47.0566C107.455 47.0201 107.375 46.9665 107.308 46.899C107.241 46.8315 107.189 46.7514 107.153 46.6634C107.117 46.5753 107.099 46.4811 107.1 46.386Z" fill="#A6A6A6"/>
<path d="M109.38 46.386C109.38 46.2422 109.423 46.1016 109.503 45.9821C109.583 45.8625 109.696 45.7695 109.829 45.7147C109.962 45.6599 110.109 45.6459 110.25 45.6744C110.391 45.7029 110.52 45.7727 110.621 45.8748C110.723 45.9769 110.791 46.1069 110.819 46.2481C110.846 46.3893 110.831 46.5355 110.775 46.668C110.719 46.8006 110.625 46.9135 110.505 46.9926C110.385 47.0716 110.244 47.1132 110.1 47.112C110.005 47.112 109.911 47.0932 109.823 47.0566C109.735 47.0201 109.656 46.9665 109.589 46.899C109.522 46.8315 109.469 46.7514 109.433 46.6634C109.397 46.5753 109.379 46.4811 109.38 46.386Z" fill="#A6A6A6"/>
<path d="M111.654 46.386C111.654 46.2424 111.696 46.1021 111.776 45.9827C111.856 45.8633 111.969 45.7702 112.102 45.7153C112.235 45.6603 112.381 45.646 112.521 45.674C112.662 45.702 112.792 45.7711 112.893 45.8727C112.995 45.9742 113.064 46.1036 113.092 46.2444C113.12 46.3852 113.106 46.5312 113.051 46.6639C112.996 46.7965 112.903 46.9099 112.783 46.9897C112.664 47.0695 112.523 47.112 112.38 47.112C112.284 47.1128 112.19 47.0946 112.101 47.0584C112.013 47.0222 111.932 46.9688 111.865 46.9012C111.797 46.8336 111.744 46.7532 111.707 46.6648C111.671 46.5764 111.653 46.4816 111.654 46.386Z" fill="#A6A6A6"/>
<path d="M196.224 45.39H190.638V47.82H196.224V45.39Z" fill="#A6A6A6"/>
<path d="M196.38 47.9641H190.488V45.2401H196.38V47.9641ZM190.788 47.6641H196.08V45.5401H190.8L190.788 47.6641Z" fill="white"/>
<path d="M194.778 45.702H190.98V47.502H194.778V45.702Z" fill="#A6A6A6"/>
<path d="M196.902 45.87H196.38V47.328H196.902V45.87Z" fill="#A6A6A6"/>
<path d="M155.124 197.592L154.638 196.5L174.81 187.536H187.302L117.402 111.216H141.318V66.288H142.518V112.416H120.126L190.026 188.736H175.068L155.124 197.592Z" fill="url(#paint9_linear_232_2752)"/>
<path d="M145.974 59.214C145.8 57.186 144.372 55.2 141.918 55.2C139.464 55.2 138.072 57.216 137.868 59.244C137.562 62.37 139.668 65.208 141.918 67.794C144.174 65.178 146.286 62.34 145.974 59.214ZM141.918 61.464C141.479 61.4628 141.051 61.3316 140.686 61.087C140.322 60.8423 140.038 60.4952 139.871 60.0894C139.704 59.6837 139.661 59.2375 139.747 58.8072C139.834 58.377 140.046 57.982 140.356 57.6721C140.667 57.3623 141.063 57.1514 141.493 57.0662C141.924 56.9811 142.37 57.0254 142.775 57.1936C143.18 57.3618 143.527 57.6463 143.77 58.0113C144.014 58.3762 144.144 58.8052 144.144 59.244C144.145 59.5363 144.088 59.8258 143.976 60.0959C143.865 60.366 143.7 60.6113 143.494 60.8177C143.287 61.0241 143.041 61.1874 142.77 61.2984C142.5 61.4093 142.21 61.4656 141.918 61.464Z" fill="url(#paint10_linear_232_2752)"/>
<path d="M152.118 204.846L152.064 198.624L147.054 194.934L159.306 195.09L152.118 204.846Z" fill="#37474F"/>
<path d="M133.2 251.904L120 229.704L120.948 229.614C125.812 228.854 130.198 226.255 133.2 222.354C138.054 215.952 133.752 206.844 133.71 206.754L133.44 206.208L152.922 197.304L153.42 198.396L135.042 206.796C135.954 208.98 138.792 216.996 134.154 223.086C131.139 227.021 126.787 229.715 121.92 230.658L134.19 251.292L133.2 251.904Z" fill="#37474F"/>
<path d="M137.742 244.908C137.538 242.88 136.14 240.864 133.686 240.864C131.232 240.864 129.84 242.88 129.636 244.908C129.33 248.034 131.436 250.872 133.686 253.458C135.942 250.872 138.054 248.034 137.742 244.908ZM133.686 247.158C133.247 247.157 132.818 247.026 132.454 246.781C132.09 246.536 131.806 246.189 131.639 245.783C131.472 245.378 131.429 244.931 131.515 244.501C131.601 244.071 131.813 243.676 132.124 243.366C132.435 243.056 132.83 242.845 133.261 242.76C133.691 242.675 134.137 242.719 134.543 242.888C134.948 243.056 135.294 243.34 135.538 243.705C135.782 244.07 135.912 244.499 135.912 244.938C135.912 245.23 135.855 245.52 135.744 245.79C135.632 246.06 135.468 246.305 135.261 246.512C135.054 246.718 134.808 246.881 134.538 246.992C134.268 247.103 133.978 247.16 133.686 247.158Z" fill="url(#paint11_linear_232_2752)"/>
<path d="M224.922 173.094C224.924 176.717 223.821 180.254 221.761 183.233C219.7 186.213 216.78 188.493 213.39 189.77C209.999 191.046 206.3 191.259 202.786 190.378C199.272 189.498 196.11 187.566 193.722 184.842H159.114L154.272 193.8L149.43 184.842H145.008V161.346H193.728C196.118 158.625 199.28 156.696 202.794 155.818C206.307 154.939 210.005 155.153 213.395 156.43C216.784 157.706 219.703 159.986 221.764 162.964C223.824 165.943 224.928 169.478 224.928 173.1L224.922 173.094Z" fill="white"/>
<path d="M224.922 173.094C224.899 174.894 224.633 176.682 224.13 178.41C223.576 180.113 222.784 181.728 221.778 183.21C219.709 186.199 216.779 188.488 213.378 189.774C212.96 189.943 212.533 190.092 212.1 190.218L210.792 190.554C210.354 190.644 209.904 190.698 209.46 190.776C209.016 190.848 208.567 190.89 208.116 190.902C206.312 191.03 204.5 190.87 202.746 190.428C199.21 189.552 196.025 187.621 193.614 184.89L193.704 184.932L159.09 185.028L159.276 184.914L154.476 193.884L154.266 194.28L154.056 193.884L149.19 184.938L149.424 185.082H145.002H144.72V184.8C144.72 180.882 144.72 176.97 144.72 173.052L144.756 161.304V161.052H145.008L193.728 161.184L193.608 161.304V161.262L193.638 161.226C196.063 158.507 199.259 156.592 202.8 155.736C204.554 155.294 206.366 155.134 208.17 155.262C208.621 155.274 209.07 155.316 209.514 155.388C209.958 155.466 210.408 155.52 210.846 155.61L212.154 155.946C212.587 156.072 213.014 156.221 213.432 156.39C216.833 157.673 219.762 159.96 221.832 162.948C222.837 164.441 223.628 166.067 224.184 167.778C224.669 169.509 224.917 171.297 224.922 173.094ZM224.922 173.094C224.89 171.297 224.613 169.513 224.1 167.79C223.532 166.084 222.723 164.468 221.7 162.99C219.635 160.029 216.718 157.767 213.336 156.504C212.923 156.338 212.5 156.196 212.07 156.078L210.768 155.748C210.33 155.658 209.88 155.61 209.442 155.538C209 155.465 208.553 155.425 208.104 155.418C206.317 155.299 204.523 155.465 202.788 155.91C199.306 156.789 196.172 158.704 193.8 161.4L193.83 161.322V161.442H193.71L144.99 161.574L145.242 161.322L145.278 173.07C145.278 176.988 145.278 180.9 145.278 184.818L144.996 184.536H149.418H149.58L149.652 184.68L154.452 193.65H154.032L158.898 184.704L158.958 184.59H159.084L193.698 184.686H193.8L193.836 184.728C196.204 187.442 199.344 189.368 202.836 190.248C204.57 190.698 206.365 190.866 208.152 190.746C208.601 190.739 209.048 190.699 209.49 190.626C209.928 190.56 210.378 190.506 210.816 190.422L212.112 190.086C212.544 189.969 212.969 189.827 213.384 189.66C216.768 188.397 219.687 186.135 221.754 183.174C222.766 181.693 223.563 180.077 224.124 178.374C224.627 176.658 224.895 174.882 224.922 173.094Z" fill="#263238"/>
<path d="M214.488 186.765C222.043 182.693 224.865 173.267 220.793 165.712C216.72 158.158 207.294 155.335 199.739 159.408C192.185 163.481 189.362 172.907 193.435 180.461C197.508 188.016 206.934 190.838 214.488 186.765Z" fill="url(#paint12_linear_232_2752)"/>
<path d="M158.148 170.844C157.944 168.816 156.546 166.8 154.092 166.8C151.638 166.8 150.246 168.816 150.042 170.844C149.736 173.97 151.842 176.808 154.092 179.394C156.348 176.808 158.46 174 158.148 170.844ZM154.092 173.094C153.654 173.093 153.225 172.962 152.861 172.717C152.496 172.472 152.213 172.125 152.046 171.719C151.879 171.314 151.835 170.867 151.922 170.437C152.008 170.007 152.22 169.612 152.531 169.302C152.841 168.992 153.237 168.781 153.668 168.696C154.098 168.611 154.544 168.655 154.949 168.824C155.355 168.992 155.701 169.276 155.945 169.641C156.188 170.006 156.318 170.435 156.318 170.874C156.319 171.166 156.262 171.456 156.15 171.726C156.039 171.996 155.875 172.241 155.668 172.448C155.461 172.654 155.215 172.817 154.945 172.928C154.674 173.039 154.385 173.096 154.092 173.094Z" fill="url(#paint13_linear_232_2752)"/>
<path d="M187.122 168.66H162.57V169.398H187.122V168.66Z" fill="#A6A6A6"/>
<path d="M183.264 170.712H162.57V171.45H183.264V170.712Z" fill="#A6A6A6"/>
<path d="M185.91 172.764H162.57V173.502H185.91V172.764Z" fill="#A6A6A6"/>
<path d="M176.508 174.816H162.57V175.554H176.508V174.816Z" fill="#A6A6A6"/>
<path d="M217.638 184.5C214.772 187.151 211.013 188.627 207.108 188.634C206.405 188.634 205.703 188.582 205.008 188.478C204.546 188.425 204.087 188.345 203.634 188.238C204.199 186.419 204.901 184.646 205.734 182.934C205.8 182.79 205.884 182.652 205.95 182.532C206.059 182.352 206.177 182.178 206.304 182.01C206.904 181.266 208.404 180.9 210.042 180.87C210.754 180.854 211.466 180.892 212.172 180.984C212.739 181.052 213.299 181.169 213.846 181.332L213.948 181.362H214.008L214.398 181.506L214.74 181.662C214.754 181.658 214.769 181.658 214.782 181.662C214.973 181.749 215.153 181.86 215.316 181.992C215.424 182.082 215.544 182.184 215.658 182.292C216.39 182.961 217.053 183.7 217.638 184.5Z" fill="#EBEBEB"/>
<path d="M217.896 184.26C217.814 184.345 217.728 184.425 217.638 184.5C216.445 185.61 215.082 186.522 213.6 187.2C214.044 184.2 214.386 181.878 214.434 181.5C214.436 181.48 214.436 181.46 214.434 181.44C214.548 181.506 214.658 181.578 214.764 181.656C214.778 181.652 214.792 181.652 214.806 181.656C215.016 181.794 215.316 182.004 215.682 182.286C216.465 182.892 217.205 183.551 217.896 184.26Z" fill="#37474F"/>
<path d="M206.076 181.8L205.962 182.526C205.962 182.706 205.896 182.916 205.866 183.126C205.836 183.336 205.806 183.498 205.764 183.726C205.572 184.926 205.302 186.636 205.008 188.472C204.546 188.419 204.087 188.339 203.634 188.232L203.472 188.196C204.052 186.199 204.794 184.252 205.692 182.376C205.808 182.176 205.936 181.984 206.076 181.8Z" fill="#37474F"/>
<path d="M207.906 187.146C209.706 187.35 213.09 184.86 214.032 182.22C214.098 182.04 213.564 180.324 213.018 178.206C212.688 176.922 212.352 175.482 212.142 174.15C212.1 173.874 204.09 177.504 204.09 177.504C204.832 179.098 205.376 180.776 205.71 182.502C205.728 182.688 205.728 182.874 205.71 183.06V183.15C205.74 184.2 205.992 186.924 207.906 187.146Z" fill="#D3766A"/>
<path d="M205.74 183.06C205.737 183.09 205.737 183.12 205.74 183.15C206.03 183.141 206.319 183.111 206.604 183.06C211.512 182.172 211.836 175.8 211.836 174.198C210.384 174.648 204.084 177.504 204.084 177.504C204.826 179.1 205.37 180.78 205.704 182.508C205.73 182.691 205.742 182.875 205.74 183.06Z" fill="#263238"/>
<path d="M212.052 163.512C213.336 166.38 212.844 175.188 210.966 177.378C208.242 180.546 203.244 181.446 200.412 178.05C197.67 174.756 198.51 163.284 200.658 161.25C203.826 158.232 210.15 159.276 212.052 163.512Z" fill="#D3766A"/>
<path d="M205.95 169.728C205.95 169.728 205.992 169.758 205.992 169.782C205.944 170.382 205.992 171.06 206.514 171.282C206.514 171.282 206.514 171.324 206.514 171.318C205.854 171.192 205.8 170.28 205.95 169.728Z" fill="#263238"/>
<path d="M206.508 169.134C207.468 169.134 207.444 171.03 206.556 171.048C205.668 171.066 205.704 169.152 206.508 169.134Z" fill="#263238"/>
<path d="M202.314 169.8C202.314 169.8 202.266 169.8 202.266 169.854C202.266 170.454 202.194 171.132 201.666 171.324C201.666 171.324 201.666 171.36 201.666 171.354C202.314 171.252 202.422 170.346 202.314 169.8Z" fill="#263238"/>
<path d="M201.792 169.158C200.832 169.074 200.736 170.988 201.624 171.066C202.512 171.144 202.59 169.2 201.792 169.158Z" fill="#263238"/>
<path d="M207.276 168.264C207.025 168.188 206.779 168.098 206.538 167.994C206.264 167.936 206.017 167.788 205.836 167.574C205.791 167.496 205.774 167.405 205.787 167.316C205.8 167.226 205.843 167.144 205.908 167.082C206.054 166.978 206.225 166.914 206.403 166.899C206.581 166.883 206.761 166.915 206.922 166.992C207.273 167.099 207.573 167.329 207.768 167.64C207.806 167.715 207.822 167.798 207.813 167.881C207.805 167.964 207.773 168.043 207.721 168.109C207.67 168.175 207.6 168.224 207.521 168.252C207.442 168.279 207.357 168.283 207.276 168.264Z" fill="#263238"/>
<path d="M201.06 168.18C201.324 168.138 201.564 168.06 201.822 167.994C202.101 167.963 202.362 167.843 202.566 167.652C202.621 167.581 202.651 167.493 202.651 167.403C202.651 167.313 202.621 167.225 202.566 167.154C202.433 167.035 202.271 166.953 202.095 166.919C201.92 166.884 201.739 166.897 201.57 166.956C201.208 167.021 200.883 167.217 200.658 167.508C200.612 167.576 200.586 167.656 200.584 167.738C200.582 167.82 200.603 167.901 200.645 167.972C200.687 168.043 200.749 168.1 200.822 168.137C200.896 168.173 200.979 168.188 201.06 168.18Z" fill="#263238"/>
<path d="M205.404 173.46C205.253 173.694 205.054 173.894 204.82 174.047C204.587 174.2 204.324 174.303 204.048 174.348C203.806 174.381 203.559 174.381 203.316 174.348C203.271 174.354 203.224 174.354 203.178 174.348H203.046C202.98 174.348 202.944 174.282 202.932 174.216C202.93 174.196 202.93 174.176 202.932 174.156V174.108C202.932 173.646 202.98 172.95 202.98 172.95C202.812 173.034 201.954 173.406 201.972 173.172C202.047 171.108 202.332 169.058 202.824 167.052C202.824 167.038 202.83 167.024 202.84 167.014C202.85 167.004 202.864 166.998 202.878 166.998C202.893 166.998 202.907 167.004 202.917 167.014C202.927 167.024 202.932 167.038 202.932 167.052C202.872 168.96 202.476 170.844 202.386 172.752C202.693 172.618 203.016 172.525 203.346 172.476C203.412 172.476 203.22 173.82 203.238 174.024C203.613 174.065 203.992 174.03 204.352 173.922C204.713 173.814 205.048 173.634 205.338 173.394C205.398 173.4 205.44 173.4 205.404 173.46Z" fill="#263238"/>
<path d="M203.592 174.144C203.838 174.473 204.165 174.733 204.54 174.9C204.75 174.982 204.98 174.999 205.2 174.948C205.674 174.828 205.692 174.39 205.608 174.018C205.563 173.821 205.495 173.629 205.404 173.448C204.889 173.865 204.254 174.109 203.592 174.144Z" fill="#263238"/>
<path d="M204.54 174.9C204.75 174.982 204.98 174.999 205.2 174.948C205.674 174.828 205.692 174.39 205.608 174.018C205.357 174.024 205.115 174.115 204.922 174.275C204.728 174.434 204.594 174.655 204.54 174.9Z" fill="#FF9ABB"/>
<path d="M199.356 164.142C199.692 163.392 200.076 162.636 200.556 162.492C201.036 162.348 201.942 163.692 202.956 163.77C204.348 163.878 205.284 162.324 207.234 162.204C209.184 162.084 210.354 164.442 210.384 168.414C210.384 171.966 212.55 172.32 212.55 172.32C212.55 172.32 213.93 164.52 211.746 161.892C209.562 159.264 204.546 158.082 201.096 160.518C199.842 161.4 199.356 164.142 199.356 164.142Z" fill="#263238"/>
<path d="M210.768 170.904C210.768 170.904 212.424 167.904 213.768 168.468C215.112 169.032 214.068 173.232 212.64 173.946C212.463 174.049 212.267 174.116 212.064 174.141C211.86 174.167 211.654 174.151 211.457 174.095C211.26 174.039 211.076 173.944 210.916 173.815C210.757 173.686 210.625 173.527 210.528 173.346L210.768 170.904Z" fill="#D3766A"/>
<path d="M213.438 169.668C213.438 169.668 213.438 169.668 213.438 169.704C212.436 170.238 211.992 171.264 211.71 172.302C211.761 172.192 211.835 172.094 211.927 172.015C212.019 171.936 212.127 171.877 212.244 171.843C212.36 171.809 212.482 171.8 212.603 171.817C212.723 171.834 212.838 171.877 212.94 171.942C212.94 171.942 212.94 172.008 212.94 172.002C212.751 171.962 212.554 171.982 212.376 172.06C212.199 172.137 212.05 172.268 211.95 172.434C211.784 172.712 211.649 173.008 211.548 173.316C211.506 173.412 211.332 173.382 211.356 173.268C211.2 171.918 212.022 169.95 213.438 169.668Z" fill="#263238"/>
<path d="M50.9579 102.342C52.8539 103.332 53.2199 106.752 59.2439 106.542C60.1019 106.542 60.7979 106.176 61.5899 106.464C62.7359 106.89 63.6479 107.808 64.6739 108.48C65.4987 109.03 66.4352 109.391 67.4159 109.536C69.3055 109.761 71.2145 109.322 72.8159 108.294C73.7999 107.694 74.6159 106.848 75.5819 106.188C76.5479 105.528 82.2959 104.142 83.2619 100.908C83.8619 98.85 83.7839 96.51 81.3419 93.504C80.7773 92.9698 80.3916 92.274 80.2379 91.512C80.2421 90.8425 80.3959 90.1824 80.6879 89.58C81.0258 88.8944 81.1472 88.1222 81.0359 87.366C80.7639 86.6463 80.326 86.0009 79.7579 85.482C78.8579 84.396 79.0259 82.818 79.7579 80.88C80.0439 80.059 80.1385 79.1836 80.0345 78.3205C79.9305 77.4574 79.6307 76.6295 79.1579 75.9C78.565 75.0606 77.8651 74.3022 77.0759 73.644C75.9779 72.6 75.7739 71.628 75.2759 70.158C74.3459 67.32 72.8759 66.048 71.1539 65.178C69.6059 64.392 69.6599 64.692 67.9919 64.944C66.3077 63.9194 64.3257 63.4964 62.3699 63.744C60.5699 63.972 59.0519 65.196 57.6779 66.36C56.4779 67.404 55.3319 68.526 55.2779 70.284C55.2419 71.298 55.4879 72.3 55.4399 73.284C55.3799 74.574 54.6599 75.39 53.8019 76.2C52.5282 77.2863 51.6487 78.7627 51.2999 80.4C51.0779 81.774 52.4219 83.898 50.8439 85.932C49.4459 87.732 46.9919 89.784 46.3499 92.046C44.3639 99.096 49.1339 101.4 50.9579 102.342Z" fill="#263238"/>
<path d="M74.2618 106.116C77.0278 105.702 81.2758 106.218 82.7458 103.116C83.3269 102.641 83.7867 102.035 84.0872 101.348C84.3877 100.66 84.5202 99.9109 84.4738 99.162C84.3898 97.53 83.4358 96.114 82.3858 94.962C81.707 94.3272 81.1158 93.6049 80.6278 92.814C80.4717 92.1984 80.3575 91.573 80.2858 90.942C80.4033 90.1347 80.6252 89.3461 80.9458 88.596C80.9458 88.566 80.9458 88.596 80.9458 88.596C80.3458 89.868 79.7818 91.284 80.3458 92.7C80.4251 92.9076 80.5215 93.1082 80.6338 93.3C80.833 94.0463 81.1084 94.7701 81.4558 95.46C82.3678 97.26 83.1958 98.898 83.0758 101.004C83.0511 101.707 82.8816 102.397 82.5778 103.032C81.382 104.08 79.8883 104.729 78.3058 104.886C78.2698 104.886 78.2638 104.958 78.3058 104.952C79.7376 104.807 81.1107 104.308 82.3018 103.5C80.6938 105.798 76.9678 105.492 74.2678 106.02C74.1778 106.038 74.2078 106.128 74.2618 106.116ZM82.9558 102.6V102.54C83.4278 100.84 83.305 99.0304 82.6078 97.41C82.1698 96.336 81.5158 95.37 81.0838 94.29C81.0118 94.104 80.9398 93.912 80.8798 93.726C81.4798 94.566 82.3318 95.268 82.9318 96.09C84.2518 97.89 84.6358 100.02 83.4118 101.958C83.2742 102.182 83.1219 102.396 82.9558 102.6Z" fill="#263238"/>
<path d="M44.9997 99C45.0357 99.06 45.1197 99 45.0897 98.946C43.8897 96.918 44.2497 94.836 45.1857 92.976C44.7357 95.754 45.2817 98.868 47.8257 100.362C47.8677 100.362 47.9037 100.32 47.8617 100.296C45.2337 98.718 44.8617 95.124 45.5457 92.316C46.1281 91.357 46.8098 90.4621 47.5797 89.646C48.7797 88.35 50.2917 87.066 51.1797 85.446C50.9969 86.3859 50.4653 87.2218 49.6917 87.786C49.6437 87.822 49.6917 87.9 49.7337 87.87C50.5715 87.3056 51.1701 86.4504 51.4137 85.47C51.4521 85.2721 51.4742 85.0715 51.4797 84.87C51.7074 84.3492 51.8551 83.7969 51.9177 83.232C51.8457 83.7363 51.7065 84.2287 51.5037 84.696C51.3989 83.8225 51.1976 82.9632 50.9037 82.134C50.2557 79.734 51.4677 78.3 52.9617 77.01C53.0817 76.932 53.2017 76.854 53.3277 76.782C54.1436 76.356 54.8312 75.7201 55.3197 74.94C55.4217 74.832 55.5237 74.724 55.6197 74.61C55.6197 74.61 55.4577 74.772 55.3797 74.85C55.4858 74.6272 55.5682 74.394 55.6257 74.154C55.4675 74.5596 55.2378 74.9335 54.9477 75.258C54.3477 75.756 53.6937 76.212 53.0637 76.692C51.8637 77.412 50.7057 78.096 50.2497 79.53C49.7937 80.964 50.1537 82.362 50.2497 83.73C50.4177 85.878 49.6497 87.672 47.6937 88.53C47.6937 88.53 47.6577 88.578 47.6937 88.566C47.8426 88.525 47.9889 88.4749 48.1317 88.416C46.9291 89.2879 46.009 90.4938 45.4857 91.884C44.1177 93.99 43.5417 96.714 44.9997 99ZM50.0097 86.916L49.3497 87.426C49.6614 87.0602 49.9053 86.6416 50.0697 86.19C50.6097 84.666 50.1597 83.01 50.1237 81.444C50.0703 80.787 50.1766 80.1268 50.4336 79.5198C50.6906 78.9127 51.0907 78.3769 51.5997 77.958C51.1519 78.4593 50.8164 79.0505 50.6157 79.692C50.2737 80.85 50.6157 81.924 50.9637 83.034C51.1956 83.7331 51.2834 84.472 51.2217 85.206C50.879 85.8133 50.4727 86.3825 50.0097 86.904V86.916ZM45.9657 91.116C46.6482 89.8863 47.59 88.8196 48.7257 87.99L48.9537 87.798C49.2657 87.546 49.5537 87.294 49.8777 87.036C48.5997 88.47 47.0457 89.724 45.9657 91.128V91.116Z" fill="#263238"/>
<path d="M76.7158 73.248C77.7467 74.144 78.7282 75.0954 79.6557 76.098C80.3043 76.7523 80.6925 77.6204 80.7478 78.54C80.7733 79.4673 80.4812 80.3755 79.9198 81.114C79.7098 81.426 79.5058 81.744 79.3198 82.068C79.2763 82.6674 79.3708 83.2687 79.5958 83.826C80.0458 84.888 81.0478 85.542 81.5158 86.616C82.2658 88.356 81.4318 89.784 80.6998 91.344C81.2278 90.072 81.9718 88.812 81.5638 87.372C81.2278 86.172 80.3638 85.572 79.7158 84.594C79.3185 83.9862 79.0983 83.2798 79.0798 82.554C78.4798 83.754 78.2998 84.954 79.3198 86.19C79.3678 86.25 79.3198 86.328 79.2478 86.274C77.9518 84.96 78.2938 83.37 79.0858 81.984C79.1349 81.1607 79.3152 80.3505 79.6198 79.584C79.6558 79.506 79.7698 79.584 79.7518 79.644C79.6378 80.244 79.4878 80.844 79.4038 81.444L79.5358 81.246C80.5738 79.77 80.9698 78.054 79.7878 76.446C78.8998 75.246 77.6878 74.34 76.6978 73.254C76.7029 73.2501 76.7093 73.248 76.7158 73.248Z" fill="#263238"/>
<path d="M110.91 279C109.536 279.432 69.3478 278.562 67.8838 277.584C67.3198 277.218 70.7578 239.154 70.7578 239.154L96.2458 239.64L93.3478 265.104C93.3478 265.104 108.174 272.13 109.68 273.378C111.186 274.626 112.29 278.568 110.91 279Z" fill="#AD6359"/>
<path d="M110.91 279C109.536 279.426 69.348 278.562 67.884 277.578C67.704 277.47 67.65 273.606 68.292 268.578C75.576 269.778 101.592 273.792 103.614 272.598C105.024 271.77 103.776 270.474 102.618 269.598C105.942 271.254 109.038 272.85 109.68 273.384C111.168 274.614 112.284 278.568 110.91 279Z" fill="#263238"/>
<path d="M94.0679 258.996L69.0479 258.642C69.0479 258.642 74.0039 198.714 73.7939 197.562C73.5359 196.086 55.7939 126.48 55.7939 126.48H79.6739C79.6739 126.48 98.5019 191.358 99.18 197.61C100.26 207.702 94.0679 258.996 94.0679 258.996Z" fill="#37474F"/>
<path d="M71.2976 252.99C72.7736 252.888 74.2976 252.906 75.7496 252.882C77.2016 252.858 78.7196 252.882 80.2016 252.882C83.2016 252.912 86.1356 252.954 89.0996 253.038C89.9156 253.038 90.7256 253.086 91.5356 253.122C92.3456 253.158 93.2696 253.314 94.1336 253.344C94.1996 253.344 94.1996 253.452 94.1336 253.452C93.4016 253.452 92.6756 253.566 91.9436 253.584C91.2116 253.602 90.4316 253.614 89.6756 253.614C88.1936 253.614 86.6756 253.614 85.2236 253.614C82.2596 253.614 79.2896 253.548 76.3256 253.428C74.6516 253.356 72.9596 253.338 71.2916 253.17C71.2678 253.169 71.2452 253.159 71.2289 253.141C71.2126 253.124 71.2038 253.101 71.2046 253.077C71.2054 253.053 71.2157 253.031 71.2331 253.014C71.2506 252.998 71.2738 252.989 71.2976 252.99Z" fill="#263238"/>
<path d="M61.0317 132.102C63.1677 139.668 65.1237 147.3 67.0317 154.902C68.9397 162.504 70.8537 170.166 72.7557 177.798L75.5997 189.276C76.5237 192.99 77.5977 196.728 77.8317 200.568C78.0657 204.408 77.5677 208.404 77.2317 212.292C76.8957 216.18 76.5717 220.092 76.2297 224.01C75.5457 231.81 74.8917 239.646 74.0397 247.446C73.9317 248.424 73.8297 249.402 73.7277 250.374C73.7277 250.458 73.5897 250.458 73.5957 250.374C74.1177 242.574 74.6577 234.738 75.2817 226.926C75.5937 223.022 75.9117 219.114 76.2357 215.202C76.5537 211.302 77.0097 207.402 77.1297 203.478C77.2497 199.554 76.5297 195.75 75.5817 191.94C74.6337 188.13 73.7097 184.47 72.7737 180.732C70.8657 173.104 68.9597 165.472 67.0557 157.836C64.9377 149.292 62.8197 140.724 60.9477 132.12C60.9453 132.109 60.9475 132.097 60.9537 132.088C60.9599 132.078 60.9696 132.071 60.9807 132.069C60.9919 132.067 61.0035 132.069 61.0131 132.075C61.0226 132.081 61.0293 132.091 61.0317 132.102Z" fill="#263238"/>
<path d="M55.7998 126.48C55.7998 126.48 63.4138 156.342 68.7418 177.366L78.9058 126.48H55.7998Z" fill="#263238"/>
<path d="M80.9041 279.084C79.5241 279.516 39.3421 278.646 37.8721 277.668C37.3081 277.308 39.4081 239.22 39.4081 239.22L64.5541 239.706L63.3541 265.194C63.3541 265.194 78.1861 272.214 79.6861 273.462C81.1861 274.71 82.2781 278.664 80.9041 279.084Z" fill="#AD6359"/>
<path d="M80.9037 279.084C79.5297 279.516 39.3357 278.646 37.8717 277.668C37.6917 277.554 37.7337 273.792 37.8717 268.668C45.1557 269.868 71.5737 273.888 73.5957 272.694C75.0117 271.866 73.7577 270.564 72.6057 269.694C75.9237 271.35 79.0197 272.94 79.6617 273.474C81.1557 274.704 82.2777 278.664 80.9037 279.084Z" fill="#263238"/>
<path d="M78.888 126.474C78.888 126.474 78.192 137.874 75.468 146.904C75.246 147.648 75.012 148.386 74.754 149.088C72.3458 150.025 70.0282 151.18 67.83 152.538C67.83 152.538 66.108 196.212 66.138 198.924C66.252 209.07 63.66 258.492 63.66 258.492L38.46 258.252C38.46 258.252 41.076 202.362 41.088 198.648C41.088 195.048 42.804 172.374 44.322 152.712C44.322 152.712 42.078 146.43 42.33 143.262C42.93 135.57 46.38 126.462 46.38 126.462L78.888 126.474Z" fill="#37474F"/>
<path d="M73.38 141.81C73.47 141.174 73.566 140.544 73.662 139.914C73.842 138.756 74.076 137.604 74.262 136.452C74.724 133.836 75.204 131.208 75.786 128.616C75.786 128.556 75.906 128.568 75.9 128.616C75.792 129.666 75.672 130.71 75.528 131.748C75.384 132.786 75.276 133.842 75.126 134.886C74.838 136.95 74.526 139.02 74.196 141.078C74.058 141.87 73.596 143.292 74.706 143.538C75.612 143.736 76.272 142.848 76.542 142.104C76.82 141.17 77.0206 140.215 77.142 139.248C77.328 138.204 77.49 137.154 77.64 136.11C77.964 133.822 78.314 131.54 78.69 129.264C78.69 129.204 78.804 129.222 78.798 129.264C78.7502 131.603 78.5819 133.938 78.294 136.26C78.15 137.376 77.982 138.486 77.79 139.59C77.6792 140.654 77.4229 141.698 77.028 142.692C76.8652 143.082 76.6067 143.426 76.2764 143.69C75.9461 143.954 75.5546 144.131 75.138 144.204H75.084C75.096 144.21 75.1059 144.22 75.1123 144.231C75.1188 144.243 75.1214 144.257 75.12 144.27C75.12 144.636 75.12 145.014 75.078 145.38C75.036 145.746 74.964 146.112 74.892 146.472C74.8285 146.841 74.7342 147.205 74.61 147.558C74.5539 147.73 74.4878 147.898 74.412 148.062C74.328 148.23 74.214 148.362 74.118 148.518C74.1118 148.533 74.1003 148.545 74.0857 148.552C74.0712 148.559 74.0546 148.56 74.0391 148.556C74.0236 148.551 74.0102 148.541 74.0015 148.528C73.9929 148.514 73.9895 148.498 73.992 148.482C73.992 148.422 73.992 148.362 73.992 148.302V148.266C73.9861 148.158 73.9861 148.05 73.992 147.942C73.992 147.762 74.064 147.588 74.1 147.414C74.178 147.06 74.274 146.712 74.37 146.364C74.466 146.016 74.538 145.662 74.628 145.314C74.718 144.966 74.838 144.6 74.922 144.24C74.9192 144.228 74.9192 144.216 74.922 144.204C74.5869 144.221 74.2547 144.134 73.9703 143.956C73.6859 143.778 73.4631 143.517 73.332 143.208C73.2301 142.745 73.2466 142.265 73.38 141.81Z" fill="#263238"/>
<path d="M65.7897 153.408C66.5405 152.829 67.3326 152.306 68.1597 151.842C69.0318 151.319 69.9355 150.85 70.8657 150.438C72.6657 149.646 74.5737 149.106 76.4577 148.482C76.5117 148.482 76.5537 148.56 76.4937 148.578C74.6937 149.304 72.9237 150.27 71.1597 151.134C70.2957 151.554 69.4137 151.962 68.5317 152.334C67.6497 152.706 66.7677 153.18 65.8557 153.534C65.7897 153.558 65.7357 153.45 65.7897 153.408Z" fill="#263238"/>
<path d="M51.5457 137.502C52.8303 137.49 54.1082 137.316 55.3497 136.986C55.9497 136.842 56.4897 136.656 57.0477 136.476C57.605 136.32 58.1266 136.057 58.5837 135.702C59.4477 134.958 59.8497 133.782 60.2277 132.744C60.6372 131.567 60.9699 130.364 61.2237 129.144C61.2237 129.084 61.3257 129.102 61.3257 129.144C61.3554 130.522 61.1815 131.897 60.8097 133.224C60.4977 134.352 60.0837 135.624 59.1717 136.404C58.1595 137.161 56.9473 137.603 55.6857 137.676C54.3069 137.836 52.9132 137.816 51.5397 137.616C51.53 137.61 51.5221 137.601 51.5169 137.591C51.5117 137.58 51.5092 137.569 51.5099 137.557C51.5105 137.546 51.5141 137.535 51.5204 137.525C51.5267 137.515 51.5354 137.507 51.5457 137.502Z" fill="#263238"/>
<path d="M39.5458 253.362C41.0218 253.254 42.5458 253.272 43.9978 253.254C45.4498 253.236 46.9978 253.254 48.4498 253.254C51.4218 253.278 54.3898 253.33 57.3538 253.41C58.1638 253.41 58.9738 253.458 59.7538 253.494C60.5338 253.53 61.4878 253.68 62.3518 253.716C62.36 253.713 62.3687 253.712 62.3772 253.714C62.3857 253.715 62.3938 253.718 62.4009 253.723C62.4079 253.728 62.4136 253.735 62.4176 253.742C62.4215 253.75 62.4236 253.758 62.4236 253.767C62.4236 253.776 62.4215 253.784 62.4176 253.792C62.4136 253.799 62.4079 253.806 62.4009 253.811C62.3938 253.816 62.3857 253.819 62.3772 253.82C62.3687 253.822 62.36 253.821 62.3518 253.818C61.6258 253.818 60.8938 253.938 60.1618 253.956C59.4298 253.974 58.6498 253.986 57.8938 253.986H53.4418C50.4778 253.986 47.5078 253.92 44.5438 253.794C42.8698 253.728 41.1778 253.704 39.5098 253.542C39.4859 253.537 39.465 253.523 39.4515 253.503C39.4379 253.483 39.433 253.458 39.4378 253.434C39.4426 253.41 39.4567 253.389 39.4769 253.376C39.4972 253.362 39.5219 253.357 39.5458 253.362Z" fill="#263238"/>
<path d="M42.6001 250.08C42.5601 250.078 42.5209 250.069 42.4847 250.052C42.4485 250.035 42.416 250.011 42.3892 249.982C42.3623 249.952 42.3417 249.917 42.3285 249.88C42.3152 249.842 42.3097 249.802 42.3121 249.762L48.0061 151.962C47.9341 151.536 46.3261 146.07 46.2061 143.28C46.0561 140.334 49.1101 128.838 49.2061 128.346C49.2285 128.268 49.2806 128.202 49.3512 128.161C49.4218 128.121 49.5053 128.11 49.5841 128.13C49.6232 128.14 49.6599 128.158 49.692 128.183C49.7241 128.208 49.7509 128.239 49.771 128.274C49.7911 128.309 49.804 128.348 49.809 128.388C49.814 128.428 49.811 128.469 49.8001 128.508C49.8001 128.622 46.6441 140.394 46.8001 143.25C46.9561 146.106 48.6001 151.848 48.6001 151.896C48.6001 151.944 42.9061 249.792 42.9061 249.792C42.9001 249.869 42.8654 249.942 42.8088 249.995C42.7522 250.048 42.6778 250.079 42.6001 250.08Z" fill="#263238"/>
<path d="M71.0879 92.4C83.3999 103.23 94.7999 115.134 95.7779 121.266C97.0979 129.75 91.8959 132.168 89.5559 132.216C83.1779 132.348 71.2979 106.632 67.1579 96.816C63.1379 87.27 68.3999 90 71.0879 92.4Z" fill="url(#paint14_linear_232_2752)"/>
<path d="M79.5181 126.474L77.8021 115.674C77.8021 115.674 82.0681 111.252 79.8661 106.626C78.7501 104.28 71.1601 92.826 67.1101 89.97C63.3121 87.276 58.8061 89.514 57.1141 92.43C52.8601 99.792 48.8101 108.252 46.3501 126.468L79.5181 126.474Z" fill="url(#paint15_linear_232_2752)"/>
<path d="M72.7379 114.294C71.015 114.481 69.3083 114.796 67.6319 115.236C66.7979 115.47 65.9879 115.734 65.1719 116.022C64.7699 116.166 64.3619 116.292 63.9719 116.418C63.547 116.564 63.1056 116.656 62.6579 116.694C62.65 116.694 62.6423 116.697 62.6367 116.703C62.6311 116.708 62.6279 116.716 62.6279 116.724C62.6279 116.732 62.6311 116.74 62.6367 116.745C62.6423 116.751 62.65 116.754 62.6579 116.754C63.0805 116.768 63.5036 116.752 63.9239 116.706C64.3296 116.652 64.7306 116.567 65.1239 116.454C65.9699 116.232 66.7979 115.962 67.6439 115.728C69.3419 115.26 71.0399 114.786 72.7679 114.438C72.787 114.434 72.8038 114.423 72.8144 114.406C72.8251 114.39 72.8289 114.37 72.8249 114.351C72.821 114.332 72.8096 114.315 72.7932 114.305C72.7769 114.294 72.757 114.29 72.7379 114.294Z" fill="#263238"/>
<path d="M77.0399 115.74C75.6135 115.616 74.181 115.576 72.7499 115.62C72.0359 115.62 71.3279 115.704 70.6139 115.788L69.5999 115.92C69.2279 115.98 68.8619 116.082 68.4899 116.13C68.4539 116.13 68.4539 116.196 68.4899 116.196C68.8439 116.16 69.2039 116.196 69.5579 116.196L70.6259 116.142L72.7679 116.052C74.1899 115.974 75.6119 115.914 77.0399 115.884C77.059 115.884 77.0773 115.876 77.0908 115.863C77.1043 115.849 77.1119 115.831 77.1119 115.812C77.1119 115.793 77.1043 115.775 77.0908 115.761C77.0773 115.748 77.059 115.74 77.0399 115.74Z" fill="#263238"/>
<path d="M56.6819 91.326C45.2279 100.326 33.9659 115.884 33.8819 124.578C33.8039 133.164 36.7919 132.336 37.6439 132.276C42.8279 131.94 55.0439 108.042 58.7639 98.298C62.4839 88.554 59.5139 89.1 56.6819 91.326Z" fill="url(#paint16_linear_232_2752)"/>
<path d="M44.5381 125.568C45.1381 124.488 45.7381 123.42 46.3381 122.328L48.1381 119.076C49.3381 116.91 50.5381 114.744 51.6601 112.554C52.7821 110.364 53.9821 108.198 55.1161 106.002C55.6881 104.906 56.2421 103.802 56.7781 102.69C57.3361 101.586 57.8461 100.464 58.3681 99.342C57.5443 101.678 56.5929 103.968 55.5181 106.2C54.4681 108.444 53.3221 110.64 52.1761 112.83C51.0301 115.02 49.7761 117.174 48.5281 119.298C47.2801 121.422 45.9601 123.54 44.5381 125.568Z" fill="#263238"/>
<path d="M57.144 102.222C57.3547 101.833 57.5913 101.458 57.852 101.1C57.984 100.92 58.104 100.74 58.242 100.572C58.3732 100.391 58.5134 100.217 58.662 100.05C58.554 100.483 58.3624 100.891 58.098 101.25C57.843 101.63 57.5195 101.96 57.144 102.222Z" fill="#263238"/>
<path d="M92.19 108.69C91.59 104.664 90.39 99.042 88.926 97.89C87.462 96.738 81.852 92.592 80.262 92.058C78.672 91.524 71.556 88.908 70.26 89.658C69.228 90.258 70.494 92.994 73.86 94.272C75.6952 95.0101 77.4844 95.8576 79.218 96.81C80.088 97.17 82.218 99.948 81.618 101.19C81.294 101.922 79.176 102.804 77.85 102.222C76.524 101.64 76.17 99.03 74.652 97.812C73.134 96.594 70.452 96.774 70.326 97.494C70.2 98.214 71.064 98.544 72.45 100.968C73.344 102.528 73.44 106.296 75.45 108.972C76.4806 110.559 77.4124 112.208 78.24 113.91L92.19 108.69Z" fill="#AD6359"/>
<path d="M73.2717 96.72C72.782 96.6488 72.3224 96.4408 71.9457 96.12C71.7966 95.9734 71.6908 95.7887 71.6397 95.586C71.6247 95.4745 71.6247 95.3615 71.6397 95.25C71.6429 95.1307 71.6875 95.0162 71.7657 94.926C71.7657 94.872 71.7657 94.926 71.7657 94.926C71.7291 94.9824 71.689 95.0365 71.6457 95.088C71.6138 95.1347 71.5876 95.1851 71.5677 95.238C71.5317 95.3443 71.5135 95.4558 71.5137 95.568C71.5286 95.8164 71.6257 96.0528 71.7897 96.24C71.9845 96.4396 72.223 96.5912 72.4865 96.6828C72.7499 96.7744 73.031 96.8036 73.3077 96.768C73.3077 96.768 73.2957 96.726 73.2717 96.72Z" fill="#263238"/>
<path d="M88.9258 97.878C87.6238 95.874 84.2998 92.28 81.0358 91.062C78.8278 90.246 71.2978 94.008 71.5378 95.454C71.7778 96.9 73.0618 96.888 74.9758 96.654C75.6718 96.564 79.3438 95.196 79.9798 95.964C80.8978 97.068 82.0858 100.854 82.0858 100.854L88.9258 97.878Z" fill="#AD6359"/>
<path d="M71.7178 94.884C72.6358 93.33 74.6818 92.484 76.7218 91.806C76.7218 91.806 76.7698 91.842 76.7218 91.854C76.1998 92.028 72.8878 93.594 71.7238 94.908C71.7298 94.926 71.7058 94.902 71.7178 94.884Z" fill="#263238"/>
<path d="M88.9258 97.878C87.6238 95.874 84.2998 92.28 81.0358 91.062C78.8278 90.246 72.8938 95.022 73.1278 96.462C73.3618 97.902 75.2218 97.998 77.2678 97.266C77.9278 97.026 80.1358 95.436 80.7718 96.204C81.6838 97.308 83.9158 100.044 83.9158 100.044L88.9258 97.878Z" fill="#AD6359"/>
<path d="M82.6259 98.352C82.4219 98.04 82.3499 97.926 82.1339 97.614C81.9179 97.302 81.6959 97.014 81.4619 96.702C81.2768 96.428 81.0453 96.1884 80.7779 95.994C80.5014 95.8372 80.1801 95.778 79.8659 95.826C79.1611 95.9795 78.4966 96.28 77.9159 96.708C76.9767 97.2996 75.8937 97.6232 74.7839 97.644C74.4898 97.6278 74.202 97.5523 73.9379 97.422C73.7384 97.3332 73.5634 97.1973 73.4279 97.026C72.9539 96.24 73.5239 95.334 74.1119 94.692C75.2673 93.5246 76.6254 92.5772 78.1199 91.896L79.1819 91.38C79.5822 91.1625 80.0237 91.0316 80.4779 90.996C81.2219 90.996 82.4459 91.728 82.8299 91.95C82.8299 91.95 82.8779 91.92 82.8299 91.902C82.3739 91.626 81.2279 90.702 80.0279 90.78C79.5913 90.8516 79.1708 90.9999 78.7859 91.218C78.3659 91.398 77.9579 91.602 77.5499 91.818C76.7575 92.2188 75.9973 92.6802 75.2759 93.198C74.5535 93.678 73.9268 94.2884 73.4279 94.998C73.2172 95.3116 73.0959 95.6767 73.0769 96.054C73.0578 96.4313 73.1418 96.8067 73.3199 97.14C73.4806 97.3492 73.6854 97.5206 73.9198 97.6419C74.1541 97.7632 74.4122 97.8315 74.6759 97.842C74.9905 97.8838 75.3093 97.8838 75.6239 97.842C76.3194 97.6914 77.0032 97.4909 77.6699 97.242C78.3179 96.978 78.8999 96.534 79.5719 96.324C79.7292 96.2671 79.8964 96.2425 80.0634 96.2518C80.2304 96.2611 80.3939 96.304 80.5439 96.378C80.818 96.5597 81.0646 96.78 81.2759 97.032C81.7184 97.4684 82.1201 97.9444 82.4759 98.454C82.6199 98.532 82.7159 98.484 82.6259 98.352Z" fill="#263238"/>
<path d="M89.898 99.6C89.418 98.646 88.578 94.704 87.804 93.504C87.03 92.304 83.502 88.146 81.882 88.344C79.842 88.59 82.008 92.25 83.082 93.744C84.156 95.238 84.012 97.83 84.012 97.83L89.898 99.6Z" fill="#AD6359"/>
<path d="M81.5998 91.284C81.9795 91.7715 82.334 92.2782 82.6618 92.802C83.0068 93.2774 83.3175 93.7766 83.5918 94.296C83.8233 94.8368 83.9612 95.413 83.9998 96C84.0298 96.288 84.0418 96.6 84.0478 96.858C84.0538 97.116 84.0478 97.458 84.0478 97.794C84.0478 97.824 83.9938 97.83 83.9938 97.794C83.9492 97.2255 83.869 96.6604 83.7538 96.102C83.6464 95.5227 83.4691 94.9586 83.2258 94.422C82.7338 93.36 82.0258 92.412 81.5278 91.35C81.4858 91.278 81.5458 91.248 81.5998 91.284Z" fill="#263238"/>
<path d="M84 98.298C84.0802 99.284 83.911 100.274 83.508 101.178C83.3233 101.635 83.1088 102.08 82.866 102.51C82.6113 102.926 82.3328 103.326 82.032 103.71C80.8228 105.183 80.0552 106.967 79.818 108.858C79.736 107.878 79.8482 106.891 80.148 105.954C80.4658 105.015 80.9406 104.136 81.552 103.356C82.1359 102.61 82.6406 101.806 83.058 100.956C83.5161 100.128 83.8343 99.2298 84 98.298Z" fill="#263238"/>
<path d="M88.9618 131.922C84.9778 131.382 82.3618 124.722 77.8258 113.01C77.0278 110.952 87.4258 98.316 88.8538 100.2C90.6538 102.6 95.4538 115.8 95.9398 119.4C96.9358 126.516 93.5998 132.546 88.9618 131.922Z" fill="#AD6359"/>
<path d="M80.2319 119.544L93.0659 107.07C93.0659 107.07 96.7139 117.804 96.3719 122.304C96.0299 126.804 94.4639 131.904 89.0459 132.216C84.9899 132.426 80.2319 119.544 80.2319 119.544Z" fill="url(#paint17_linear_232_2752)"/>
<path d="M84.3779 128.178C83.9159 127.524 83.5019 126.834 83.0999 126.144C82.6979 125.454 82.3259 124.74 81.9599 124.026C81.5939 123.312 81.2699 122.586 80.9699 121.836C80.6576 121.095 80.4107 120.328 80.2319 119.544C80.5679 120.27 80.9279 120.984 81.2879 121.692L82.3679 123.828C82.7159 124.542 83.0699 125.256 83.4059 125.982C83.7419 126.708 84.0779 127.434 84.3779 128.178Z" fill="#263238"/>
<path d="M82.9917 121.722C83.5917 121.038 84.2997 120.402 84.9597 119.754C85.6197 119.106 86.2917 118.47 86.9697 117.84C88.3257 116.572 89.6897 115.32 91.0617 114.084C91.4397 113.748 91.8177 113.406 92.2017 113.076C92.5857 112.746 93.0657 112.416 93.4677 112.062C93.4744 112.059 93.482 112.058 93.4893 112.059C93.4967 112.06 93.5034 112.064 93.5087 112.069C93.514 112.074 93.5175 112.081 93.5187 112.088C93.52 112.096 93.5189 112.103 93.5157 112.11C93.1857 112.422 92.9157 112.788 92.5797 113.112C92.2437 113.436 91.9077 113.772 91.5657 114.096L89.5497 116.004C88.1937 117.264 86.8377 118.524 85.4457 119.742C84.6597 120.432 83.8857 121.146 83.0457 121.788C83.0371 121.79 83.0282 121.789 83.0199 121.786C83.0116 121.783 83.0042 121.778 82.9986 121.771C82.9931 121.765 82.9895 121.756 82.9883 121.748C82.987 121.739 82.9882 121.73 82.9917 121.722Z" fill="#263238"/>
<path d="M59.5439 89.946C59.5439 89.946 61.8719 95.868 62.6399 96.546C63.4079 97.224 69.9419 96.846 70.0859 96.306C70.2299 95.766 67.3319 90.378 67.3319 90.378C65.9045 89.6992 64.3694 89.2748 62.7959 89.124C61.6499 89.0187 60.5023 89.3087 59.5439 89.946Z" fill="#AD6359"/>
<path d="M60.0898 90.336C60.1858 90.996 62.8918 95.496 66.4738 95.274C68.5618 95.148 67.1398 90.99 67.1398 90.99L68.9398 85.308L62.0638 80.052C62.0638 80.052 60.0538 90.06 60.0898 90.336Z" fill="#AD6359"/>
<path d="M61.332 83.79C61.793 85.2816 62.5554 86.6626 63.572 87.8475C64.5886 89.0323 65.8378 89.9958 67.242 90.678L68.946 85.308L62.07 80.052C62.07 80.052 61.734 81.744 61.332 83.79Z" fill="#263238"/>
<path d="M77.0457 77.322C77.2497 87.09 71.4237 88.314 69.3177 88.356C67.4037 88.398 60.9177 88.278 59.6757 78.582C58.4337 68.886 62.9397 65.706 67.3077 65.382C71.6757 65.058 76.8417 67.548 77.0457 77.322Z" fill="#AD6359"/>
<path d="M74.754 76.536C74.535 76.485 74.3187 76.423 74.106 76.35C73.877 76.3112 73.6666 76.1997 73.506 76.032C73.4647 75.9667 73.4459 75.8898 73.4524 75.8129C73.4589 75.736 73.4904 75.6633 73.542 75.606C73.6601 75.5092 73.8017 75.4455 73.9524 75.4212C74.1031 75.397 74.2575 75.4131 74.4 75.468C74.7086 75.5373 74.9802 75.7191 75.162 75.978C75.2016 76.041 75.2213 76.1145 75.2187 76.1889C75.2161 76.2633 75.1912 76.3352 75.1472 76.3953C75.1033 76.4554 75.0423 76.501 74.9722 76.526C74.9021 76.5511 74.8261 76.5546 74.754 76.536Z" fill="#263238"/>
<path d="M68.0639 76.236C68.2876 76.2207 68.5101 76.1907 68.7299 76.146C68.9703 76.1478 69.2046 76.0697 69.3959 75.924C69.4426 75.8639 69.4679 75.7901 69.4679 75.714C69.4679 75.6379 69.4426 75.564 69.3959 75.504C69.2933 75.3892 69.1618 75.3042 69.015 75.2577C68.8683 75.2113 68.7118 75.2051 68.5619 75.24C68.2741 75.269 68.005 75.3961 67.7999 75.6C67.7474 75.652 67.7117 75.7185 67.6972 75.7909C67.6827 75.8633 67.6901 75.9384 67.7184 76.0066C67.7467 76.0748 67.7947 76.1331 67.8562 76.1739C67.9177 76.2148 67.99 76.2364 68.0639 76.236Z" fill="#263238"/>
<path d="M69.2758 78.804C69.2758 78.804 69.2218 78.804 69.2218 78.858C69.2218 79.524 69.0778 80.286 68.4658 80.478V80.514C69.2098 80.448 69.3658 79.44 69.2758 78.804Z" fill="#263238"/>
<path d="M68.7177 78.078C67.6497 77.946 67.4577 80.082 68.4417 80.208C69.4257 80.334 69.5997 78.192 68.7177 78.078Z" fill="#263238"/>
<path d="M68.286 78.156C68.088 78.258 67.884 78.456 67.686 78.456C67.488 78.456 67.248 78.216 67.086 77.988C67.086 77.988 67.05 77.988 67.044 77.988C67.002 78.396 67.122 78.828 67.554 78.93C67.986 79.032 68.274 78.684 68.412 78.282C68.4 78.234 68.364 78.114 68.286 78.156Z" fill="#263238"/>
<path d="M73.2897 78.87C73.2897 78.87 73.3377 78.906 73.3377 78.936C73.2477 79.596 73.2597 80.364 73.8417 80.646C73.8417 80.646 73.8417 80.688 73.8417 80.682C73.1097 80.508 73.1037 79.482 73.2897 78.87Z" fill="#263238"/>
<path d="M73.9497 78.24C75.0237 78.24 74.8977 80.406 73.9017 80.382C72.9057 80.358 73.0497 78.216 73.9497 78.24Z" fill="#263238"/>
<path d="M74.4 78.408C74.562 78.528 74.718 78.744 74.922 78.768C75.126 78.792 75.342 78.576 75.522 78.366C75.522 78.366 75.558 78.366 75.552 78.366C75.552 78.774 75.384 79.194 74.952 79.248C74.52 79.302 74.352 78.936 74.274 78.522C74.256 78.468 74.322 78.354 74.4 78.408Z" fill="#263238"/>
<path d="M72.2277 81.732C72.2277 81.732 72.2817 82.734 72.2277 83.202C72.2277 83.244 72.1137 83.256 71.9517 83.256C71.5445 83.2958 71.1341 83.2234 70.765 83.0468C70.396 82.8702 70.0822 82.5961 69.8577 82.254C69.8277 82.206 69.8937 82.164 69.9357 82.194C70.4975 82.6502 71.1924 82.9113 71.9157 82.938C71.9577 82.812 71.7597 81.222 71.8317 81.222C72.192 81.2853 72.5428 81.3942 72.8757 81.546C72.8097 79.458 72.4137 77.394 72.3837 75.312C72.3879 75.2986 72.3962 75.2868 72.4076 75.2785C72.4189 75.2702 72.4326 75.2657 72.4467 75.2657C72.4607 75.2657 72.4744 75.2702 72.4858 75.2785C72.4971 75.2868 72.5055 75.2986 72.5097 75.312C73.0013 77.5097 73.2746 79.7506 73.3257 82.002C73.3377 82.254 72.4077 81.828 72.2277 81.732Z" fill="#263238"/>
<path d="M71.6759 82.98C71.4139 83.2963 71.0751 83.5401 70.6919 83.688C70.4774 83.7573 70.2465 83.7573 70.0319 83.688C69.5639 83.55 69.5639 83.088 69.6659 82.74C69.7229 82.5459 69.8014 82.3587 69.8999 82.182C70.3907 82.6321 71.0135 82.9119 71.6759 82.98Z" fill="#263238"/>
<path d="M70.6919 83.688C70.4774 83.7573 70.2465 83.7573 70.0319 83.688C69.5639 83.55 69.5639 83.088 69.6659 82.74C69.9186 82.7598 70.1572 82.8641 70.3433 83.0361C70.5295 83.208 70.6523 83.4377 70.6919 83.688Z" fill="#FF9ABB"/>
<path d="M59.598 78.756C60.678 78.756 63.654 75.924 64.014 70.71C64.014 70.71 63.366 75.372 62.976 76.038C62.586 76.704 64.638 74.448 64.992 70.248C66.2664 71.2688 67.6809 72.1012 69.192 72.72C71.148 73.38 72.366 73.428 72.516 73.32C72.666 73.212 69.786 72.12 69.048 71.154C69.048 71.154 74.202 73.896 76.626 74.214C76.908 74.25 77.556 68.472 73.92 65.814C70.284 63.156 64.176 65.49 62.52 66.954C62.52 66.954 60.618 67.122 58.422 69.798C56.226 72.474 58.428 78.762 59.598 78.756Z" fill="#263238"/>
<path d="M65.1296 69.714C65.1296 69.594 64.9376 69.594 64.9436 69.714C64.9783 71.6227 64.6125 73.5175 63.8696 75.276C63.8696 75.276 63.9056 75.318 63.9176 75.276C64.7996 73.494 65.3996 71.736 65.1296 69.714Z" fill="#263238"/>
<path d="M71.7417 73.566C68.9277 73.08 66.5397 72.06 64.7637 69.75C64.7277 69.702 64.6437 69.75 64.6797 69.798C66.1077 72.294 68.9697 73.44 71.7297 73.674C71.7837 73.68 71.8017 73.578 71.7417 73.566Z" fill="#263238"/>
<path d="M61.332 78.636C61.332 78.636 59.406 75.45 57.972 76.122C56.538 76.794 57.852 81.306 59.436 82.014C59.6323 82.1195 59.848 82.1841 60.07 82.204C60.292 82.2239 60.5158 82.1986 60.7277 82.1296C60.9397 82.0606 61.1355 81.9495 61.3033 81.8027C61.471 81.656 61.6074 81.4768 61.704 81.276L61.332 78.636Z" fill="#AD6359"/>
<path d="M58.3799 77.4C58.3799 77.4 58.3799 77.43 58.3799 77.442C59.4899 77.976 60.0179 79.068 60.3659 80.19C60.3072 80.0714 60.2234 79.9669 60.1202 79.8839C60.0171 79.8009 59.8972 79.7414 59.7687 79.7094C59.6402 79.6774 59.5064 79.6738 59.3764 79.6988C59.2464 79.7237 59.1233 79.7767 59.0159 79.854C59.0159 79.854 59.0159 79.92 59.0159 79.914C59.2196 79.8641 59.4338 79.8783 59.6292 79.9545C59.8246 80.0307 59.9918 80.1654 60.1079 80.34C60.299 80.6362 60.4579 80.952 60.5819 81.282C60.6299 81.384 60.8159 81.342 60.7859 81.222C60.9179 79.758 59.9279 77.652 58.3799 77.4Z" fill="#263238"/>
<path d="M69.8038 94.926L64.4038 111.684C64.1878 112.17 64.4038 112.596 64.9018 112.626L73.6918 113.226C73.9616 113.224 74.2252 113.145 74.4516 112.998C74.678 112.852 74.8578 112.643 74.9698 112.398L80.3698 95.646C80.4345 95.5552 80.4726 95.4482 80.4799 95.3369C80.4872 95.2257 80.4633 95.1146 80.411 95.0162C80.3586 94.9177 80.2799 94.8358 80.1836 94.7796C80.0873 94.7234 79.9773 94.6952 79.8658 94.698L71.0758 94.098C70.8076 94.1032 70.5462 94.1836 70.3213 94.3299C70.0964 94.4763 69.9172 94.6828 69.8038 94.926Z" fill="#37474F"/>
<path d="M70.8478 94.986L65.4478 111.744C65.2318 112.23 65.4478 112.656 65.9458 112.686L74.7358 113.286C75.0052 113.283 75.2682 113.203 75.4943 113.057C75.7205 112.91 75.9006 112.703 76.0138 112.458L81.4138 95.7C81.4765 95.6097 81.5131 95.5038 81.5197 95.3941C81.5263 95.2843 81.5026 95.1748 81.4512 95.0776C81.3998 94.9804 81.3227 94.8991 81.2283 94.8428C81.1338 94.7864 81.0257 94.7571 80.9158 94.758L72.1198 94.158C71.8515 94.1632 71.5901 94.2436 71.3652 94.3899C71.1404 94.5363 70.9611 94.7428 70.8478 94.986Z" fill="#455A64"/>
<path d="M73.1997 95.922C73.1861 96.0683 73.1296 96.2073 73.0371 96.3215C72.9447 96.4357 72.8206 96.5199 72.6803 96.5636C72.5401 96.6074 72.39 96.6086 72.2491 96.5672C72.1081 96.5258 71.9826 96.4436 71.8883 96.3309C71.794 96.2183 71.7352 96.0802 71.7192 95.9342C71.7033 95.7882 71.7309 95.6407 71.7986 95.5103C71.8664 95.38 71.9712 95.2726 72.0999 95.2017C72.2285 95.1308 72.3753 95.0996 72.5217 95.112C72.6195 95.1203 72.7148 95.1479 72.8019 95.1932C72.889 95.2385 72.9663 95.3005 73.0294 95.3758C73.0924 95.4511 73.1399 95.5382 73.1691 95.6319C73.1983 95.7257 73.2087 95.8243 73.1997 95.922Z" fill="#263238"/>
<path d="M36.4497 132.258C40.2897 132.786 45.0717 129.804 57.4797 120.744C59.2017 119.496 53.6157 104.994 51.7077 106.242C49.3077 107.808 40.3557 114.408 39.7617 114.972C34.7517 119.742 33.8457 131.904 36.4497 132.258Z" fill="#AD6359"/>
<path d="M47.2798 110.628C47.2798 110.628 50.8138 105.666 53.4778 103.638C56.2925 101.599 59.56 100.273 62.9998 99.774C66.7138 99.228 76.0858 100.476 76.1998 103.236C76.2958 105.738 66.7858 103.98 66.7858 103.98C66.7858 103.98 76.7818 104.172 76.3498 107.202C75.9178 110.232 64.9918 107.562 64.9918 107.562C64.9918 107.562 75.2578 107.994 74.3158 111.048C73.6078 113.358 63.5698 111.498 63.5698 111.498C63.5698 111.498 72.3958 111.93 71.7658 114.336C71.0698 116.994 61.7038 115.86 61.7038 115.86C59.0758 121.704 55.3078 123.354 52.5718 124.26C51.9358 124.482 47.2798 110.628 47.2798 110.628Z" fill="#AD6359"/>
<path d="M63.3538 103.692C64.5538 103.692 65.7178 103.644 66.8938 103.728C68.0698 103.812 69.2398 103.938 70.3978 104.13C71.9186 104.36 73.4083 104.762 74.8378 105.33C72.2278 104.52 68.0338 104.13 66.8578 104.064C65.6818 103.998 64.5238 103.836 63.3538 103.752C63.3238 103.734 63.3298 103.692 63.3538 103.692Z" fill="#263238"/>
<path d="M63.0001 107.916C64.5001 107.958 66.0001 107.916 67.4941 108.048C68.9881 108.18 70.3921 108.384 71.8741 108.594C71.9881 108.594 71.9401 108.666 71.8261 108.654C70.3381 108.504 68.9521 108.48 67.4581 108.348C65.9641 108.216 64.4581 108.03 62.9941 107.952C62.9461 107.952 62.9521 107.916 63.0001 107.916Z" fill="#263238"/>
<path d="M61.9918 111.486C64.2961 111.49 66.5941 111.729 68.8498 112.2C68.9638 112.2 68.8918 112.29 68.7778 112.272C66.5038 111.99 64.7218 111.75 61.9918 111.558C61.9498 111.564 61.9438 111.492 61.9918 111.486Z" fill="#263238"/>
<path d="M47.28 108.654L52.2 126.474C52.2 126.474 39.078 134.196 36.18 132.15C33.282 130.104 35.178 119.82 38.46 115.896C39.798 114.264 47.28 108.654 47.28 108.654Z" fill="url(#paint18_linear_232_2752)"/>
<path d="M47.4419 109.248L47.2499 108.648H47.2979C46.0559 109.662 44.8139 110.664 43.5899 111.684C42.3659 112.704 41.1359 113.724 39.9899 114.804C39.3983 115.328 38.8412 115.889 38.3219 116.484C37.8276 117.096 37.386 117.748 37.0019 118.434C36.2324 119.842 35.6917 121.363 35.3999 122.94C35.5267 121.328 35.9626 119.755 36.6839 118.308C37.0463 117.58 37.4848 116.892 37.9919 116.256C38.5115 115.635 39.0728 115.049 39.6719 114.504C40.8719 113.424 42.0719 112.416 43.3679 111.432C44.6639 110.448 45.9359 109.518 47.2679 108.63H47.3039V108.672L47.4419 109.248Z" fill="#263238"/>
<path d="M44.3998 113.076C44.6998 113.952 44.9218 114.876 45.1738 115.746C45.4258 116.616 45.6598 117.546 45.8878 118.428C46.3378 120.228 46.7818 122.028 47.2078 123.828C47.3218 124.32 47.4358 124.818 47.5438 125.31C47.6518 125.802 47.7058 126.384 47.8198 126.912C47.8198 126.916 47.819 126.92 47.8175 126.923C47.816 126.927 47.8138 126.93 47.811 126.933C47.8082 126.936 47.8049 126.938 47.8013 126.94C47.7976 126.941 47.7937 126.942 47.7898 126.942C47.7859 126.942 47.782 126.941 47.7783 126.94C47.7747 126.938 47.7714 126.936 47.7686 126.933C47.7658 126.93 47.7636 126.927 47.7621 126.923C47.7606 126.92 47.7598 126.916 47.7598 126.912C47.6398 126.474 47.4538 126.048 47.3278 125.616C47.2018 125.184 47.0698 124.704 46.9498 124.248C46.7158 123.354 46.4818 122.448 46.2538 121.56C45.7978 119.76 45.3478 117.96 44.9518 116.16C44.7238 115.134 44.4718 114.114 44.3038 113.082C44.303 113.069 44.3073 113.057 44.3157 113.047C44.3242 113.038 44.3361 113.032 44.3488 113.031C44.3615 113.03 44.3741 113.034 44.3836 113.043C44.3932 113.051 44.399 113.063 44.3998 113.076Z" fill="#263238"/>
<path d="M52.1999 126.474C52.2839 126.642 52.2779 126.474 52.2599 126.396C52.2419 126.318 52.0379 125.43 51.8519 124.89C51.8519 124.836 51.7499 124.74 51.7799 124.932C51.8914 125.453 52.0316 125.968 52.1999 126.474Z" fill="#263238"/>
<defs>
<linearGradient id="paint0_linear_232_2752" x1="229.059" y1="204.289" x2="229.059" y2="230.517" gradientUnits="userSpaceOnUse">
<stop stop-color="#5FB6E3"/>
<stop offset="1" stop-color="#B6568E"/>
</linearGradient>
<linearGradient id="paint1_linear_232_2752" x1="227.64" y1="181.967" x2="227.64" y2="201.504" gradientUnits="userSpaceOnUse">
<stop stop-color="#5FB6E3"/>
<stop offset="1" stop-color="#B6568E"/>
</linearGradient>
<linearGradient id="paint2_linear_232_2752" x1="257.623" y1="163.519" x2="257.623" y2="199.471" gradientUnits="userSpaceOnUse">
<stop stop-color="#5FB6E3"/>
<stop offset="1" stop-color="#B6568E"/>
</linearGradient>
<linearGradient id="paint3_linear_232_2752" x1="258.711" y1="200.535" x2="258.711" y2="218.886" gradientUnits="userSpaceOnUse">
<stop stop-color="#5FB6E3"/>
<stop offset="1" stop-color="#B6568E"/>
</linearGradient>
<linearGradient id="paint4_linear_232_2752" x1="136.017" y1="128.952" x2="136.017" y2="179.322" gradientUnits="userSpaceOnUse">
<stop stop-color="#5FB6E3"/>
<stop offset="1" stop-color="#B6568E"/>
</linearGradient>
<linearGradient id="paint5_linear_232_2752" x1="183.993" y1="223.38" x2="183.993" y2="249.762" gradientUnits="userSpaceOnUse">
<stop stop-color="#5FB6E3"/>
<stop offset="1" stop-color="#B6568E"/>
</linearGradient>
<linearGradient id="paint6_linear_232_2752" x1="120.378" y1="205.782" x2="120.378" y2="223.542" gradientUnits="userSpaceOnUse">
<stop stop-color="#5FB6E3"/>
<stop offset="1" stop-color="#B6568E"/>
</linearGradient>
<linearGradient id="paint7_linear_232_2752" x1="192.258" y1="99.642" x2="192.258" y2="129.21" gradientUnits="userSpaceOnUse">
<stop stop-color="#5FB6E3"/>
<stop offset="1" stop-color="#B6568E"/>
</linearGradient>
<linearGradient id="paint8_linear_232_2752" x1="175.671" y1="69.126" x2="175.671" y2="83.79" gradientUnits="userSpaceOnUse">
<stop stop-color="#5FB6E3"/>
<stop offset="1" stop-color="#B6568E"/>
</linearGradient>
<linearGradient id="paint9_linear_232_2752" x1="153.714" y1="66.288" x2="153.714" y2="197.592" gradientUnits="userSpaceOnUse">
<stop stop-color="#5FB6E3"/>
<stop offset="1" stop-color="#B6568E"/>
</linearGradient>
<linearGradient id="paint10_linear_232_2752" x1="141.922" y1="55.2" x2="141.922" y2="67.794" gradientUnits="userSpaceOnUse">
<stop stop-color="#5FB6E3"/>
<stop offset="1" stop-color="#B6568E"/>
</linearGradient>
<linearGradient id="paint11_linear_232_2752" x1="133.689" y1="240.864" x2="133.689" y2="253.458" gradientUnits="userSpaceOnUse">
<stop stop-color="#5FB6E3"/>
<stop offset="1" stop-color="#B6568E"/>
</linearGradient>
<linearGradient id="paint12_linear_232_2752" x1="199.739" y1="159.408" x2="214.488" y2="186.765" gradientUnits="userSpaceOnUse">
<stop stop-color="#5FB6E3"/>
<stop offset="1" stop-color="#B6568E"/>
</linearGradient>
<linearGradient id="paint13_linear_232_2752" x1="154.096" y1="166.8" x2="154.096" y2="179.394" gradientUnits="userSpaceOnUse">
<stop stop-color="#5FB6E3"/>
<stop offset="1" stop-color="#B6568E"/>
</linearGradient>
<linearGradient id="paint14_linear_232_2752" x1="80.8428" y1="90.1053" x2="80.8428" y2="132.216" gradientUnits="userSpaceOnUse">
<stop stop-color="#5FB6E3"/>
<stop offset="1" stop-color="#B6568E"/>
</linearGradient>
<linearGradient id="paint15_linear_232_2752" x1="63.4237" y1="88.7593" x2="63.4237" y2="126.474" gradientUnits="userSpaceOnUse">
<stop stop-color="#5FB6E3"/>
<stop offset="1" stop-color="#B6568E"/>
</linearGradient>
<linearGradient id="paint16_linear_232_2752" x1="47.1936" y1="89.9752" x2="47.1936" y2="132.324" gradientUnits="userSpaceOnUse">
<stop stop-color="#5FB6E3"/>
<stop offset="1" stop-color="#B6568E"/>
</linearGradient>
<linearGradient id="paint17_linear_232_2752" x1="88.3132" y1="107.07" x2="88.3132" y2="132.219" gradientUnits="userSpaceOnUse">
<stop stop-color="#5FB6E3"/>
<stop offset="1" stop-color="#B6568E"/>
</linearGradient>
<linearGradient id="paint18_linear_232_2752" x1="43.4762" y1="108.654" x2="43.4762" y2="132.495" gradientUnits="userSpaceOnUse">
<stop stop-color="#5FB6E3"/>
<stop offset="1" stop-color="#B6568E"/>
</linearGradient>
</defs>
</svg>
