<svg width="120" height="120" viewBox="0 0 120 120" fill="none" xmlns="http://www.w3.org/2000/svg">
<circle opacity="0.1" cx="60" cy="60" r="60" fill="url(#paint0_linear_224_11433)"/>
<g opacity="0.2">
<path d="M60 54.5C66.2132 54.5 71.25 49.5751 71.25 43.5C71.25 37.4249 66.2132 32.5 60 32.5C53.7868 32.5 48.75 37.4249 48.75 43.5C48.75 49.5751 53.7868 54.5 60 54.5Z" fill="url(#paint1_linear_224_11433)"/>
<path d="M82.5 75.125C82.5 81.9587 82.5 87.5 60 87.5C37.5 87.5 37.5 81.9587 37.5 75.125C37.5 68.2912 47.5744 62.75 60 62.75C72.4256 62.75 82.5 68.2912 82.5 75.125Z" fill="url(#paint2_linear_224_11433)"/>
</g>
<linearGradient id="paint0_linear_224_11433" x1="120" y1="60" x2="0" y2="60" gradientUnits="userSpaceOnUse">
<stop stop-color="#5FB6E3"/>
<stop offset="1" stop-color="#B6568E"/>
</linearGradient>
<linearGradient id="paint1_linear_224_11433" x1="82.5" y1="60" x2="37.5" y2="60" gradientUnits="userSpaceOnUse">
<stop stop-color="#5FB6E3"/>
<stop offset="1" stop-color="#B6568E"/>
</linearGradient>
<linearGradient id="paint2_linear_224_11433" x1="82.5" y1="60" x2="37.5" y2="60" gradientUnits="userSpaceOnUse">
<stop stop-color="#5FB6E3"/>
<stop offset="1" stop-color="#B6568E"/>
</linearGradient>
</svg>
