<svg width="56" height="56" viewBox="0 0 56 56" fill="none" xmlns="http://www.w3.org/2000/svg">
<rect width="56" height="56" rx="14" fill="url(#paint0_linear_204_4015)"/>
<path d="M23.7766 16.1277C24.4217 15.9298 25.114 15.9627 25.7382 16.2209C26.3624 16.4792 26.8809 16.9472 27.2073 17.5471L27.3164 17.7707L28.2924 19.9777C28.588 20.6478 28.6838 21.3914 28.568 22.1163C28.4521 22.8412 28.1297 23.5156 27.6407 24.0558L27.4446 24.2538L25.9069 25.7137C25.6298 25.9808 25.8376 27.0146 26.8402 28.782C27.7424 30.3724 28.4767 31.1151 28.8379 31.1556C28.88 31.1556 28.9221 31.1516 28.9635 31.1437L28.9794 31.1406L32.0017 30.1999C32.4079 30.0731 32.8414 30.0681 33.2503 30.1854C33.6592 30.3028 34.0263 30.5375 34.3075 30.8615L34.4417 31.0341L36.4423 33.8548C36.8344 34.4077 37.0298 35.08 36.9963 35.761C36.9628 36.4419 36.7024 37.091 36.258 37.6013L36.0782 37.7903L35.2791 38.5615C34.5616 39.2531 33.664 39.7204 32.693 39.9079C31.7221 40.0954 30.7187 39.9953 29.8021 39.6193C26.9493 38.449 24.3574 35.7753 22.003 31.6252C19.6441 27.4647 18.6637 23.8382 19.1015 20.7324C19.234 19.7936 19.6139 18.9088 20.2008 18.172C20.7877 17.4352 21.5598 16.874 22.4349 16.5479L22.7195 16.4518L23.7766 16.1277Z" fill="url(#paint1_linear_204_4015)"/>
<defs>
<linearGradient id="paint0_linear_204_4015" x1="56" y1="28" x2="0" y2="28" gradientUnits="userSpaceOnUse">
<stop stop-color="#EFF7FC"/>
<stop offset="1" stop-color="#F8EEF4"/>
</linearGradient>
<linearGradient id="paint1_linear_204_4015" x1="37" y1="28" x2="19" y2="28" gradientUnits="userSpaceOnUse">
<stop stop-color="#5FB6E3"/>
<stop offset="1" stop-color="#B6568E"/>
</linearGradient>
</defs>
</svg>
