<svg width="56" height="56" viewBox="0 0 56 56" fill="none" xmlns="http://www.w3.org/2000/svg">
<rect width="56" height="56" rx="14" fill="url(#paint0_linear_204_4207)"/>
<path d="M23.0419 16.917C23.0419 16.6849 22.9498 16.4624 22.7857 16.2983C22.6216 16.1342 22.399 16.042 22.1669 16.042C21.9349 16.042 21.7123 16.1342 21.5482 16.2983C21.3841 16.4624 21.2919 16.6849 21.2919 16.917V18.7603C19.6119 18.8945 18.5106 19.2235 17.7009 20.0343C16.8901 20.844 16.5611 21.9465 16.4258 23.6253H39.5748C39.4394 21.9453 39.1104 20.844 38.2996 20.0343C37.4899 19.2235 36.3874 18.8945 34.7086 18.7592V16.917C34.7086 16.6849 34.6164 16.4624 34.4523 16.2983C34.2882 16.1342 34.0657 16.042 33.8336 16.042C33.6015 16.042 33.379 16.1342 33.2149 16.2983C33.0508 16.4624 32.9586 16.6849 32.9586 16.917V18.6822C32.1828 18.667 31.3124 18.667 30.3336 18.667H25.6669C24.6881 18.667 23.8178 18.667 23.0419 18.6822V16.917Z" fill="url(#paint1_linear_204_4207)"/>
<path fill-rule="evenodd" clip-rule="evenodd" d="M16.334 28C16.334 27.0212 16.334 26.1508 16.3492 25.375H39.6521C39.6673 26.1508 39.6673 27.0212 39.6673 28V30.3333C39.6673 34.7328 39.6673 36.9332 38.3 38.2993C36.9326 39.6655 34.7335 39.6667 30.334 39.6667H25.6673C21.2678 39.6667 19.0675 39.6667 17.7013 38.2993C16.3352 36.932 16.334 34.7328 16.334 30.3333V28ZM33.834 30.3333C34.1434 30.3333 34.4401 30.2104 34.6589 29.9916C34.8777 29.7728 35.0007 29.4761 35.0007 29.1667C35.0007 28.8572 34.8777 28.5605 34.6589 28.3417C34.4401 28.1229 34.1434 28 33.834 28C33.5246 28 33.2278 28.1229 33.009 28.3417C32.7902 28.5605 32.6673 28.8572 32.6673 29.1667C32.6673 29.4761 32.7902 29.7728 33.009 29.9916C33.2278 30.2104 33.5246 30.3333 33.834 30.3333ZM33.834 35C34.1434 35 34.4401 34.8771 34.6589 34.6583C34.8777 34.4395 35.0007 34.1428 35.0007 33.8333C35.0007 33.5239 34.8777 33.2272 34.6589 33.0084C34.4401 32.7896 34.1434 32.6667 33.834 32.6667C33.5246 32.6667 33.2278 32.7896 33.009 33.0084C32.7902 33.2272 32.6673 33.5239 32.6673 33.8333C32.6673 34.1428 32.7902 34.4395 33.009 34.6583C33.2278 34.8771 33.5246 35 33.834 35ZM29.1673 29.1667C29.1673 29.4761 29.0444 29.7728 28.8256 29.9916C28.6068 30.2104 28.3101 30.3333 28.0007 30.3333C27.6912 30.3333 27.3945 30.2104 27.1757 29.9916C26.9569 29.7728 26.834 29.4761 26.834 29.1667C26.834 28.8572 26.9569 28.5605 27.1757 28.3417C27.3945 28.1229 27.6912 28 28.0007 28C28.3101 28 28.6068 28.1229 28.8256 28.3417C29.0444 28.5605 29.1673 28.8572 29.1673 29.1667ZM29.1673 33.8333C29.1673 34.1428 29.0444 34.4395 28.8256 34.6583C28.6068 34.8771 28.3101 35 28.0007 35C27.6912 35 27.3945 34.8771 27.1757 34.6583C26.9569 34.4395 26.834 34.1428 26.834 33.8333C26.834 33.5239 26.9569 33.2272 27.1757 33.0084C27.3945 32.7896 27.6912 32.6667 28.0007 32.6667C28.3101 32.6667 28.6068 32.7896 28.8256 33.0084C29.0444 33.2272 29.1673 33.5239 29.1673 33.8333ZM22.1673 30.3333C22.4767 30.3333 22.7735 30.2104 22.9923 29.9916C23.2111 29.7728 23.334 29.4761 23.334 29.1667C23.334 28.8572 23.2111 28.5605 22.9923 28.3417C22.7735 28.1229 22.4767 28 22.1673 28C21.8579 28 21.5612 28.1229 21.3424 28.3417C21.1236 28.5605 21.0007 28.8572 21.0007 29.1667C21.0007 29.4761 21.1236 29.7728 21.3424 29.9916C21.5612 30.2104 21.8579 30.3333 22.1673 30.3333ZM22.1673 35C22.4767 35 22.7735 34.8771 22.9923 34.6583C23.2111 34.4395 23.334 34.1428 23.334 33.8333C23.334 33.5239 23.2111 33.2272 22.9923 33.0084C22.7735 32.7896 22.4767 32.6667 22.1673 32.6667C21.8579 32.6667 21.5612 32.7896 21.3424 33.0084C21.1236 33.2272 21.0007 33.5239 21.0007 33.8333C21.0007 34.1428 21.1236 34.4395 21.3424 34.6583C21.5612 34.8771 21.8579 35 22.1673 35Z" fill="url(#paint2_linear_204_4207)"/>
<defs>
<linearGradient id="paint0_linear_204_4207" x1="56" y1="28" x2="0" y2="28" gradientUnits="userSpaceOnUse">
<stop stop-color="#EFF7FC"/>
<stop offset="1" stop-color="#F8EEF4"/>
</linearGradient>
<linearGradient id="paint1_linear_204_4207" x1="39.5748" y1="19.8337" x2="16.4258" y2="19.8337" gradientUnits="userSpaceOnUse">
<stop stop-color="#5FB6E3"/>
<stop offset="1" stop-color="#B6568E"/>
</linearGradient>
<linearGradient id="paint2_linear_204_4207" x1="39.6673" y1="32.5208" x2="16.334" y2="32.5208" gradientUnits="userSpaceOnUse">
<stop stop-color="#5FB6E3"/>
<stop offset="1" stop-color="#B6568E"/>
</linearGradient>
</defs>
</svg>
