<svg width="56" height="56" viewBox="0 0 56 56" fill="none" xmlns="http://www.w3.org/2000/svg">
<rect width="56" height="56" rx="14" fill="url(#paint0_linear_204_4031)"/>
<path d="M34.3 17H21.7C20.1883 17 18.7384 17.5951 17.6695 18.6545C16.6005 19.7138 16 21.1505 16 22.6486V33.3514C16 34.0931 16.1474 34.8277 16.4339 35.513C16.7203 36.1983 17.1402 36.821 17.6695 37.3455C18.7384 38.4049 20.1883 39 21.7 39H34.3C35.8108 38.9969 37.2587 38.4007 38.327 37.3421C39.3953 36.2834 39.9968 34.8485 40 33.3514V22.6486C39.9968 21.1515 39.3953 19.7166 38.327 18.6579C37.2587 17.5993 35.8108 17.0031 34.3 17ZM29.92 26.8941C29.3296 27.2277 28.6617 27.4032 27.982 27.4032C27.3023 27.4032 26.6344 27.2277 26.044 26.8941L17.824 22.2205C17.9303 21.2755 18.3844 20.4024 19.0995 19.7684C19.8146 19.1343 20.7405 18.7838 21.7 18.7838H34.3C35.2588 18.7864 36.1832 19.1378 36.8978 19.7714C37.6123 20.405 38.0672 21.2765 38.176 22.2205L29.92 26.8941Z" fill="url(#paint1_linear_204_4031)"/>
<defs>
<linearGradient id="paint0_linear_204_4031" x1="56" y1="28" x2="0" y2="28" gradientUnits="userSpaceOnUse">
<stop stop-color="#EFF7FC"/>
<stop offset="1" stop-color="#F8EEF4"/>
</linearGradient>
<linearGradient id="paint1_linear_204_4031" x1="40" y1="28" x2="16" y2="28" gradientUnits="userSpaceOnUse">
<stop stop-color="#5FB6E3"/>
<stop offset="1" stop-color="#B6568E"/>
</linearGradient>
</defs>
</svg>
