<svg width="56" height="56" viewBox="0 0 56 56" fill="none" xmlns="http://www.w3.org/2000/svg">
<rect width="56" height="56" rx="14" fill="url(#paint0_linear_204_4193)"/>
<path d="M25.8008 39.4455C26.5078 40.0288 27.2452 40.562 28 41.0823C28.7565 40.5689 29.4902 40.0228 30.1992 39.4455C31.381 38.4751 32.4932 37.4229 33.5277 36.2967C35.9123 33.6892 38.5 29.9092 38.5 25.666C38.5 24.2871 38.2284 22.9218 37.7007 21.6478C37.1731 20.3739 36.3996 19.2164 35.4246 18.2414C34.4496 17.2664 33.2921 16.493 32.0182 15.9653C30.7443 15.4376 29.3789 15.166 28 15.166C26.6211 15.166 25.2557 15.4376 23.9818 15.9653C22.7079 16.493 21.5504 17.2664 20.5754 18.2414C19.6004 19.2164 18.8269 20.3739 18.2993 21.6478C17.7716 22.9218 17.5 24.2871 17.5 25.666C17.5 29.9092 20.0877 33.688 22.4723 36.2967C23.5067 37.4233 24.619 38.4747 25.8008 39.4455ZM28 29.4577C26.9944 29.4577 26.03 29.0582 25.3189 28.3471C24.6078 27.6361 24.2083 26.6716 24.2083 25.666C24.2083 24.6604 24.6078 23.696 25.3189 22.9849C26.03 22.2738 26.9944 21.8743 28 21.8743C29.0056 21.8743 29.97 22.2738 30.6811 22.9849C31.3922 23.696 31.7917 24.6604 31.7917 25.666C31.7917 26.6716 31.3922 27.6361 30.6811 28.3471C29.97 29.0582 29.0056 29.4577 28 29.4577Z" fill="url(#paint1_linear_204_4193)"/>
<defs>
<linearGradient id="paint0_linear_204_4193" x1="56" y1="28" x2="0" y2="28" gradientUnits="userSpaceOnUse">
<stop stop-color="#EFF7FC"/>
<stop offset="1" stop-color="#F8EEF4"/>
</linearGradient>
<linearGradient id="paint1_linear_204_4193" x1="38.5" y1="28.1242" x2="17.5" y2="28.1242" gradientUnits="userSpaceOnUse">
<stop stop-color="#5FB6E3"/>
<stop offset="1" stop-color="#B6568E"/>
</linearGradient>
</defs>
</svg>
