<svg width="56" height="56" viewBox="0 0 56 56" fill="none" xmlns="http://www.w3.org/2000/svg">
<rect width="56" height="56" rx="14" fill="url(#paint0_linear_204_4022)"/>
<g clip-path="url(#clip0_204_4022)">
<path d="M28.0002 29.2C30.8754 29.2 33.4902 30.0328 35.4138 31.2064C36.3738 31.792 37.1946 32.4832 37.7874 33.2344C38.3706 33.9724 38.8002 34.8556 38.8002 35.8C38.8002 36.814 38.307 37.6132 37.5966 38.1832C36.9246 38.7232 36.0378 39.0808 35.0958 39.3304C33.2022 39.8308 30.675 40 28.0002 40C25.3254 40 22.7982 39.832 20.9046 39.3304C19.9626 39.0808 19.0758 38.7232 18.4038 38.1832C17.6922 37.612 17.2002 36.814 17.2002 35.8C17.2002 34.8556 17.6298 33.9724 18.213 33.2332C18.8058 32.4832 19.6254 31.7932 20.5866 31.2052C22.5102 30.034 25.1262 29.2 28.0002 29.2ZM28.0002 16C29.5915 16 31.1176 16.6321 32.2428 17.7574C33.3681 18.8826 34.0002 20.4087 34.0002 22C34.0002 23.5913 33.3681 25.1174 32.2428 26.2426C31.1176 27.3679 29.5915 28 28.0002 28C26.4089 28 24.8828 27.3679 23.7576 26.2426C22.6323 25.1174 22.0002 23.5913 22.0002 22C22.0002 20.4087 22.6323 18.8826 23.7576 17.7574C24.8828 16.6321 26.4089 16 28.0002 16Z" fill="url(#paint1_linear_204_4022)"/>
</g>
<defs>
<linearGradient id="paint0_linear_204_4022" x1="56" y1="28" x2="0" y2="28" gradientUnits="userSpaceOnUse">
<stop stop-color="#EFF7FC"/>
<stop offset="1" stop-color="#F8EEF4"/>
</linearGradient>
<linearGradient id="paint1_linear_204_4022" x1="38.8002" y1="28" x2="17.2002" y2="28" gradientUnits="userSpaceOnUse">
<stop stop-color="#5FB6E3"/>
<stop offset="1" stop-color="#B6568E"/>
</linearGradient>
<clipPath id="clip0_204_4022">
<rect width="28" height="28" fill="white" transform="translate(14 14)"/>
</clipPath>
</defs>
</svg>
