<svg width="107" height="102" viewBox="0 0 107 102" fill="none" xmlns="http://www.w3.org/2000/svg">
<ellipse cx="52.4693" cy="57.9392" rx="41.358" ry="41.3582" fill="url(#paint0_linear_1092_10558)"/>
<ellipse cx="102.16" cy="20.5934" rx="4.01234" ry="4.01236" fill="url(#paint1_linear_1092_10558)"/>
<ellipse cx="6.48148" cy="6.70313" rx="6.48148" ry="6.17286" fill="url(#paint2_linear_1092_10558)"/>
<ellipse cx="3.08642" cy="84.4795" rx="3.08642" ry="3.085" fill="url(#paint3_linear_1092_10558)"/>
<ellipse cx="94.7522" cy="99.6055" rx="1.54321" ry="1.545" fill="url(#paint4_linear_1092_10558)"/>
<path d="M49.3964 69.1222C48.5192 69.1222 47.6422 68.7463 47.141 67.9945L40.1244 58.9731C39.122 57.7201 39.3726 55.9659 40.6256 54.9635C41.8785 53.9611 43.6327 54.2118 44.6351 55.4647L49.3964 61.6043L59.9214 47.9469C60.9238 46.6939 62.678 46.4433 63.9309 47.4457C65.1839 48.4481 65.4345 50.2022 64.4321 51.4552L51.6517 67.9945C51.0252 68.621 50.2735 69.1222 49.3964 69.1222Z" fill="white"/>
<ellipse cx="70.0618" cy="64.4192" rx="1.54321" ry="1.54322" fill="white"/>
<ellipse cx="29.6293" cy="47.4438" rx="2.46913" ry="2.46914" fill="white"/>
<ellipse cx="65.7404" cy="34.172" rx="0.925925" ry="0.925929" fill="white"/>
<ellipse cx="40.1232" cy="77.6916" rx="1.23457" ry="1.23457" fill="white"/>
<ellipse cx="53.7032" cy="48.0616" rx="0.617284" ry="0.617286" fill="white"/>
<defs>
<linearGradient id="paint0_linear_1092_10558" x1="93.8273" y1="57.9392" x2="11.1113" y2="57.9392" gradientUnits="userSpaceOnUse">
<stop stop-color="#5FB6E3"/>
<stop offset="1" stop-color="#B6568E"/>
</linearGradient>
<linearGradient id="paint1_linear_1092_10558" x1="106.172" y1="20.5934" x2="98.1475" y2="20.5934" gradientUnits="userSpaceOnUse">
<stop stop-color="#5FB6E3"/>
<stop offset="1" stop-color="#B6568E"/>
</linearGradient>
<linearGradient id="paint2_linear_1092_10558" x1="12.963" y1="6.70313" x2="0" y2="6.70313" gradientUnits="userSpaceOnUse">
<stop stop-color="#5FB6E3"/>
<stop offset="1" stop-color="#B6568E"/>
</linearGradient>
<linearGradient id="paint3_linear_1092_10558" x1="6.17284" y1="84.4795" x2="0" y2="84.4795" gradientUnits="userSpaceOnUse">
<stop stop-color="#5FB6E3"/>
<stop offset="1" stop-color="#B6568E"/>
</linearGradient>
<linearGradient id="paint4_linear_1092_10558" x1="96.2954" y1="99.6055" x2="93.209" y2="99.6055" gradientUnits="userSpaceOnUse">
<stop stop-color="#5FB6E3"/>
<stop offset="1" stop-color="#B6568E"/>
</linearGradient>
</defs>
</svg>
