<svg width="140" height="132" viewBox="0 0 140 132" fill="none" xmlns="http://www.w3.org/2000/svg">
<circle cx="69.1862" cy="75.698" r="54.5349" fill="url(#paint0_linear_204_2026)"/>
<circle cx="134.709" cy="26.4538" r="5.2907" fill="url(#paint1_linear_204_2026)"/>
<ellipse cx="8.54651" cy="8.13953" rx="8.54651" ry="8.13953" fill="url(#paint2_linear_204_2026)"/>
<ellipse cx="4.06977" cy="111.105" rx="4.06977" ry="4.47674" fill="url(#paint3_linear_204_2026)"/>
<ellipse cx="124.942" cy="130.232" rx="2.03488" ry="1.62791" fill="url(#paint4_linear_204_2026)"/>
<path d="M65.1349 90.4451C63.9783 90.4451 62.8219 89.9495 62.161 88.9582L52.9088 77.0625C51.5871 75.4103 51.9176 73.0973 53.5697 71.7755C55.2219 70.4537 57.5349 70.7842 58.8567 72.4364L65.1349 80.5321L79.0133 62.5233C80.3351 60.8712 82.6481 60.5407 84.3003 61.8624C85.9524 63.1842 86.2829 65.4973 84.9611 67.1494L68.1089 88.9582C67.2828 89.7843 66.2915 90.4451 65.1349 90.4451Z" fill="white"/>
<circle cx="92.3835" cy="84.2439" r="2.03488" fill="white"/>
<circle cx="39.0698" cy="61.8603" r="3.25581" fill="white"/>
<circle cx="86.6863" cy="44.3606" r="1.22093" fill="white"/>
<circle cx="52.9072" cy="101.744" r="1.62791" fill="white"/>
<circle cx="70.814" cy="62.6743" r="0.813953" fill="white"/>
<defs>
<linearGradient id="paint0_linear_204_2026" x1="123.721" y1="75.698" x2="14.6514" y2="75.698" gradientUnits="userSpaceOnUse">
<stop stop-color="#5FB6E3"/>
<stop offset="1" stop-color="#B6568E"/>
</linearGradient>
<linearGradient id="paint1_linear_204_2026" x1="140" y1="26.4538" x2="129.418" y2="26.4538" gradientUnits="userSpaceOnUse">
<stop stop-color="#5FB6E3"/>
<stop offset="1" stop-color="#B6568E"/>
</linearGradient>
<linearGradient id="paint2_linear_204_2026" x1="17.093" y1="8.13953" x2="0" y2="8.13953" gradientUnits="userSpaceOnUse">
<stop stop-color="#5FB6E3"/>
<stop offset="1" stop-color="#B6568E"/>
</linearGradient>
<linearGradient id="paint3_linear_204_2026" x1="8.13953" y1="111.105" x2="0" y2="111.105" gradientUnits="userSpaceOnUse">
<stop stop-color="#5FB6E3"/>
<stop offset="1" stop-color="#B6568E"/>
</linearGradient>
<linearGradient id="paint4_linear_204_2026" x1="126.977" y1="130.232" x2="122.907" y2="130.232" gradientUnits="userSpaceOnUse">
<stop stop-color="#5FB6E3"/>
<stop offset="1" stop-color="#B6568E"/>
</linearGradient>
</defs>
</svg>
