<svg width="44" height="44" viewBox="0 0 44 44" fill="none" xmlns="http://www.w3.org/2000/svg">
<rect width="44" height="44" rx="14" fill="url(#paint0_linear_3795_1932)"/>
<path fill-rule="evenodd" clip-rule="evenodd" d="M24.2793 12.152C23.9093 12 23.4393 12 22.5003 12C21.5613 12 21.0923 12 20.7213 12.152C20.4772 12.2517 20.2552 12.3988 20.0682 12.5846C19.8811 12.7705 19.7326 12.9915 19.6313 13.235C19.5373 13.458 19.5013 13.719 19.4863 14.098C19.4792 14.3725 19.4024 14.6407 19.2631 14.8774C19.1239 15.114 18.9268 15.3114 18.6903 15.451C18.4491 15.5851 18.1779 15.6561 17.9018 15.6575C17.6258 15.6589 17.3539 15.5907 17.1113 15.459C16.7733 15.281 16.5283 15.183 16.2863 15.151C15.7569 15.0819 15.2216 15.2242 14.7963 15.547C14.4783 15.789 14.2433 16.193 13.7743 17C13.3043 17.807 13.0703 18.21 13.0173 18.605C12.9473 19.131 13.0913 19.663 13.4173 20.084C13.5653 20.276 13.7743 20.437 14.0973 20.639C14.5743 20.936 14.8803 21.442 14.8803 22C14.8803 22.558 14.5743 23.064 14.0983 23.36C13.7743 23.563 13.5653 23.724 13.4163 23.916C13.2559 24.1242 13.1381 24.362 13.0696 24.6158C13.0011 24.8696 12.9834 25.1343 13.0173 25.395C13.0703 25.789 13.3043 26.193 13.7743 27C14.2443 27.807 14.4783 28.21 14.7963 28.453C15.2203 28.776 15.7563 28.918 16.2863 28.849C16.5283 28.817 16.7733 28.719 17.1113 28.541C17.354 28.4092 17.6261 28.3408 17.9023 28.3422C18.1786 28.3436 18.4499 28.4147 18.6913 28.549C19.1773 28.829 19.4653 29.344 19.4863 29.902C19.5013 30.282 19.5373 30.542 19.6313 30.765C19.8353 31.255 20.2273 31.645 20.7213 31.848C21.0913 32 21.5613 32 22.5003 32C23.4393 32 23.9093 32 24.2793 31.848C24.5234 31.7483 24.7454 31.6012 24.9325 31.4154C25.1195 31.2295 25.268 31.0085 25.3693 30.765C25.4633 30.542 25.4993 30.282 25.5143 29.902C25.5343 29.344 25.8233 28.828 26.3103 28.549C26.5516 28.4149 26.8228 28.3439 27.0988 28.3425C27.3748 28.3411 27.6467 28.4093 27.8893 28.541C28.2273 28.719 28.4723 28.817 28.7143 28.849C29.2443 28.919 29.7803 28.776 30.2043 28.453C30.5223 28.211 30.7573 27.807 31.2263 27C31.6963 26.193 31.9303 25.79 31.9833 25.395C32.0171 25.1343 31.9992 24.8695 31.9306 24.6157C31.8619 24.3619 31.7439 24.1241 31.5833 23.916C31.4353 23.724 31.2263 23.563 30.9033 23.361C30.4263 23.064 30.1203 22.558 30.1203 22C30.1203 21.442 30.4263 20.936 30.9023 20.64C31.2263 20.437 31.4353 20.276 31.5843 20.084C31.7447 19.8758 31.8626 19.638 31.931 19.3842C31.9995 19.1304 32.0173 18.8656 31.9833 18.605C31.9303 18.211 31.6963 17.807 31.2263 17C30.7563 16.193 30.5223 15.79 30.2043 15.547C29.779 15.2242 29.2437 15.0819 28.7143 15.151C28.4723 15.183 28.2273 15.281 27.8893 15.459C27.6466 15.5908 27.3745 15.6592 27.0983 15.6578C26.8221 15.6564 26.5507 15.5853 26.3093 15.451C26.073 15.3113 25.8761 15.1139 25.7371 14.8772C25.598 14.6405 25.5213 14.3724 25.5143 14.098C25.4993 13.718 25.4633 13.458 25.3693 13.235C25.268 12.9915 25.1195 12.7705 24.9325 12.5846C24.7454 12.3988 24.5234 12.2517 24.2793 12.152ZM22.5003 25C24.1703 25 25.5233 23.657 25.5233 22C25.5233 20.343 24.1693 19 22.5003 19C20.8313 19 19.4773 20.343 19.4773 22C19.4773 23.657 20.8313 25 22.5003 25Z" fill="url(#paint1_linear_3795_1932)"/>
<defs>
<linearGradient id="paint0_linear_3795_1932" x1="44" y1="22" x2="0" y2="22" gradientUnits="userSpaceOnUse">
<stop stop-color="#EFF7FC"/>
<stop offset="1" stop-color="#F8EEF4"/>
</linearGradient>
<linearGradient id="paint1_linear_3795_1932" x1="32.0001" y1="22" x2="13" y2="22" gradientUnits="userSpaceOnUse">
<stop stop-color="#5FB6E3"/>
<stop offset="1" stop-color="#B6568E"/>
</linearGradient>
</defs>
</svg>
