<svg width="22" height="22" viewBox="0 0 22 22" fill="none" xmlns="http://www.w3.org/2000/svg">
<path d="M1.00001 11C1.00001 5.47714 5.47715 1 11 1C16.5229 1 21 5.47714 21 11C21 16.5229 16.5229 21 11 21C9.30858 21 7.71286 20.5793 6.31429 19.8364L2.36572 20.9593C2.18221 21.0113 1.98813 21.0134 1.80354 20.9653C1.61896 20.9173 1.45054 20.8208 1.3157 20.6859C1.18086 20.551 1.08448 20.3825 1.03652 20.1979C0.988556 20.0133 0.990746 19.8192 1.04287 19.6357L2.16572 15.6879C1.39825 14.2446 0.997898 12.6346 1.00001 11ZM6.71429 8.85714C6.71429 9.04658 6.78955 9.22826 6.9235 9.36222C7.05746 9.49617 7.23914 9.57143 7.42858 9.57143H14.5714C14.7609 9.57143 14.9426 9.49617 15.0765 9.36222C15.2105 9.22826 15.2857 9.04658 15.2857 8.85714C15.2857 8.6677 15.2105 8.48602 15.0765 8.35207C14.9426 8.21811 14.7609 8.14286 14.5714 8.14286H7.42858C7.23914 8.14286 7.05746 8.21811 6.9235 8.35207C6.78955 8.48602 6.71429 8.6677 6.71429 8.85714ZM7.42858 12.4286C7.23914 12.4286 7.05746 12.5038 6.9235 12.6378C6.78955 12.7717 6.71429 12.9534 6.71429 13.1429C6.71429 13.3323 6.78955 13.514 6.9235 13.6479C7.05746 13.7819 7.23914 13.8571 7.42858 13.8571H11.7143C11.9037 13.8571 12.0854 13.7819 12.2194 13.6479C12.3533 13.514 12.4286 13.3323 12.4286 13.1429C12.4286 12.9534 12.3533 12.7717 12.2194 12.6378C12.0854 12.5038 11.9037 12.4286 11.7143 12.4286H7.42858Z" fill="url(#paint0_linear_204_4533)"/>
<defs>
<linearGradient id="paint0_linear_204_4533" x1="21" y1="11" x2="1" y2="11" gradientUnits="userSpaceOnUse">
<stop stop-color="#5FB6E3"/>
<stop offset="1" stop-color="#B6568E"/>
</linearGradient>
</defs>
</svg>
