<svg width="40" height="40" viewBox="0 0 40 40" fill="none" xmlns="http://www.w3.org/2000/svg">
<rect width="40" height="40" rx="13" fill="url(#paint0_linear_188_1648)"/>
<path d="M21.5616 14.3846C21.2996 14.3557 20.9589 14.3548 20.4432 14.3548H20.0012C19.8346 14.3548 19.6749 14.2835 19.5572 14.1564C19.4394 14.0294 19.3733 13.8571 19.3733 13.6774C19.3733 13.4978 19.4394 13.3254 19.5572 13.1984C19.6749 13.0714 19.8346 13 20.0012 13H20.4742C20.9513 13 21.3565 13 21.6914 13.037C22.0472 13.0768 22.3771 13.1635 22.6876 13.3712C22.9999 13.579 23.2184 13.8581 23.411 14.1841C23.5801 14.4713 23.7509 14.8344 23.9468 15.258H24.9137C25.1515 15.258 25.37 15.258 25.5516 15.2761C25.7484 15.2942 25.9618 15.3384 26.1695 15.4658C26.3972 15.6058 26.5855 15.809 26.7153 16.0547C26.8333 16.2787 26.8744 16.509 26.8911 16.7212C26.9078 16.9172 26.9078 17.153 26.9078 17.4095V17.4935C26.9078 17.7283 26.9087 17.9794 26.8384 18.2179C26.7903 18.3774 26.7197 18.5279 26.6291 18.6641C26.4934 18.8664 26.3059 19.0154 26.1301 19.1536L26.0866 19.1888L25.8547 19.3731L26.2624 20.2528C26.8345 20.3325 27.3752 20.5807 27.8252 20.9701C28.2752 21.3596 28.617 21.8753 28.813 22.4607C29.0091 23.046 29.052 23.6783 28.9368 24.2881C28.8217 24.898 28.553 25.4618 28.1603 25.9177C27.7676 26.3736 27.266 26.704 26.7107 26.8725C26.1554 27.0411 25.5678 27.0413 25.0123 26.8731C24.4569 26.7049 23.9552 26.3749 23.5622 25.9193C23.1693 25.4636 22.9003 24.9 22.7848 24.2902H18.4733C18.3283 25.0559 17.9424 25.744 17.381 26.2378C16.8196 26.7317 16.1172 27.001 15.3928 27C14.6684 26.999 13.9666 26.7279 13.4063 26.2326C12.846 25.7372 12.4617 25.0482 12.3184 24.2821C11.9456 24.2416 11.6013 24.0486 11.3564 23.7426C11.1114 23.4367 10.9844 23.0412 11.0015 22.6373V22.5858C11.0015 22.2833 11.0015 22.0909 11.0141 21.922C11.0885 20.9038 11.4971 19.9477 12.1665 19.2255C12.8359 18.5033 13.7221 18.0624 14.6658 17.9821C14.8224 17.9686 15.0007 17.9686 15.2812 17.9686H15.8588C16.6106 17.9686 17.2385 17.9686 17.7358 18.0408C18.2615 18.1167 18.7362 18.2847 19.1171 18.6966C19.4988 19.1075 19.6546 19.6197 19.7249 20.1869C19.7919 20.7234 19.7919 21.4008 19.7919 22.2119V22.9363H22.7848C22.8975 22.3442 23.1546 21.7954 23.5296 21.3464C23.9046 20.8974 24.3838 20.5644 24.9179 20.382L22.8769 15.9788C22.6458 15.4802 22.4934 15.1524 22.3511 14.913C22.2172 14.6854 22.1217 14.587 22.028 14.5246C21.935 14.4614 21.8103 14.4126 21.5616 14.3846Z" fill="white"/>
<defs>
<linearGradient id="paint0_linear_188_1648" x1="40" y1="20" x2="0" y2="20" gradientUnits="userSpaceOnUse">
<stop stop-color="#5FB6E3"/>
<stop offset="1" stop-color="#B6568E"/>
</linearGradient>
</defs>
</svg>
