<svg width="44" height="44" viewBox="0 0 44 44" fill="none" xmlns="http://www.w3.org/2000/svg">
<rect width="44" height="44" rx="14" fill="url(#paint0_linear_3795_1930)"/>
<path fill-rule="evenodd" clip-rule="evenodd" d="M30.4096 19.8606C30.3513 19.8579 30.2929 19.8569 30.2346 19.8576H27.7996C25.8076 19.8576 24.1016 21.4386 24.1016 23.5006C24.1016 25.5626 25.8076 27.1436 27.8006 27.1436H30.2336C30.2949 27.1443 30.3532 27.143 30.4086 27.1396C30.8196 27.113 31.207 26.938 31.4987 26.6472C31.7904 26.3564 31.9666 25.9696 31.9946 25.5586C31.9986 25.4996 31.9986 25.4366 31.9986 25.3786V21.6226C31.9986 21.5646 31.9986 21.5016 31.9946 21.4426C31.9666 21.0319 31.7905 20.6452 31.499 20.3544C31.2075 20.0636 30.8204 19.8885 30.4096 19.8616M27.5866 24.4726C28.0996 24.4726 28.5166 24.0386 28.5166 23.5016C28.5166 22.9646 28.0996 22.5306 27.5866 22.5306C27.0736 22.5306 26.6576 22.9646 26.6576 23.5016C26.6576 24.0386 27.0726 24.4726 27.5866 24.4726Z" fill="url(#paint1_linear_3795_1930)"/>
<path fill-rule="evenodd" clip-rule="evenodd" d="M30.234 28.6C30.2675 28.5988 30.3008 28.6055 30.3312 28.6196C30.3617 28.6337 30.3884 28.6547 30.4092 28.6809C30.43 28.7072 30.4444 28.738 30.4511 28.7708C30.4579 28.8037 30.4568 28.8377 30.448 28.87C30.254 29.562 29.947 30.152 29.454 30.648C28.733 31.375 27.818 31.698 26.688 31.851C25.59 32 24.188 32 22.416 32H20.379C18.608 32 17.205 32 16.107 31.851C14.977 31.698 14.062 31.375 13.341 30.648C12.62 29.923 12.3 29 12.148 27.862C12 26.754 12 25.34 12 23.555V23.445C12 21.66 12 20.245 12.148 19.139C12.3 18 12.62 17.08 13.34 16.351C14.061 15.625 14.976 15.301 16.106 15.149C17.205 15 18.608 15 20.379 15H22.416C24.187 15 25.59 15 26.688 15.149C27.818 15.302 28.733 15.625 29.454 16.351C29.947 16.848 30.254 17.438 30.448 18.131C30.4566 18.1633 30.4575 18.1971 30.4507 18.2298C30.4439 18.2625 30.4295 18.2932 30.4087 18.3193C30.3879 18.3455 30.3613 18.3664 30.3309 18.3804C30.3006 18.3944 30.2674 18.4011 30.234 18.4H27.801C25.067 18.4 22.658 20.577 22.658 23.5C22.658 26.423 25.068 28.6 27.802 28.6H30.234ZM15.614 18.886C15.5188 18.8864 15.4246 18.9055 15.3368 18.9423C15.249 18.9791 15.1693 19.0329 15.1022 19.1005C15.0352 19.1681 14.9821 19.2482 14.946 19.3363C14.91 19.4244 14.8916 19.5188 14.892 19.614C14.892 20.017 15.215 20.343 15.614 20.343H19.47C19.87 20.343 20.193 20.017 20.193 19.614C20.1935 19.4216 20.1177 19.2369 19.9821 19.1004C19.8466 18.9639 19.6624 18.8868 19.47 18.886H15.614Z" fill="url(#paint2_linear_3795_1930)"/>
<path d="M17.7773 14.0243L19.7353 12.5813C20.2463 12.2038 20.865 12 21.5003 12C22.1357 12 22.7543 12.2038 23.2653 12.5813L25.2343 14.0323C24.4103 14.0003 23.4903 14.0003 22.4833 14.0003H20.3133C19.3913 14.0003 18.5443 14.0003 17.7773 14.0243Z" fill="url(#paint3_linear_3795_1930)"/>
<defs>
<linearGradient id="paint0_linear_3795_1930" x1="44" y1="22" x2="0" y2="22" gradientUnits="userSpaceOnUse">
<stop stop-color="#EFF7FC"/>
<stop offset="1" stop-color="#F8EEF4"/>
</linearGradient>
<linearGradient id="paint1_linear_3795_1930" x1="31.9986" y1="23.5006" x2="24.1016" y2="23.5006" gradientUnits="userSpaceOnUse">
<stop stop-color="#5FB6E3"/>
<stop offset="1" stop-color="#B6568E"/>
</linearGradient>
<linearGradient id="paint2_linear_3795_1930" x1="30.4555" y1="23.5" x2="12" y2="23.5" gradientUnits="userSpaceOnUse">
<stop stop-color="#5FB6E3"/>
<stop offset="1" stop-color="#B6568E"/>
</linearGradient>
<linearGradient id="paint3_linear_3795_1930" x1="25.2343" y1="13.0162" x2="17.7773" y2="13.0162" gradientUnits="userSpaceOnUse">
<stop stop-color="#5FB6E3"/>
<stop offset="1" stop-color="#B6568E"/>
</linearGradient>
</defs>
</svg>
